<svg width="435" height="435" viewBox="0 0 435 435" fill="none" xmlns="http://www.w3.org/2000/svg">
<path d="M391.414 346.689H362.598V346.907H391.414V346.689Z" fill="#EBEBEB"/>
<path d="M288.162 349.051H280.599V349.268H288.162V349.051Z" fill="#EBEBEB"/>
<path d="M361.726 338.611H345.029V338.829H361.726V338.611Z" fill="#EBEBEB"/>
<path d="M83.2176 340.072H45.6396V340.29H83.2176V340.072Z" fill="#EBEBEB"/>
<path d="M96.4736 340.072H90.9639V340.29H96.4736V340.072Z" fill="#EBEBEB"/>
<path d="M195.878 343.746H114.38V343.964H195.878V343.746Z" fill="#EBEBEB"/>
<path d="M206.202 293.886H38.2062C35.4683 293.886 33.2402 291.658 33.2402 288.92V52.7746C33.2402 50.0367 35.4683 47.8086 38.2062 47.8086H206.202C208.939 47.8086 211.167 50.0367 211.167 52.7746V288.92C211.167 291.658 208.939 293.886 206.202 293.886ZM38.2062 48.027C35.5875 48.027 33.4577 50.1567 33.4577 52.7754V288.921C33.4577 291.54 35.5875 293.67 38.2062 293.67H206.202C208.82 293.67 210.95 291.54 210.95 288.921V52.7746C210.95 50.1567 208.82 48.0261 206.202 48.0261L38.2062 48.027Z" fill="#EBEBEB"/>
<path d="M394.379 293.886H226.384C223.646 293.886 221.419 291.658 221.419 288.92V52.7746C221.419 50.0367 223.647 47.8086 226.384 47.8086H394.379C397.118 47.8086 399.345 50.0367 399.345 52.7746V288.92C399.346 291.658 397.118 293.886 394.379 293.886ZM226.384 48.027C223.766 48.027 221.636 50.1567 221.636 52.7754V288.921C221.636 291.54 223.766 293.67 226.384 293.67H394.379C396.998 293.67 399.128 291.54 399.128 288.921V52.7746C399.128 50.1567 396.998 48.0261 394.379 48.0261L226.384 48.027Z" fill="#EBEBEB"/>
<path d="M435 332.686H0V332.903H435V332.686Z" fill="#EBEBEB"/>
<path d="M187.276 88.4492C185.114 88.4492 183.361 90.2023 183.361 92.3642V99.1789H191.191V92.3642C191.191 90.2014 189.438 88.4492 187.276 88.4492ZM187.276 94.1764C186.595 94.1764 186.044 93.6248 186.044 92.9436C186.044 92.2633 186.595 91.7108 187.276 91.7108C187.958 91.7108 188.509 92.2624 188.509 92.9436C188.509 93.6248 187.958 94.1764 187.276 94.1764Z" fill="#E0E0E0"/>
<path d="M348.227 88.4492C346.065 88.4492 344.312 90.2023 344.312 92.3642V99.1789H352.142V92.3642C352.142 90.2014 350.389 88.4492 348.227 88.4492ZM348.227 94.1764C347.545 94.1764 346.994 93.6248 346.994 92.9436C346.994 92.2633 347.545 91.7108 348.227 91.7108C348.908 91.7108 349.459 92.2624 349.459 92.9436C349.459 93.6248 348.908 94.1764 348.227 94.1764Z" fill="#E0E0E0"/>
<path d="M370.381 96.5684H165.12V214.286H370.381V96.5684Z" fill="#EBEBEB"/>
<path d="M364.726 102.225H170.775V208.633H364.726V102.225Z" fill="#F5F5F5"/>
<path d="M374.182 210.297H161.321V219.24H374.182V210.297Z" fill="#F0F0F0"/>
<path d="M230.559 120.93H229.689H194.019V130.935V131.805V140.94V141.81V150.945V151.815V160.95V161.82V170.955V171.825V181.83H204.024H204.894H229.689H230.559H257.42H258.29H285.151H286.021H312.882H313.752H341.484V171.825V170.955V161.82V160.95V151.815V150.945V141.81V140.94V131.805V130.935V120.93H230.559ZM312.882 150.945H286.021V141.81H312.882V150.945ZM312.882 160.95H286.021V151.815H312.882V160.95ZM312.882 170.955H286.021V161.82H312.882V170.955ZM204.894 161.82H229.689V170.955H204.894V161.82ZM204.894 151.815H229.689V160.95H204.894V151.815ZM204.894 141.81H229.689V150.945H204.894V141.81ZM204.894 131.805H229.689V140.94H204.894V131.805ZM285.151 150.945H258.29V141.81H285.151V150.945ZM285.151 160.95H258.29V151.815H285.151V160.95ZM230.559 151.815H257.42V160.95H230.559V151.815ZM257.42 150.945H230.559V141.81H257.42V150.945ZM230.559 161.82H257.42V170.955H230.559V161.82ZM258.29 161.82H285.151V170.955H258.29V161.82ZM285.151 140.94H258.29H257.42H230.559V131.805H285.151V140.94ZM194.889 121.8H229.689V130.935H204.894H204.024H194.889V121.8ZM194.889 131.805H204.024V140.94H194.889V131.805ZM194.889 141.81H204.024V150.945H194.889V141.81ZM194.889 151.815H204.024V160.95H194.889V151.815ZM194.889 161.82H204.024V170.955H194.889V161.82ZM204.024 180.96H194.889V171.825H204.024V180.96ZM229.689 180.96H204.894V171.825H229.689V180.96ZM257.42 180.96H230.559V171.825H257.42V180.96ZM285.151 180.96H258.29V171.825H285.151V180.96ZM312.882 180.96H286.021V171.825H312.882V180.96ZM340.614 180.96H313.752V171.825H340.614V180.96ZM340.614 170.955H313.752V161.82H340.614V170.955ZM340.614 160.95H313.752V151.815H340.614V160.95ZM340.614 150.945H313.752V141.81H340.614V150.945ZM340.614 140.94H313.752H312.882H286.021V131.805H340.614V140.94ZM286.021 130.935H285.151H230.559V121.8H340.614V130.935H286.021Z" fill="#E0E0E0"/>
<path d="M78.2908 168.639H58.7158V333.055H78.2908V168.639Z" fill="#E0E0E0"/>
<path d="M131.103 168.639H76.1543V333.055H131.103V168.639Z" fill="#EBEBEB"/>
<path d="M125.504 174.236H81.751V217.989H125.504V174.236Z" fill="#FAFAFA"/>
<path d="M115.464 199.977H91.7902C91.1264 199.977 90.5879 199.438 90.5879 198.775C90.5879 198.111 91.1264 197.572 91.7902 197.572H115.464C116.128 197.572 116.666 198.111 116.666 198.775C116.666 199.438 116.128 199.977 115.464 199.977Z" fill="#E0E0E0"/>
<path d="M115.464 204.786H91.7902C91.1264 204.786 90.5879 204.247 90.5879 203.583C90.5879 202.919 91.1264 202.381 91.7902 202.381H115.464C116.128 202.381 116.666 202.919 116.666 203.583C116.666 204.248 116.128 204.786 115.464 204.786Z" fill="#E0E0E0"/>
<path d="M115.464 209.596H91.7902C91.1264 209.596 90.5879 209.058 90.5879 208.394C90.5879 207.73 91.1264 207.191 91.7902 207.191H115.464C116.128 207.191 116.666 207.73 116.666 208.394C116.666 209.058 116.128 209.596 115.464 209.596Z" fill="#E0E0E0"/>
<path d="M108.288 191.1H98.9672L96.5068 188.639V183.388L98.9672 180.928H108.288L110.748 183.388V188.639L108.288 191.1Z" fill="#EBEBEB"/>
<path d="M125.504 222.178H81.751V265.931H125.504V222.178Z" fill="#FAFAFA"/>
<path d="M115.464 247.92H91.7902C91.1264 247.92 90.5879 247.382 90.5879 246.718C90.5879 246.054 91.1264 245.516 91.7902 245.516H115.464C116.128 245.516 116.666 246.054 116.666 246.718C116.666 247.382 116.128 247.92 115.464 247.92Z" fill="#E0E0E0"/>
<path d="M115.464 252.729H91.7902C91.1264 252.729 90.5879 252.19 90.5879 251.527C90.5879 250.863 91.1264 250.324 91.7902 250.324H115.464C116.128 250.324 116.666 250.863 116.666 251.527C116.666 252.19 116.128 252.729 115.464 252.729Z" fill="#E0E0E0"/>
<path d="M115.464 257.537H91.7902C91.1264 257.537 90.5879 256.999 90.5879 256.335C90.5879 255.671 91.1264 255.133 91.7902 255.133H115.464C116.128 255.133 116.666 255.671 116.666 256.335C116.666 256.999 116.128 257.537 115.464 257.537Z" fill="#E0E0E0"/>
<path d="M108.288 239.041H98.9672L96.5068 236.581V231.33L98.9672 228.869H108.288L110.748 231.33V236.581L108.288 239.041Z" fill="#EBEBEB"/>
<path d="M125.504 270.119H81.751V313.872H125.504V270.119Z" fill="#FAFAFA"/>
<path d="M115.464 295.862H91.7902C91.1264 295.862 90.5879 295.323 90.5879 294.659C90.5879 293.996 91.1264 293.457 91.7902 293.457H115.464C116.128 293.457 116.666 293.996 116.666 294.659C116.666 295.323 116.128 295.862 115.464 295.862Z" fill="#E0E0E0"/>
<path d="M115.464 300.67H91.7902C91.1264 300.67 90.5879 300.132 90.5879 299.468C90.5879 298.804 91.1264 298.266 91.7902 298.266H115.464C116.128 298.266 116.666 298.804 116.666 299.468C116.666 300.133 116.128 300.67 115.464 300.67Z" fill="#E0E0E0"/>
<path d="M115.464 305.479H91.7902C91.1264 305.479 90.5879 304.94 90.5879 304.277C90.5879 303.613 91.1264 303.074 91.7902 303.074H115.464C116.128 303.074 116.666 303.613 116.666 304.277C116.666 304.94 116.128 305.479 115.464 305.479Z" fill="#E0E0E0"/>
<path d="M108.288 286.985H98.9672L96.5068 284.524V279.273L98.9672 276.812H108.288L110.748 279.273V284.524L108.288 286.985Z" fill="#EBEBEB"/>
<path d="M213.305 368.632C306.466 368.632 381.988 364.221 381.988 358.781C381.988 353.34 306.466 348.93 213.305 348.93C120.143 348.93 44.6211 353.34 44.6211 358.781C44.6211 364.221 120.143 368.632 213.305 368.632Z" fill="#F5F5F5"/>
<path d="M103.186 358.281L81.2568 350.206L59.0892 358.287C58.3236 358.567 57.5137 357.999 57.5137 357.185C57.5137 356.728 57.779 356.313 58.1931 356.121L81.2568 345.42L104.088 356.12C104.5 356.313 104.763 356.726 104.763 357.181C104.763 357.997 103.951 358.563 103.186 358.281Z" fill="#263238"/>
<path opacity="0.3" d="M103.186 358.281L81.2568 350.206L59.0892 358.287C58.3236 358.567 57.5137 357.999 57.5137 357.185C57.5137 356.728 57.779 356.313 58.1931 356.121L81.2568 345.42L104.088 356.12C104.5 356.313 104.763 356.726 104.763 357.181C104.763 357.997 103.951 358.563 103.186 358.281Z" fill="white"/>
<path opacity="0.2" d="M76.0889 352.088L81.2558 350.205L86.187 352.02V347.73L81.2558 345.418L76.0889 347.816V352.088Z" fill="black"/>
<path d="M81.1379 358.468C80.1339 358.468 79.2943 357.705 79.1995 356.705L78.5801 350.205V296.25H83.6948V350.205L83.0754 356.705C82.9814 357.705 82.1419 358.468 81.1379 358.468Z" fill="#263238"/>
<path opacity="0.3" d="M81.1379 358.468C80.1339 358.468 79.2943 357.705 79.1995 356.705L78.5801 350.205V296.25H83.6948V350.205L83.0754 356.705C82.9814 357.705 82.1419 358.468 81.1379 358.468Z" fill="white"/>
<path opacity="0.2" d="M83.6958 296.25H78.5811V302.533H83.6958V296.25Z" fill="black"/>
<path d="M69.6664 240.664C70.3981 240.65 71.1324 240.977 71.6222 241.79C80.9904 257.369 84.3181 276.095 81.0861 293.962C80.8834 295.081 80.1169 295.603 79.266 295.661C77.8479 295.757 52.604 295.668 51.6888 295.666C50.3116 295.663 48.7995 294.493 49.1231 292.706C52.1264 276.103 48.8195 258.614 40.1352 244.172C39.0564 242.378 40.6476 240.693 42.2562 240.663C42.9879 240.649 68.0578 240.694 69.6664 240.664Z" fill="#407BFF"/>
<path opacity="0.2" d="M69.6664 240.664C70.3981 240.65 71.1324 240.977 71.6222 241.79C80.9904 257.369 84.3181 276.095 81.0861 293.962C80.8834 295.081 80.1169 295.603 79.266 295.661C77.8479 295.757 52.604 295.668 51.6888 295.666C50.3116 295.663 48.7995 294.493 49.1231 292.706C52.1264 276.103 48.8195 258.614 40.1352 244.172C39.0564 242.378 40.6476 240.693 42.2562 240.663C42.9879 240.649 68.0578 240.694 69.6664 240.664Z" fill="black"/>
<path d="M49.1232 292.708C52.1265 276.105 48.8196 258.616 40.1353 244.174C38.5658 241.564 42.6461 239.188 44.2121 241.792C53.5802 257.37 56.908 276.096 53.6759 293.963C53.1357 296.949 48.5847 295.684 49.1232 292.708Z" fill="#407BFF"/>
<g opacity="0.1">
<path d="M49.1232 292.708C52.1265 276.105 48.8196 258.616 40.1353 244.174C38.5658 241.564 42.6461 239.188 44.2121 241.792C53.5802 257.37 56.908 276.096 53.6759 293.963C53.1357 296.949 48.5847 295.684 49.1232 292.708Z" fill="white"/>
</g>
<path d="M127.843 291.338C122.057 289.863 116.11 289.051 110.147 288.901C104.003 288.747 81.0016 288.878 75.5388 288.876C68.8903 288.874 62.2409 289.693 55.7898 291.338C51.7348 292.373 52.9849 298.224 56.6476 298.292C56.9713 298.298 126.502 298.277 126.757 298.289C130.59 298.464 131.987 292.395 127.843 291.338Z" fill="#407BFF"/>
<path opacity="0.3" d="M127.843 291.338C122.057 289.863 116.11 289.051 110.147 288.901C104.003 288.747 81.0016 288.878 75.5388 288.876C68.8903 288.874 62.2409 289.693 55.7898 291.338C51.7348 292.373 52.9849 298.224 56.6476 298.292C56.9713 298.298 126.502 298.277 126.757 298.289C130.59 298.464 131.987 292.395 127.843 291.338Z" fill="black"/>
<path d="M57.6737 298.168C69.3535 295.189 81.7257 295.189 93.4055 298.168C97.8233 299.295 99.7086 292.466 95.2882 291.339C82.3869 288.049 68.6923 288.049 55.791 291.339C51.3775 292.465 53.248 299.297 57.6737 298.168Z" fill="#407BFF"/>
<g opacity="0.3">
<path d="M57.6737 298.168C69.3535 295.189 81.7257 295.189 93.4055 298.168C97.8233 299.295 99.7086 292.466 95.2882 291.339C82.3869 288.049 68.6923 288.049 55.791 291.339C51.3775 292.465 53.248 299.297 57.6737 298.168Z" fill="white"/>
</g>
<path d="M121.674 254.365L129.674 254.026L132.066 252.494C132.631 252.132 133.322 252.019 133.974 252.182L135.686 252.61C136.583 252.834 137.53 252.533 138.132 251.831C139.143 250.65 138.809 248.838 137.443 248.096L134.845 246.686C134.011 246.234 132.99 246.305 132.228 246.87L128.022 249.984L121.674 249.536V254.365Z" fill="#EBB376"/>
<path d="M113.018 223.377L110.257 247.76L125.821 248.866L125.134 254.46C125.134 254.46 109.396 257.215 103.626 255.641C97.855 254.067 105.543 227.706 105.543 227.706L113.018 223.377Z" fill="#407BFF"/>
<path opacity="0.2" d="M113.018 223.377L110.257 247.76L125.821 248.866L125.134 254.46C125.134 254.46 109.396 257.215 103.626 255.641C97.855 254.067 105.543 227.706 105.543 227.706L113.018 223.377Z" fill="white"/>
<path opacity="0.1" d="M108.028 253.429C103.965 251.316 109.416 231.033 111.339 224.35L105.542 227.706C105.542 227.706 97.8541 254.067 103.625 255.641C107.173 256.608 114.482 255.94 119.592 255.282C116.111 255.283 111.022 254.987 108.028 253.429Z" fill="black"/>
<path d="M99.2475 270.985C99.2475 270.985 83.2473 274.394 64.3613 272.952C64.3613 272.952 67.0444 241.765 76.5379 224.695C78.0543 221.968 80.572 219.939 83.5509 219.011C90.3717 216.886 101.346 214.984 113.019 223.378C113.019 223.378 107.116 234.394 99.2475 270.985Z" fill="#407BFF"/>
<path opacity="0.4" d="M99.2475 270.985C99.2475 270.985 83.2473 274.394 64.3613 272.952C64.3613 272.952 67.0444 241.765 76.5379 224.695C78.0543 221.968 80.572 219.939 83.5509 219.011C90.3717 216.886 101.346 214.984 113.019 223.378C113.019 223.378 107.116 234.394 99.2475 270.985Z" fill="white"/>
<path d="M104.92 231.149C104.92 231.666 104.501 232.085 103.984 232.085C103.467 232.085 103.048 231.666 103.048 231.149C103.048 230.632 103.467 230.213 103.984 230.213C104.501 230.213 104.92 230.632 104.92 231.149Z" fill="#407BFF"/>
<path d="M101.611 240.723C101.611 241.24 101.192 241.659 100.675 241.659C100.159 241.659 99.7393 241.24 99.7393 240.723C99.7393 240.206 100.159 239.787 100.675 239.787C101.192 239.787 101.611 240.206 101.611 240.723Z" fill="#407BFF"/>
<path d="M97.6744 254.364C98.1914 254.364 98.6105 253.945 98.6105 253.428C98.6105 252.911 98.1914 252.492 97.6744 252.492C97.1574 252.492 96.7383 252.911 96.7383 253.428C96.7383 253.945 97.1574 254.364 97.6744 254.364Z" fill="#407BFF"/>
<path d="M96.1408 264.001C96.1408 264.517 95.7215 264.937 95.2047 264.937C94.6879 264.937 94.2686 264.517 94.2686 264.001C94.2686 263.484 94.6879 263.064 95.2047 263.064C95.7215 263.064 96.1408 263.484 96.1408 264.001Z" fill="#407BFF"/>
<path opacity="0.1" d="M106.079 243.204L106.078 243.203L94.268 245.868L84.9521 243.312L81.2798 232.82L80.4925 226.918H77.8694C77.8694 226.918 75.3777 245.709 83.902 253.429C89.2177 258.242 97.8986 255.108 103.681 252.066C104.524 248.787 105.326 245.84 106.079 243.204Z" fill="black"/>
<path d="M113.729 327.711L109.631 345.554L114.717 347.523L122.044 329.576L113.729 327.711Z" fill="#EBB376"/>
<path d="M114.42 346.358L109.799 343.886C109.598 343.778 109.349 343.824 109.199 343.996L105.9 347.814C105.605 348.151 105.639 348.663 105.975 348.958C106.019 348.997 106.066 349.03 106.115 349.058C108.055 350.059 109.821 350.874 112.211 352.165C115.035 353.687 114.136 353.638 117.431 355.473C119.417 356.576 121.007 354.499 120.219 353.931C116.601 351.353 116.119 349.565 115.369 347.369C115.189 346.927 114.85 346.567 114.42 346.358Z" fill="#263238"/>
<path d="M72.4928 272.361L97.4766 270.984C97.4766 270.984 138.985 277.476 138.395 289.083C137.805 300.69 120.887 337.281 120.887 337.281L110.981 334.527C110.981 334.527 118.525 297.739 123.444 291.641C123.444 291.641 92.4445 288.004 84.6885 285.935C80.4211 284.797 70.1325 286.721 72.4928 272.361Z" fill="#407BFF"/>
<path opacity="0.2" d="M119.251 291.136C119.363 288.794 119.131 285.146 117.347 281.117C115.038 275.903 96.0369 272.777 86.9462 271.566L72.4938 272.362C70.1335 286.723 80.4221 284.799 84.6903 285.937C90.6777 287.533 110.515 290.064 119.251 291.136Z" fill="black"/>
<path d="M96.7557 332.627L96.1006 350.922L101.609 351.184L105.274 332.889L96.7557 332.627Z" fill="#EBB376"/>
<path d="M101.213 349.519L95.8771 349.632C95.6449 349.637 95.4465 349.801 95.3995 350.029L94.3773 355.064C94.2833 355.511 94.5687 355.948 95.015 356.042C95.0724 356.055 95.1307 356.061 95.189 356.06C97.4101 355.981 99.3841 355.823 102.152 355.776C105.417 355.718 104.595 356.123 108.435 356.108C110.748 356.096 111.123 353.459 110.141 353.348C105.642 352.865 104.322 351.518 102.561 349.944C102.178 349.642 101.698 349.49 101.213 349.519Z" fill="#263238"/>
<path d="M79.1813 272.362C79.1813 272.362 112.625 273.543 114.592 283.772C116.559 294.002 105.346 339.838 105.346 339.838H95.3128C95.3128 339.838 96.4934 298.723 99.8377 290.066C99.8377 290.066 72.2961 294.395 65.0177 288.144C59.8151 283.676 66.0016 272.359 66.0016 272.359L79.1813 272.362Z" fill="#407BFF"/>
<path d="M110.195 332.363L122.657 335.839L120.379 340.63L109.018 337.806L110.195 332.363Z" fill="#263238"/>
<path opacity="0.3" d="M110.195 332.363L122.657 335.839L120.379 340.63L109.018 337.806L110.195 332.363Z" fill="black"/>
<path d="M109.608 239.771L119.576 236.492L125.954 239.34C126.559 239.609 126.992 240.16 127.114 240.811L127.789 244.441C128.019 245.68 127.068 246.824 125.808 246.824C125.34 246.824 124.886 246.662 124.525 246.364L118.92 241.739L110.195 245.251L109.608 239.771Z" fill="#EBB376"/>
<path d="M94.3291 337.281L106.92 337.872L105.739 342.888L94.3291 342.298V337.281Z" fill="#263238"/>
<path opacity="0.3" d="M94.3291 337.281L106.92 337.872L105.739 342.888L94.3291 342.298V337.281Z" fill="black"/>
<path d="M78.5248 223.378C80.4666 220.469 83.5499 217.437 91.3773 243.05L114.823 237.279L115.509 243.677C115.509 243.677 96.3615 253.936 88.689 252.492C81.0173 251.051 73.1899 231.367 78.5248 223.378Z" fill="#407BFF"/>
<path opacity="0.2" d="M78.5248 223.378C80.4666 220.469 83.5499 217.437 91.3773 243.05L114.823 237.279L115.509 243.677C115.509 243.677 96.3615 253.936 88.689 252.492C81.0173 251.051 73.1899 231.367 78.5248 223.378Z" fill="white"/>
<path d="M103.047 214.459L98.6104 218.625C98.6104 218.625 100.338 224.03 104.777 224.03C109.216 224.03 106.526 217.193 106.526 217.193L103.047 214.459Z" fill="#EBB376"/>
<path d="M105.397 227.165L107.561 226.034L108.47 224.657L108.089 220.398C104.081 218.407 100.221 217.506 96.6577 217.266L96.4941 219.246L98.904 226.231L101.707 227.165H105.397Z" fill="#EBB376"/>
<path opacity="0.1" d="M106.526 217.193L103.047 214.459L102.46 215.009C102.118 217.04 101.728 221.27 103.983 222.935C104.88 223.596 105.738 223.671 106.504 223.458C108.34 221.822 106.526 217.193 106.526 217.193Z" fill="black"/>
<path d="M104.166 227.705L107.511 229.475C109.858 226.681 109.273 222.769 108.734 220.721C108.341 220.515 107.948 220.319 107.558 220.134C108.001 223.223 107.644 226.616 103.97 226.722C98.1947 226.889 97.3342 219.511 97.2055 217.307C96.787 217.271 96.3729 217.245 95.9622 217.227C94.1309 225.392 99.2482 229.476 99.2482 229.476L104.166 227.705Z" fill="#407BFF"/>
<path opacity="0.2" d="M104.166 227.705L107.511 229.475C109.858 226.681 109.273 222.769 108.734 220.721C108.341 220.515 107.948 220.319 107.558 220.134C108.001 223.223 107.644 226.616 103.97 226.722C98.1947 226.889 97.3342 219.511 97.2055 217.307C96.787 217.271 96.3729 217.245 95.9622 217.227C94.1309 225.392 99.2482 229.476 99.2482 229.476L104.166 227.705Z" fill="white"/>
<path d="M118.436 204.127C121.616 206.186 120.674 211.356 117.358 213.481C116.413 207.56 118.436 204.127 118.436 204.127Z" fill="#263238"/>
<path opacity="0.4" d="M118.436 204.127C121.616 206.186 120.674 211.356 117.358 213.481C116.413 207.56 118.436 204.127 118.436 204.127Z" fill="black"/>
<path d="M103.852 207.524C102.658 212.973 101.679 216.09 103.568 219.692C105.384 223.258 109.748 224.676 113.314 222.859C114.626 222.191 115.704 221.138 116.403 219.842C118.91 215.412 120.446 207.246 115.878 203.453C112.836 200.782 108.204 201.083 105.532 204.125C104.684 205.092 104.104 206.264 103.852 207.524Z" fill="#EBB376"/>
<path d="M103.278 212.612C106.189 214.104 108.064 208.997 107.66 206.534C111.447 209.125 119.954 208.75 122.444 205.29C125.163 201.509 121.078 198.307 117.385 197.154C116.36 196.834 115.388 197.548 115.132 198.591C115.088 198.773 114.997 198.924 114.866 199.018C114.866 199.018 113.82 198.064 112.332 197.234C111.057 196.523 109.557 196.929 108.479 197.913C108.05 198.304 107 198.388 104.893 197.676C100.526 196.201 99.7908 200.953 101.911 201.872C99.9891 203.044 96.8101 206.277 98.5232 209.114C100.236 211.951 101.708 215.696 100.747 216.316C101.635 216.7 103.206 215.747 103.278 212.612Z" fill="#263238"/>
<path d="M100.558 211.391C100.581 212.638 101.075 213.829 101.938 214.728C103.081 215.892 104.392 215.015 104.687 213.481C104.952 212.089 104.675 209.82 103.23 209.24C101.784 208.659 100.542 209.85 100.558 211.391Z" fill="#EBB376"/>
<path d="M111.442 211.611C111.314 212.044 111.448 212.467 111.737 212.534C112.026 212.601 112.343 212.347 112.471 211.915C112.599 211.483 112.469 211.053 112.17 210.988C111.872 210.924 111.564 211.176 111.442 211.611Z" fill="#263238"/>
<path d="M116.303 213.182C116.175 213.615 116.303 214.035 116.598 214.105C116.893 214.176 117.205 213.917 117.335 213.479C117.467 213.04 117.329 212.623 117.034 212.552C116.739 212.483 116.429 212.741 116.303 213.182Z" fill="#263238"/>
<path d="M114.694 212.898C114.83 214.397 115.162 215.872 115.683 217.284C114.722 217.757 113.512 217.03 113.512 217.03L114.694 212.898Z" fill="#D58745"/>
<path d="M110.39 209.534C110.348 209.526 110.308 209.507 110.275 209.48C110.187 209.366 110.206 209.202 110.32 209.112C110.322 209.11 110.326 209.108 110.328 209.105C111.001 208.575 111.894 208.414 112.709 208.677C112.844 208.728 112.912 208.878 112.86 209.013C112.859 209.016 112.858 209.018 112.857 209.021C112.805 209.156 112.655 209.224 112.52 209.172C112.517 209.172 112.515 209.171 112.512 209.169C111.878 208.971 111.186 209.092 110.657 209.496C110.584 209.562 110.479 209.577 110.39 209.534Z" fill="#263238"/>
<path d="M118.873 212.161C118.793 212.125 118.736 212.051 118.724 211.964C118.628 211.281 118.22 210.681 117.621 210.342C117.499 210.257 117.47 210.09 117.554 209.969C117.62 209.874 117.738 209.832 117.849 209.864C118.602 210.278 119.117 211.022 119.237 211.874C119.263 212.016 119.169 212.151 119.026 212.178C119.024 212.178 119.023 212.178 119.022 212.178C118.971 212.188 118.919 212.183 118.873 212.161Z" fill="#263238"/>
<path d="M111.058 218.474C111.299 218.544 111.547 218.594 111.798 218.623C111.878 218.637 111.955 218.582 111.968 218.502C111.968 218.501 111.969 218.499 111.969 218.497C111.975 218.413 111.914 218.341 111.831 218.332C110.549 218.195 109.408 217.457 108.756 216.345C108.719 216.27 108.629 216.238 108.555 216.275C108.48 216.312 108.448 216.401 108.485 216.476C109.037 217.462 109.966 218.182 111.058 218.474Z" fill="#263238"/>
<path d="M102.612 202.072C102.612 202.072 100.762 201.765 100.047 199.573C99.882 199.066 99.1703 199.024 98.9415 199.507C98.1959 201.079 97.8601 203.254 102.612 202.072Z" fill="#2E353A"/>
<path d="M139.372 208.73H136.877C134.718 208.73 132.813 210.48 132.621 212.638L130.456 237.011C130.265 239.169 131.858 240.919 134.017 240.919H136.512L139.372 208.73Z" fill="#407BFF"/>
<path opacity="0.3" d="M139.372 208.73H136.877C134.718 208.73 132.813 210.48 132.621 212.638L130.456 237.011C130.265 239.169 131.858 240.919 134.017 240.919H136.512L139.372 208.73Z" fill="white"/>
<path d="M176.422 240.919H135.723C133.565 240.919 131.97 239.169 132.162 237.011L134.328 212.638C134.519 210.48 136.424 208.73 138.583 208.73H179.281C181.44 208.73 183.035 210.48 182.842 212.638L180.677 237.011C180.485 239.169 178.58 240.919 176.422 240.919Z" fill="#407BFF"/>
<path opacity="0.2" d="M176.422 240.919H135.723C133.565 240.919 131.97 239.169 132.162 237.011L134.328 212.638C134.519 210.48 136.424 208.73 138.583 208.73H179.281C181.44 208.73 183.035 210.48 182.842 212.638L180.677 237.011C180.485 239.169 178.58 240.919 176.422 240.919Z" fill="black"/>
<path opacity="0.5" d="M158.221 222.464C158.221 222.255 158.257 222.056 158.307 221.864C158.049 221.794 157.782 221.744 157.502 221.744C155.8 221.744 154.421 223.123 154.421 224.825C154.421 226.526 155.8 227.905 157.502 227.905C159.202 227.905 160.581 226.527 160.581 224.825C159.278 224.824 158.221 223.767 158.221 222.464Z" fill="white"/>
<path d="M155.646 252.608H158.778L157.539 238.44C157.468 237.634 156.794 237.016 155.985 237.016C155.069 237.016 154.351 237.799 154.431 238.711L155.646 252.608Z" fill="#263238"/>
<path opacity="0.3" d="M155.646 252.608H158.778L157.539 238.44C157.468 237.634 156.794 237.016 155.985 237.016C155.069 237.016 154.351 237.799 154.431 238.711L155.646 252.608Z" fill="white"/>
<path d="M165.533 256.716C165.533 252.178 161.855 248.5 157.317 248.5C152.779 248.5 149.101 252.178 149.101 256.716H165.533Z" fill="#407BFF"/>
<path opacity="0.5" d="M165.533 256.716C165.533 252.178 161.855 248.5 157.317 248.5C152.779 248.5 149.101 252.178 149.101 256.716H165.533Z" fill="white"/>
<path d="M146.228 256.716H133.252C132.395 256.716 131.701 256.021 131.701 255.164C131.701 254.308 132.395 253.613 133.252 253.613H146.228C147.085 253.613 147.78 254.308 147.78 255.164C147.78 256.021 147.085 256.716 146.228 256.716Z" fill="#407BFF"/>
<path opacity="0.3" d="M146.228 256.716H133.252C132.395 256.716 131.701 256.021 131.701 255.164C131.701 254.308 132.395 253.613 133.252 253.613H146.228C147.085 253.613 147.78 254.308 147.78 255.164C147.78 256.021 147.085 256.716 146.228 256.716Z" fill="white"/>
<path d="M134.054 256.716H121.078C120.221 256.716 119.526 256.021 119.526 255.164C119.526 254.308 120.221 253.613 121.078 253.613H134.054C134.911 253.613 135.605 254.308 135.605 255.164C135.605 256.021 134.911 256.716 134.054 256.716Z" fill="#407BFF"/>
<path opacity="0.5" d="M134.054 256.716H121.078C120.221 256.716 119.526 256.021 119.526 255.164C119.526 254.308 120.221 253.613 121.078 253.613H134.054C134.911 253.613 135.605 254.308 135.605 255.164C135.605 256.021 134.911 256.716 134.054 256.716Z" fill="white"/>
<path d="M242.648 240.853C241.917 240.839 241.182 241.166 240.692 241.98C231.324 257.558 227.997 276.285 231.229 294.151C231.431 295.271 232.198 295.793 233.049 295.85C234.467 295.947 259.711 295.857 260.626 295.855C262.002 295.853 263.515 294.682 263.192 292.895C260.188 276.292 263.495 258.804 272.179 244.362C273.258 242.567 271.667 240.882 270.058 240.852C269.328 240.839 244.257 240.884 242.648 240.853Z" fill="#407BFF"/>
<path opacity="0.2" d="M242.648 240.853C241.917 240.839 241.182 241.166 240.692 241.98C231.324 257.558 227.997 276.285 231.229 294.151C231.431 295.271 232.198 295.793 233.049 295.85C234.467 295.947 259.711 295.857 260.626 295.855C262.002 295.853 263.515 294.682 263.192 292.895C260.188 276.292 263.495 258.804 272.179 244.362C273.258 242.567 271.667 240.882 270.058 240.852C269.328 240.839 244.257 240.884 242.648 240.853Z" fill="black"/>
<path d="M263.192 292.896C260.189 276.293 263.496 258.804 272.18 244.362C273.75 241.752 269.67 239.375 268.104 241.979C258.735 257.557 255.408 276.284 258.64 294.15C259.179 297.137 263.73 295.872 263.192 292.896Z" fill="#407BFF"/>
<g opacity="0.2">
<path d="M263.192 292.896C260.189 276.293 263.496 258.804 272.18 244.362C273.75 241.752 269.67 239.375 268.104 241.979C258.735 257.557 255.408 276.284 258.64 294.15C259.179 297.137 263.73 295.872 263.192 292.896Z" fill="white"/>
</g>
<path d="M247.716 358.473L225.787 350.397L203.62 358.479C202.854 358.758 202.044 358.191 202.044 357.376C202.044 356.92 202.309 356.505 202.723 356.312L225.787 345.611L248.619 356.311C249.03 356.505 249.293 356.918 249.293 357.373C249.294 358.187 248.481 358.754 247.716 358.473Z" fill="#263238"/>
<path opacity="0.3" d="M247.716 358.473L225.787 350.397L203.62 358.479C202.854 358.758 202.044 358.191 202.044 357.376C202.044 356.92 202.309 356.505 202.723 356.312L225.787 345.611L248.619 356.311C249.03 356.505 249.293 356.918 249.293 357.373C249.294 358.187 248.481 358.754 247.716 358.473Z" fill="white"/>
<path opacity="0.2" d="M220.619 352.28L225.787 350.396L230.718 352.212V347.92L225.787 345.609L220.619 348.007V352.28Z" fill="black"/>
<path d="M225.669 358.659C224.665 358.659 223.826 357.896 223.731 356.897L223.111 350.396V296.441H228.226V350.396L227.607 356.897C227.512 357.896 226.673 358.659 225.669 358.659Z" fill="#263238"/>
<path opacity="0.3" d="M225.669 358.659C224.665 358.659 223.826 357.896 223.731 356.897L223.111 350.396V296.441H228.226V350.396L227.607 356.897C227.512 357.896 226.673 358.659 225.669 358.659Z" fill="white"/>
<path opacity="0.2" d="M228.226 296.441H223.111V302.725H228.226V296.441Z" fill="black"/>
<path d="M185.259 291.53C191.046 290.054 196.991 289.242 202.954 289.093C209.099 288.939 232.1 289.069 237.562 289.068C244.211 289.065 250.86 289.884 257.311 291.53C261.366 292.564 260.116 298.416 256.453 298.484C256.13 298.49 186.599 298.469 186.343 298.48C182.512 298.654 181.115 292.587 185.259 291.53Z" fill="#407BFF"/>
<path opacity="0.3" d="M185.259 291.53C191.046 290.054 196.991 289.242 202.954 289.093C209.099 288.939 232.1 289.069 237.562 289.068C244.211 289.065 250.86 289.884 257.311 291.53C261.366 292.564 260.116 298.416 256.453 298.484C256.13 298.49 186.599 298.469 186.343 298.48C182.512 298.654 181.115 292.587 185.259 291.53Z" fill="black"/>
<path d="M255.428 298.359C243.748 295.38 231.376 295.38 219.696 298.359C215.277 299.486 213.393 292.657 217.814 291.53C230.715 288.24 244.409 288.24 257.311 291.53C261.724 292.655 259.854 299.487 255.428 298.359Z" fill="#407BFF"/>
<g opacity="0.3">
<path d="M255.428 298.359C243.748 295.38 231.376 295.38 219.696 298.359C215.277 299.486 213.393 292.657 217.814 291.53C230.715 288.24 244.409 288.24 257.311 291.53C261.724 292.655 259.854 299.487 255.428 298.359Z" fill="white"/>
</g>
<path d="M221.709 211.86C221.709 211.86 217.433 211.445 218.761 205.087C220.088 198.729 219.976 192.689 229.426 193.373C229.426 193.373 236.909 191.5 239.023 198.532C241.138 205.565 244.279 210.55 239.269 212.615C233.002 215.198 231.422 209.449 231.422 209.449L222.257 210.338L221.709 211.86Z" fill="#263238"/>
<path d="M220.307 221.174C214.846 220.393 217.529 239.286 212.635 242.685C209.949 244.549 196.427 239.543 196.427 239.543L194.521 233.444C194.422 233.128 194.189 232.873 193.885 232.753L191.07 231.633C190.264 231.312 189.434 232.045 189.629 232.908L190.644 237.407C190.687 237.602 190.782 237.78 190.918 237.924L194.842 242.09C194.842 242.09 210.966 249.911 214.899 248.613C219.456 247.109 221.146 238.808 222.275 233.862C223.117 230.177 224.439 221.764 220.307 221.174Z" fill="#B97964"/>
<path d="M214.015 334.139L215.652 346.849L211.03 346.97L207.691 334.709L214.015 334.139Z" fill="#B97964"/>
<path d="M210.971 346.264L216.248 346.279C216.477 346.28 216.675 346.438 216.724 346.662L217.807 351.598C217.906 352.036 217.632 352.47 217.196 352.569C217.14 352.582 217.083 352.589 217.024 352.589C214.839 352.546 212.895 352.421 210.173 352.417C206.961 352.409 207.775 352.796 203.999 352.84C201.724 352.864 201.315 350.277 202.279 350.152C206.696 349.609 207.945 348.277 209.652 346.701C210.023 346.398 210.492 346.243 210.971 346.264Z" fill="#263238"/>
<path opacity="0.1" d="M209.627 341.821L207.691 334.709L214.015 334.139L214.961 341.487L209.627 341.821Z" fill="black"/>
<path d="M229.939 257.836H222.471C222.471 257.836 220.504 262.925 220.111 268.236C219.717 273.547 229.939 269.613 229.939 269.613L230.832 262.335L229.939 257.836Z" fill="#263238"/>
<path d="M182.34 316.532L177.422 330.893L173.29 329.713L176.635 314.564L182.34 316.532Z" fill="#B97964"/>
<path d="M173.363 328.611L178.443 330.144C178.664 330.201 178.817 330.405 178.808 330.633L178.622 335.684C178.609 336.132 178.235 336.484 177.787 336.471C177.729 336.469 177.672 336.462 177.616 336.448C175.511 335.859 173.66 335.251 171.026 334.567C167.918 333.756 168.61 334.334 164.943 333.431C162.734 332.885 162.984 330.279 163.95 330.399C168.362 330.977 169.93 329.803 171.977 328.705C172.413 328.504 172.906 328.471 173.363 328.611Z" fill="#263238"/>
<path opacity="0.1" d="M179.659 324.362L174.75 323.104L176.635 314.564L182.34 316.532L179.659 324.362Z" fill="black"/>
<path d="M244.833 257.154C244.833 257.154 252.439 269.875 251.128 280.499C249.817 291.123 239.99 296.741 202.219 278.642C202.219 278.642 194.471 286.663 181.619 321.024L175.062 319.057C175.062 319.057 182.471 279.338 189.095 268.04C195.783 256.63 225.161 270.007 227.39 267.778C229.375 265.793 227.652 257.942 227.652 257.942L244.833 257.154Z" fill="#407BFF"/>
<path d="M183.226 320.368L181.849 323.024L173.979 320.368V317.318L183.226 320.368Z" fill="#407BFF"/>
<path d="M247.898 223.155L221.14 221.154C219.521 221.033 218.18 222.395 218.326 224.012C218.326 224.012 218.875 227.378 218.781 228.502C218.546 231.339 217.02 235.586 217.528 237.52C217.936 239.071 219.565 240.832 220.209 242.577C221.605 246.359 221.837 258.621 221.837 258.621C230.492 260.025 245.882 257.939 245.882 257.939C242.429 245.49 247.591 230.937 249.172 224.938C249.401 224.076 248.788 223.222 247.898 223.155Z" fill="#407BFF"/>
<path opacity="0.7" d="M247.898 223.155L221.14 221.154C219.521 221.033 218.18 222.395 218.326 224.012C218.326 224.012 218.875 227.378 218.781 228.502C218.546 231.339 217.02 235.586 217.528 237.52C217.936 239.071 219.565 240.832 220.209 242.577C221.605 246.359 221.837 258.621 221.837 258.621C230.492 260.025 245.882 257.939 245.882 257.939C242.429 245.49 247.591 230.937 249.172 224.938C249.401 224.076 248.788 223.222 247.898 223.155Z" fill="white"/>
<path opacity="0.1" d="M243.912 237.854L234.666 247.322L221.485 249.978L221.396 250C221.518 251.458 221.607 252.916 221.673 254.21C225.325 254.203 237.235 253.949 240.666 250.962C242.37 249.478 243.784 247.255 244.853 245.169C245.015 242.995 245.308 240.865 245.676 238.83L243.912 237.854Z" fill="black"/>
<path opacity="0.2" d="M197.908 282.207L195.843 280.609C195.843 280.609 188.562 284.55 192.186 295.772V295.773C194.818 290.279 196.98 286.408 198.615 283.754L197.908 282.207Z" fill="black"/>
<path d="M229.457 289.09C222.593 287.446 213.705 284.146 202.219 278.643C202.219 278.643 193.357 278.761 192.766 285.351C192.177 291.941 207.717 337.517 207.717 337.517L214.897 336.893C214.897 336.893 210.667 291.449 209.684 289.089H229.457V289.09Z" fill="#407BFF"/>
<path opacity="0.2" d="M202.219 278.643C202.219 278.643 200.865 278.663 199.182 279.078C200.804 280.517 206.53 285.277 215.199 289.09H229.457C222.592 287.446 213.705 284.146 202.219 278.643Z" fill="black"/>
<path d="M215.76 335.715L215.953 338.664L207.595 339.32L206.405 336.513L215.76 335.715Z" fill="#407BFF"/>
<path d="M235.267 210.695L229.428 216.433C230.408 221.148 226.946 221.59 226.946 221.59C226.946 221.59 227.226 223.249 231.46 223.022C235.693 222.796 237.077 222.347 237.077 222.347C234.531 220.311 234.894 214.11 235.267 210.695Z" fill="#B97964"/>
<path opacity="0.1" d="M229.479 219.087C229.635 218.401 229.656 217.538 229.426 216.432L234.635 211.312L235.147 211.905C235.147 211.905 234.099 218.426 229.479 219.087Z" fill="black"/>
<path d="M235.753 203.099C236.18 208.724 236.484 211.095 234.064 214.344C230.423 219.235 223.424 218.532 221.322 213.15C219.43 208.305 219.047 199.927 224.196 196.953C227.864 194.809 232.575 196.044 234.719 199.712C235.322 200.746 235.676 201.906 235.753 203.099Z" fill="#B97964"/>
<path d="M224.277 208.785C224.017 209.877 223.608 210.929 223.061 211.909C223.573 212.182 224.18 212.213 224.719 211.995L224.277 208.785Z" fill="#A24E3F"/>
<path d="M228.532 204.948C228.568 204.934 228.601 204.912 228.628 204.882C228.707 204.787 228.695 204.646 228.601 204.567L228.597 204.565C227.958 204.002 227.085 203.785 226.257 203.985C226.141 204.024 226.077 204.148 226.111 204.265C226.146 204.381 226.268 204.447 226.385 204.414C227.071 204.261 227.789 204.445 228.315 204.912C228.376 204.96 228.459 204.974 228.532 204.948Z" fill="#2E353A"/>
<path d="M220.221 205.723C220.258 205.708 220.291 205.686 220.317 205.657C220.768 205.122 221.449 204.837 222.147 204.888C222.269 204.908 222.384 204.826 222.404 204.704L222.405 204.701C222.42 204.578 222.334 204.465 222.212 204.446C221.363 204.372 220.532 204.712 219.978 205.359C219.893 205.448 219.896 205.59 219.984 205.675C220.047 205.737 220.14 205.755 220.221 205.723Z" fill="#2E353A"/>
<path d="M227.379 207.594C227.442 208.044 227.252 208.445 226.951 208.489C226.651 208.533 226.366 208.198 226.306 207.739C226.247 207.28 226.433 206.887 226.727 206.845C227.021 206.804 227.313 207.137 227.379 207.594Z" fill="#2E353A"/>
<path d="M222.246 208.302C222.309 208.752 222.119 209.154 221.825 209.195C221.53 209.237 221.238 208.905 221.173 208.448C221.108 207.991 221.3 207.596 221.594 207.554C221.888 207.512 222.186 207.842 222.246 208.302Z" fill="#2E353A"/>
<path d="M221.727 207.562L220.595 207.4C220.595 207.4 221.274 208.171 221.727 207.562Z" fill="#2E353A"/>
<path d="M226.861 206.851L225.729 206.689C225.729 206.689 226.407 207.46 226.861 206.851Z" fill="#2E353A"/>
<path d="M227.736 212.196C227.827 212.035 227.905 211.868 227.968 211.695C227.992 211.641 227.965 211.577 227.911 211.554L227.907 211.552C227.849 211.534 227.787 211.565 227.766 211.621C227.451 212.509 226.733 213.194 225.832 213.468C225.773 213.481 225.736 213.54 225.749 213.599C225.762 213.658 225.82 213.695 225.879 213.682C226.674 213.458 227.343 212.922 227.736 212.196Z" fill="#263238"/>
<path d="M231.423 194.906C227.811 194.007 224.074 195.9 224.074 195.9C224.074 195.9 219.891 199.614 220.851 203.204C220.851 203.204 221.326 202.799 222.325 202.497C222.269 201.522 222.347 199.817 223.385 198.679C223.385 198.679 222.981 200.636 223.517 202.251C224.766 202.09 226.468 202.159 228.68 202.861C228.68 202.861 229.402 201.372 228.68 198.139C228.68 198.139 230.072 200.303 230.122 203.647C230.171 206.991 234.45 207.795 234.45 207.795C234.45 207.795 237.137 207.507 237.106 203.912C237.077 200.316 235.035 195.805 231.423 194.906Z" fill="#263238"/>
<path d="M229.827 194.697C229.827 194.697 228.118 190.467 224.718 191.501C221.318 192.533 227.269 192.533 229.827 194.697Z" fill="#263238"/>
<path d="M237.682 207.328C237.516 208.406 236.928 209.374 236.047 210.018C234.874 210.862 233.792 209.934 233.703 208.567C233.622 207.34 234.135 205.417 235.514 205.113C236.525 204.922 237.498 205.587 237.69 206.598C237.736 206.839 237.733 207.087 237.682 207.328Z" fill="#B97964"/>
<path d="M248.234 223.034C245.576 222.125 241.93 232.314 240.401 235.484C239.77 236.793 238.76 239.736 237.997 242.061C237.329 244.098 235.723 245.658 233.71 246.229L219.449 250.271L213.654 248.529C213.219 248.398 212.752 248.472 212.376 248.728L209.464 250.714C209.035 251.007 208.776 251.501 208.776 252.031C208.776 252.951 209.538 253.677 210.428 253.606L219.041 252.927C219.041 252.927 232.926 253.737 239.024 250.332C245.121 246.929 252.859 224.614 248.234 223.034Z" fill="#B97964"/>
<path d="M237.135 253.639H187.717C186.971 253.639 186.367 254.243 186.367 254.989C186.367 255.735 186.972 256.339 187.717 256.339H237.135C237.881 256.339 238.485 255.735 238.485 254.989C238.485 254.243 237.881 253.639 237.135 253.639Z" fill="#263238"/>
<path opacity="0.3" d="M237.135 253.639H187.717C186.971 253.639 186.367 254.243 186.367 254.989C186.367 255.735 186.972 256.339 187.717 256.339H237.135C237.881 256.339 238.485 255.735 238.485 254.989C238.485 254.243 237.881 253.639 237.135 253.639Z" fill="white"/>
<path d="M188.451 255.513H205.343C205.783 255.513 206.092 255.078 205.945 254.663L196.682 228.2C196.427 227.471 195.739 226.982 194.966 226.982H178.074C177.634 226.982 177.325 227.417 177.471 227.832L186.734 254.296C186.99 255.025 187.678 255.513 188.451 255.513Z" fill="#263238"/>
<path opacity="0.5" d="M188.451 255.513H205.343C205.783 255.513 206.092 255.078 205.945 254.663L196.682 228.2C196.427 227.471 195.739 226.982 194.966 226.982H178.074C177.634 226.982 177.325 227.417 177.471 227.832L186.734 254.296C186.99 255.025 187.678 255.513 188.451 255.513Z" fill="white"/>
<path d="M187.635 255.513H204.527C204.967 255.513 205.276 255.078 205.131 254.663L195.867 228.2C195.612 227.471 194.924 226.982 194.152 226.982H177.26C176.819 226.982 176.511 227.417 176.657 227.832L185.921 254.296C186.175 255.025 186.863 255.513 187.635 255.513Z" fill="#263238"/>
<path d="M189.523 241.248C189.739 242.262 190.44 243.084 191.09 243.084C191.74 243.084 192.091 242.261 191.876 241.248C191.66 240.234 190.959 239.412 190.309 239.412C189.66 239.412 189.308 240.234 189.523 241.248Z" fill="white"/>
<path opacity="0.2" d="M207.513 256.339C206.768 256.339 206.163 255.735 206.163 254.989C206.163 254.243 206.768 253.639 207.513 253.639H237.135C237.881 253.639 238.485 254.243 238.485 254.989C238.485 255.735 237.881 256.339 237.135 256.339H207.513Z" fill="white"/>
<path d="M354.664 358.473C355.683 358.473 356.495 357.619 356.444 356.6L351.604 262.191H346.489L352.887 356.812C352.949 357.747 353.727 358.473 354.664 358.473Z" fill="#263238"/>
<path opacity="0.5" d="M354.664 358.473C355.683 358.473 356.495 357.619 356.444 356.6L351.604 262.191H346.489L352.887 356.812C352.949 357.747 353.727 358.473 354.664 358.473Z" fill="white"/>
<path opacity="0.2" d="M351.603 262.191H346.488L346.914 268.487H351.926L351.603 262.191Z" fill="black"/>
<path d="M283.162 358.473C282.143 358.473 281.331 357.619 281.382 356.6L286.222 262.191H291.337L284.94 356.812C284.877 357.747 284.1 358.473 283.162 358.473Z" fill="#263238"/>
<path opacity="0.5" d="M283.162 358.473C282.143 358.473 281.331 357.619 281.382 356.6L286.222 262.191H291.337L284.94 356.812C284.877 357.747 284.1 358.473 283.162 358.473Z" fill="white"/>
<path opacity="0.2" d="M285.9 268.487H290.912L291.338 262.191H286.223L285.9 268.487Z" fill="black"/>
<path d="M169.316 358.473C170.336 358.473 171.147 357.619 171.095 356.6L166.255 262.191H161.141L167.538 356.812C167.601 357.747 168.378 358.473 169.316 358.473Z" fill="#263238"/>
<path opacity="0.5" d="M169.316 358.473C170.336 358.473 171.147 357.619 171.095 356.6L166.255 262.191H161.141L167.538 356.812C167.601 357.747 168.378 358.473 169.316 358.473Z" fill="white"/>
<path opacity="0.2" d="M166.255 262.191H161.141L161.566 268.487H166.578L166.255 262.191Z" fill="black"/>
<path d="M97.8157 358.473C96.7961 358.473 95.9844 357.619 96.0366 356.6L100.876 262.191H105.991L99.594 356.812C99.5305 357.747 98.7536 358.473 97.8157 358.473Z" fill="#263238"/>
<path opacity="0.5" d="M97.8157 358.473C96.7961 358.473 95.9844 357.619 96.0366 356.6L100.876 262.191H105.991L99.594 356.812C99.5305 357.747 98.7536 358.473 97.8157 358.473Z" fill="white"/>
<path opacity="0.2" d="M100.554 268.487H105.566L105.991 262.191H100.876L100.554 268.487Z" fill="black"/>
<path d="M355.714 259.201H95.9395V262.192H355.714V259.201Z" fill="#263238"/>
<path opacity="0.3" d="M355.714 259.201H95.9395V262.192H355.714V259.201Z" fill="white"/>
<path opacity="0.2" d="M355.716 259.201H281.288V262.192H355.716V259.201Z" fill="black"/>
<path d="M362.404 256.209H89.251V259.2H362.404V256.209Z" fill="#407BFF"/>
<path opacity="0.3" d="M362.403 256.209H274.599V259.2H362.403V256.209Z" fill="black"/>
<path d="M302 256.337H289.024C288.167 256.337 287.473 255.643 287.473 254.786C287.473 253.929 288.167 253.234 289.024 253.234H302C302.857 253.234 303.551 253.929 303.551 254.786C303.551 255.643 302.857 256.337 302 256.337Z" fill="#407BFF"/>
<path opacity="0.3" d="M302 256.337H289.024C288.167 256.337 287.473 255.643 287.473 254.786C287.473 253.929 288.167 253.234 289.024 253.234H302C302.857 253.234 303.551 253.929 303.551 254.786C303.551 255.643 302.857 256.337 302 256.337Z" fill="white"/>
<path d="M289.826 256.337H276.85C275.993 256.337 275.299 255.643 275.299 254.786C275.299 253.929 275.993 253.234 276.85 253.234H289.826C290.683 253.234 291.377 253.929 291.377 254.786C291.377 255.643 290.683 256.337 289.826 256.337Z" fill="#407BFF"/>
<path opacity="0.5" d="M289.826 256.337H276.85C275.993 256.337 275.299 255.643 275.299 254.786C275.299 253.929 275.993 253.234 276.85 253.234H289.826C290.683 253.234 291.377 253.929 291.377 254.786C291.377 255.643 290.683 256.337 289.826 256.337Z" fill="white"/>
<path d="M246.314 209.223H243.819C241.66 209.223 240.064 210.972 240.252 213.131L242.385 237.503C242.574 239.661 244.476 241.411 246.635 241.411H249.13L246.314 209.223Z" fill="#407BFF"/>
<path d="M246.314 209.223H243.819C241.66 209.223 240.064 210.972 240.252 213.131L242.385 237.503C242.574 239.661 244.476 241.411 246.635 241.411H249.13L246.314 209.223Z" fill="#407BFF"/>
<path d="M267.431 252.229H264.299L265.663 236.637H268.795L267.431 252.229Z" fill="#263238"/>
<path opacity="0.3" d="M267.431 252.229H264.299L265.663 236.637H268.795L267.431 252.229Z" fill="white"/>
<path d="M289.038 241.411H248.34C246.181 241.411 244.279 239.661 244.09 237.503L241.958 213.131C241.769 210.972 243.365 209.223 245.524 209.223H286.222C288.381 209.223 290.283 210.972 290.472 213.131L292.605 237.503C292.793 239.66 291.197 241.411 289.038 241.411Z" fill="#407BFF"/>
<path opacity="0.5" d="M289.038 241.411H248.34C246.181 241.411 244.279 239.661 244.09 237.503L241.958 213.131C241.769 210.972 243.365 209.223 245.524 209.223H286.222C288.381 209.223 290.283 210.972 290.472 213.131L292.605 237.503C292.793 239.66 291.197 241.411 289.038 241.411Z" fill="white"/>
<path opacity="0.5" d="M286.36 210.797H245.661C244.373 210.797 243.418 211.844 243.53 213.131L245.663 237.503C245.775 238.79 246.915 239.837 248.201 239.837H288.9C290.188 239.837 291.143 238.791 291.031 237.503L288.898 213.131C288.786 211.844 287.647 210.797 286.36 210.797Z" fill="white"/>
<path d="M258.331 256.337C258.331 251.799 262.009 248.121 266.547 248.121C271.085 248.121 274.764 251.799 274.764 256.337H258.331Z" fill="#407BFF"/>
<path opacity="0.5" d="M258.331 256.337C258.331 251.799 262.009 248.121 266.547 248.121C271.085 248.121 274.764 251.799 274.764 256.337H258.331Z" fill="white"/>
<path d="M277.186 216.787C276.843 216.787 255.144 216.787 254.801 216.787C254.321 216.787 253.966 217.176 254.008 217.656C254.05 218.136 254.474 218.525 254.953 218.525C255.296 218.525 276.995 218.525 277.338 218.525C277.818 218.525 278.173 218.136 278.132 217.656C278.089 217.176 277.666 216.787 277.186 216.787Z" fill="white"/>
<path d="M274.408 220.43C274.064 220.43 255.463 220.43 255.119 220.43C254.639 220.43 254.284 220.819 254.327 221.299C254.368 221.779 254.792 222.168 255.272 222.168C255.615 222.168 274.217 222.168 274.56 222.168C275.041 222.168 275.396 221.779 275.353 221.299C275.311 220.819 274.888 220.43 274.408 220.43Z" fill="white"/>
<path d="M276.64 224.074C276.297 224.074 255.781 224.074 255.439 224.074C254.958 224.074 254.603 224.463 254.646 224.943C254.689 225.424 255.111 225.812 255.591 225.812C255.934 225.812 276.449 225.812 276.792 225.812C277.272 225.812 277.627 225.424 277.585 224.943C277.543 224.463 277.12 224.074 276.64 224.074Z" fill="white"/>
<path d="M273.862 227.717C273.518 227.717 256.101 227.717 255.757 227.717C255.277 227.717 254.922 228.106 254.964 228.586C255.006 229.066 255.43 229.455 255.909 229.455C256.252 229.455 273.67 229.455 274.014 229.455C274.494 229.455 274.849 229.066 274.806 228.586C274.764 228.106 274.342 227.717 273.862 227.717Z" fill="white"/>
<g opacity="0.6">
<path d="M277.186 216.787C276.843 216.787 255.144 216.787 254.801 216.787C254.321 216.787 253.966 217.176 254.008 217.656C254.05 218.136 254.474 218.525 254.953 218.525C255.296 218.525 276.995 218.525 277.338 218.525C277.818 218.525 278.173 218.136 278.132 217.656C278.089 217.176 277.666 216.787 277.186 216.787Z" fill="white"/>
<path d="M274.408 220.43C274.064 220.43 255.463 220.43 255.119 220.43C254.639 220.43 254.284 220.819 254.327 221.299C254.368 221.779 254.792 222.168 255.272 222.168C255.615 222.168 274.217 222.168 274.56 222.168C275.041 222.168 275.396 221.779 275.353 221.299C275.311 220.819 274.888 220.43 274.408 220.43Z" fill="white"/>
<path d="M276.64 224.074C276.297 224.074 255.781 224.074 255.439 224.074C254.958 224.074 254.603 224.463 254.646 224.943C254.689 225.424 255.111 225.812 255.591 225.812C255.934 225.812 276.449 225.812 276.792 225.812C277.272 225.812 277.627 225.424 277.585 224.943C277.543 224.463 277.12 224.074 276.64 224.074Z" fill="white"/>
<path d="M273.862 227.717C273.518 227.717 256.101 227.717 255.757 227.717C255.277 227.717 254.922 228.106 254.964 228.586C255.006 229.066 255.43 229.455 255.909 229.455C256.252 229.455 273.67 229.455 274.014 229.455C274.494 229.455 274.849 229.066 274.806 228.586C274.764 228.106 274.342 227.717 273.862 227.717Z" fill="white"/>
</g>
<path d="M322.629 196.369C322.629 196.369 317.482 197.353 317.571 194.205C317.661 191.057 322.972 192.533 322.972 192.533L322.629 196.369Z" fill="#1A2E35"/>
<path opacity="0.4" d="M322.629 196.369C322.629 196.369 317.482 197.353 317.571 194.205C317.661 191.057 322.972 192.533 322.972 192.533L322.629 196.369Z" fill="black"/>
<path d="M319.409 203.887L317.053 207.589C317.053 207.589 318.28 208.494 319.999 207.878L319.409 203.887Z" fill="#A24E3F"/>
<path d="M317.989 203.37C317.984 203.848 318.228 204.24 318.54 204.244C318.853 204.248 319.132 203.844 319.124 203.38C319.116 202.915 318.886 202.511 318.572 202.512C318.259 202.512 318 202.894 317.989 203.37Z" fill="#1A2E35"/>
<path d="M336.422 200.388C336.633 206.737 336.859 209.426 333.977 212.968C329.418 216.728 321.787 217.171 319.685 211.006C317.79 205.46 317.765 196.031 323.71 192.898C327.947 190.665 333.193 192.292 335.425 196.53C336.052 197.722 336.393 199.042 336.422 200.388Z" fill="#B97964"/>
<path opacity="0.2" d="M327.504 215.67L327.458 215.358C327.356 214.671 326.677 214.227 326.006 214.411L323.425 215.118C324.665 215.639 326.069 215.806 327.504 215.67Z" fill="black"/>
<path d="M319.708 201.207C319.624 201.215 319.542 201.183 319.486 201.121C319.092 200.626 318.485 200.351 317.852 200.381C317.716 200.398 317.592 200.303 317.574 200.167C317.559 200.031 317.656 199.906 317.792 199.887C318.592 199.83 319.368 200.17 319.869 200.795C319.958 200.901 319.946 201.059 319.841 201.148L319.84 201.149C319.801 201.18 319.756 201.2 319.708 201.207Z" fill="#1A2E35"/>
<path d="M327.268 214.067L328.66 223.498L336.535 221.867L334.013 212.215L327.268 214.067Z" fill="#B97964"/>
<path d="M324.104 204.926L322.727 205.99C322.727 205.99 321.721 202.221 323.232 198.729L321.645 196.319L321.891 194.697C321.891 194.697 319.432 190.713 321.35 189.532C323.268 188.352 324.497 190.811 324.497 190.811C324.497 190.811 325.825 186.877 328.136 187.418C330.448 187.959 329.267 190.418 329.267 190.418C329.267 190.418 333.005 187.713 334.775 189.041C336.546 190.368 334.333 192.237 334.333 192.237C334.333 192.237 338.808 192.336 338.956 194.106C339.104 195.876 337.136 196.024 337.136 196.024C337.136 196.024 340.087 197.057 340.037 198.631C339.988 200.205 337.676 200.303 337.676 200.303C337.676 200.303 340.678 202.208 340.037 203.887C339.397 205.566 337.725 205.024 337.725 205.024C337.725 205.024 339.282 207.014 338.757 208.093C338.233 209.172 336.921 209.04 336.921 209.04L334.367 213.582C334.367 213.582 332.213 212.748 330.371 214.37L325.774 206.811L324.104 204.926Z" fill="#1A2E35"/>
<path d="M323.309 203.215C323.081 204.493 323.372 205.808 324.117 206.872C325.115 208.274 326.706 207.649 327.341 206.151C327.917 204.794 328.079 202.442 326.634 201.564C325.188 200.688 323.605 201.656 323.309 203.215Z" fill="#B97964"/>
<path d="M338.124 220.844L336.568 216.437C336.568 216.437 330.533 213.774 324.527 218.197L328.943 220.845H338.124V220.844Z" fill="#263238"/>
<path opacity="0.2" d="M337.406 218.811C332.875 217.707 328.939 218.671 326.703 219.501L328.943 220.845H338.124L337.406 218.811Z" fill="black"/>
<path d="M310.589 249.857L304.782 246.944C304.447 246.776 304.057 246.759 303.71 246.898L298.953 248.798C298.482 248.986 298.162 249.43 298.133 249.937L298.044 251.481C297.991 252.408 298.895 253.094 299.774 252.793L301.539 252.188C301.539 252.188 305.277 254.025 310.326 252.451L310.589 249.857Z" fill="#B97964"/>
<path d="M288.516 250.193L282.708 247.246C282.374 247.076 281.984 247.06 281.636 247.2L276.88 249.121C276.409 249.311 276.088 249.76 276.06 250.273L275.971 251.835C275.918 252.773 276.822 253.466 277.701 253.163L279.466 252.551C279.466 252.551 283.203 254.408 288.253 252.816L288.516 250.193Z" fill="#B97964"/>
<path d="M341.308 222.498C338.461 224.923 331.349 232.015 322.11 248.64H310.302C310.302 248.64 308.63 250.002 309.318 253.422C309.318 253.422 321.433 257.728 324.72 256.253C328.007 254.777 338.629 238.494 343.406 232.688C345.062 230.675 347.903 227.988 343.797 222.759C343.189 221.984 342.059 221.858 341.308 222.498Z" fill="#263238"/>
<path opacity="0.2" d="M328.123 245.827L325.286 243.152C324.26 244.856 323.201 246.679 322.111 248.64H319.245L321.038 256.446C322.589 256.628 323.919 256.614 324.722 256.254C325.585 255.867 326.956 254.453 328.592 252.481L328.123 245.827Z" fill="black"/>
<path d="M325.978 336.099L328.675 349.164L333.995 348.377L332.716 335.656L325.978 336.099Z" fill="#B97964"/>
<path opacity="0.2" d="M333.558 344.037L332.716 335.656L325.978 336.099L327.664 344.266L333.558 344.037Z" fill="black"/>
<path d="M357.542 275.852C357.542 275.852 360.243 290.016 350.997 290.016C341.75 290.016 329.453 293.039 329.453 293.039C329.453 293.039 332.994 296.402 333.781 339.265L326.109 339.591C326.109 339.591 313.365 291.213 315.879 285.897C319.42 278.41 337.755 275.852 337.755 275.852H357.542V275.852Z" fill="#407BFF"/>
<path d="M325.271 338.083L334.128 337.82L334.582 342.149L325.83 342.524L325.271 338.083Z" fill="#407BFF"/>
<path opacity="0.5" d="M325.271 338.083L334.128 337.82L334.582 342.149L325.83 342.524L325.271 338.083Z" fill="white"/>
<path d="M326.281 349.987C325.592 350.069 324.864 350.029 324.601 349.761C324.461 349.601 324.438 349.373 324.542 349.188C324.616 349.025 324.752 348.897 324.919 348.831C325.813 348.466 327.879 349.338 327.97 349.377C328.021 349.399 328.054 349.45 328.05 349.506C328.046 349.561 328.009 349.608 327.957 349.626C327.41 349.795 326.849 349.916 326.281 349.987ZM325.271 349.015C325.185 349.024 325.103 349.045 325.023 349.078C324.916 349.109 324.829 349.188 324.788 349.292C324.71 349.467 324.754 349.541 324.796 349.581C325.097 349.911 326.495 349.752 327.511 349.501C326.801 349.199 326.04 349.034 325.271 349.015Z" fill="#407BFF"/>
<path d="M327.936 349.626C327.919 349.633 327.899 349.633 327.881 349.627C327.183 349.413 325.707 348.372 325.751 347.734C325.747 347.582 325.837 347.386 326.195 347.306C326.455 347.246 326.729 347.296 326.952 347.443C327.728 347.938 328.055 349.415 328.07 349.483C328.079 349.53 328.063 349.579 328.026 349.609C327.999 349.626 327.967 349.632 327.936 349.626ZM326.312 347.545L326.236 347.547C326.003 347.596 325.999 347.692 325.993 347.727C326.004 348.107 326.99 348.942 327.725 349.265C327.584 348.645 327.256 348.083 326.785 347.655C326.646 347.563 326.478 347.523 326.312 347.545Z" fill="#407BFF"/>
<path d="M328.43 348.782L334.477 348.056C334.705 348.029 334.922 348.163 334.998 348.379L336.682 353.168C336.835 353.592 336.615 354.059 336.191 354.212C336.136 354.232 336.08 354.245 336.023 354.252C333.838 354.476 331.885 354.589 329.172 354.919C325.968 355.304 326.827 355.59 323.068 356.096C320.802 356.399 320.078 353.869 321.024 353.627C325.361 352.544 325.659 351.16 327.168 349.38C327.501 349.032 327.95 348.82 328.43 348.782Z" fill="#263238"/>
<path opacity="0.1" d="M331.927 287.631H318.452L315.562 288.828C315.634 291.657 316.271 296.018 317.199 301.025L330.782 297.111C330.037 293.592 329.455 293.038 329.455 293.038C329.455 293.038 330.688 292.734 332.665 292.321L331.927 287.631Z" fill="black"/>
<path opacity="0.1" d="M341.074 288.615C341.074 288.615 340.82 289.67 340.79 290.874C343.849 290.43 347.148 290.079 350.18 290.024C353.69 285.807 350.616 282.123 350.616 282.123L345.206 284.582L341.074 288.615Z" fill="black"/>
<path d="M310.414 339.599L315.43 351.779L320.316 350.804L316.956 337.771L310.414 339.599Z" fill="#B97964"/>
<path opacity="0.2" d="M319.198 346.465L316.956 337.771L310.414 339.599L313.676 347.518L319.198 346.465Z" fill="black"/>
<path d="M350.918 276.639C350.918 276.639 353.619 290.803 344.373 290.803C335.126 290.803 307.388 299.334 307.388 299.334C307.388 299.334 311.47 300.836 318.552 340.378L310.536 342.198C310.536 342.198 290.513 299.083 293.027 293.767C296.568 286.28 331.13 276.64 331.13 276.64H350.918V276.639Z" fill="#407BFF"/>
<path d="M309.552 341.689L319.06 339.656L320.044 343.59L310.929 345.689L309.552 341.689Z" fill="#407BFF"/>
<path opacity="0.5" d="M309.552 341.689L319.06 339.656L320.044 343.59L310.929 345.689L309.552 341.689Z" fill="white"/>
<path d="M312.41 352.336C311.721 352.419 310.995 352.378 310.73 352.11C310.591 351.951 310.568 351.722 310.672 351.538C310.747 351.374 310.882 351.246 311.049 351.181C311.943 350.816 314.009 351.687 314.1 351.727C314.151 351.748 314.184 351.8 314.18 351.855C314.176 351.91 314.139 351.958 314.087 351.975C313.54 352.144 312.979 352.265 312.41 352.336ZM311.4 351.364C311.314 351.372 311.232 351.393 311.152 351.426C311.045 351.459 310.958 351.537 310.917 351.64C310.838 351.815 310.883 351.89 310.925 351.93C311.226 352.26 312.624 352.101 313.64 351.849C312.931 351.548 312.17 351.383 311.4 351.364Z" fill="#407BFF"/>
<path d="M314.066 351.977C314.049 351.984 314.029 351.985 314.011 351.979C313.313 351.764 311.837 350.723 311.881 350.085C311.876 349.934 311.967 349.737 312.325 349.657C312.585 349.598 312.859 349.647 313.082 349.794C313.857 350.289 314.185 351.766 314.2 351.834C314.209 351.881 314.192 351.929 314.156 351.96C314.129 351.977 314.097 351.982 314.066 351.977ZM312.442 349.896L312.366 349.898C312.132 349.947 312.129 350.044 312.123 350.078C312.134 350.459 313.12 351.293 313.855 351.617C313.714 350.996 313.386 350.434 312.915 350.006C312.776 349.913 312.607 349.874 312.442 349.896Z" fill="#407BFF"/>
<path d="M314.56 351.132L320.608 350.406C320.836 350.378 321.053 350.513 321.129 350.73L322.813 355.519C322.966 355.943 322.746 356.41 322.323 356.562C322.268 356.581 322.212 356.595 322.155 356.603C319.97 356.827 318.017 356.94 315.304 357.269C312.1 357.655 312.959 357.94 309.2 358.447C306.934 358.749 306.21 356.219 307.156 355.977C311.493 354.894 311.791 353.51 313.3 351.73C313.631 351.382 314.08 351.17 314.56 351.132Z" fill="#263238"/>
<path d="M318.13 221.985C318.119 220.826 319.058 219.886 320.216 219.909L338.043 220.256C342.388 220.344 346.341 222.743 348.463 226.536C352.591 233.916 357.989 249.011 357.902 277.424H328.296C328.296 277.424 318.308 240.542 318.13 221.985Z" fill="#707071"/>
<path opacity="0.4" d="M318.564 229.159C318.99 233.428 319.694 238.137 320.537 242.893C325.013 233.51 322.612 225.828 322.612 225.828L318.564 229.159Z" fill="black"/>
<path d="M318.194 220.7C316.11 223.129 312.89 227.981 303.11 245.777L288.155 248.961C288.155 248.961 286.483 250.339 287.171 253.798C287.171 253.798 303.22 256.562 306.508 255.069C309.795 253.576 318.192 240.948 322.046 234.419C323.637 231.724 324.487 226.41 319.699 220.719C319.306 220.252 318.591 220.238 318.194 220.7Z" fill="#707071"/>
<path d="M370.262 358.267L348.333 350.192L326.165 358.274C325.4 358.553 324.59 357.986 324.59 357.171C324.59 356.715 324.855 356.3 325.269 356.107L348.333 345.406L371.164 356.106C371.576 356.3 371.84 356.713 371.84 357.168C371.84 357.983 371.028 358.549 370.262 358.267Z" fill="#263238"/>
<path opacity="0.3" d="M370.262 358.267L348.333 350.192L326.165 358.274C325.4 358.553 324.59 357.986 324.59 357.171C324.59 356.715 324.855 356.3 325.269 356.107L348.333 345.406L371.164 356.106C371.576 356.3 371.84 356.713 371.84 357.168C371.84 357.983 371.028 358.549 370.262 358.267Z" fill="white"/>
<path opacity="0.2" d="M343.165 352.077L348.333 350.192L353.264 352.008V347.717L348.333 345.406L343.165 347.804V352.077Z" fill="black"/>
<path d="M348.215 358.454C347.211 358.454 346.372 357.691 346.277 356.692L345.657 350.191V296.236H350.772V350.191L350.153 356.692C350.059 357.691 349.219 358.454 348.215 358.454Z" fill="#263238"/>
<path opacity="0.3" d="M348.215 358.454C347.211 358.454 346.372 357.691 346.277 356.692L345.657 350.191V296.236H350.772V350.191L350.153 356.692C350.059 357.691 349.219 358.454 348.215 358.454Z" fill="white"/>
<path opacity="0.2" d="M350.772 296.236H345.657V302.519H350.772V296.236Z" fill="black"/>
<path d="M383.79 291.327C378.003 289.851 372.057 289.039 366.094 288.89C359.949 288.736 336.948 288.866 331.486 288.864C324.838 288.862 318.188 289.681 311.737 291.327C307.682 292.361 308.932 298.213 312.595 298.28C312.919 298.287 382.449 298.266 382.705 298.277C386.536 298.451 387.934 292.384 383.79 291.327Z" fill="#407BFF"/>
<path opacity="0.3" d="M383.79 291.327C378.003 289.851 372.057 289.039 366.094 288.89C359.949 288.736 336.948 288.866 331.486 288.864C324.838 288.862 318.188 289.681 311.737 291.327C307.682 292.361 308.932 298.213 312.595 298.28C312.919 298.287 382.449 298.266 382.705 298.277C386.536 298.451 387.934 292.384 383.79 291.327Z" fill="black"/>
<path d="M313.621 298.155C325.301 295.176 337.673 295.176 349.353 298.155C353.771 299.281 355.656 292.453 351.235 291.325C338.334 288.035 324.64 288.035 311.738 291.325C307.325 292.451 309.195 299.284 313.621 298.155Z" fill="#407BFF"/>
<g opacity="0.3">
<path d="M313.621 298.155C325.301 295.176 337.673 295.176 349.353 298.155C353.771 299.281 355.656 292.453 351.235 291.325C338.334 288.035 324.64 288.035 311.738 291.325C307.325 292.451 309.195 299.284 313.621 298.155Z" fill="white"/>
</g>
<path d="M365.194 240.65C364.462 240.636 363.728 240.963 363.238 241.776C353.87 257.355 350.542 276.081 353.774 293.948C353.977 295.067 354.744 295.589 355.595 295.647C357.013 295.743 382.257 295.654 383.172 295.652C384.548 295.649 386.061 294.479 385.737 292.692C382.734 276.089 386.041 258.6 394.725 244.158C395.804 242.364 394.213 240.679 392.604 240.649C391.873 240.636 366.803 240.681 365.194 240.65Z" fill="#407BFF"/>
<path opacity="0.2" d="M365.194 240.65C364.462 240.636 363.728 240.963 363.238 241.776C353.87 257.355 350.542 276.081 353.774 293.948C353.977 295.067 354.744 295.589 355.595 295.647C357.013 295.743 382.257 295.654 383.172 295.652C384.548 295.649 386.061 294.479 385.737 292.692C382.734 276.089 386.041 258.6 394.725 244.158C395.804 242.364 394.213 240.679 392.604 240.649C391.873 240.636 366.803 240.681 365.194 240.65Z" fill="black"/>
<path d="M358.327 292.693C355.324 276.09 358.631 258.601 367.315 244.159C368.885 241.548 364.804 239.172 363.238 241.776C353.87 257.354 350.542 276.081 353.774 293.947C354.315 296.933 358.866 295.668 358.327 292.693Z" fill="#407BFF"/>
<g opacity="0.2">
<path d="M358.327 292.693C355.324 276.09 358.631 258.601 367.315 244.159C368.885 241.548 364.804 239.172 363.238 241.776C353.87 257.354 350.542 276.081 353.774 293.947C354.315 296.933 358.866 295.668 358.327 292.693Z" fill="white"/>
</g>
</svg>
