<svg width="531" height="515" viewBox="0 0 531 515" fill="none" xmlns="http://www.w3.org/2000/svg">
<path d="M77.9412 349.353C69.2242 278.165 111.457 183.55 155.243 144.48C234.29 73.9459 299.96 87.5858 351.037 112.851C402.114 138.116 409.411 222.46 444.677 260.622C479.944 298.784 500.006 350.114 446.497 401.212C392.989 452.309 349.821 426.345 293.88 423.107C237.939 419.869 163.756 445.382 123.623 423.197C95.5991 407.704 81.7936 380.817 77.9412 349.353Z" fill="#0F4C81"/>
<path opacity="0.7" d="M77.9412 349.353C69.2242 278.165 111.457 183.55 155.243 144.48C234.29 73.9459 299.96 87.5858 351.037 112.851C402.114 138.116 409.411 222.46 444.677 260.622C479.944 298.784 500.006 350.114 446.497 401.212C392.989 452.309 349.821 426.345 293.88 423.107C237.939 419.869 163.756 445.382 123.623 423.197C95.5991 407.704 81.7936 380.817 77.9412 349.353Z" fill="white"/>
<path d="M299.311 346.845V84.5664" stroke="#263238" stroke-miterlimit="10" stroke-linecap="round" stroke-linejoin="round"/>
<path d="M469.797 349.439H304.351L52.9997 430.572" fill="#2F78C9"/>
<path d="M469.797 349.439H304.351L52.9997 430.572" stroke="#263238" stroke-miterlimit="10" stroke-linecap="round" stroke-linejoin="round"/>
<path d="M394.428 343.289H405.889V154.321H382.3L392.482 117.58H423.027L433.208 154.321H409.621V343.289H421.082C427.193 343.289 432.15 348.187 432.265 354.27C432.267 354.298 432.275 354.326 432.275 354.354C432.275 354.367 432.271 354.378 432.271 354.39C432.271 354.42 432.275 354.451 432.275 354.482H432.259C431.916 357.117 421.091 359.234 407.778 359.234C394.463 359.234 383.638 357.117 383.295 354.482H383.234C383.234 348.3 388.246 343.289 394.428 343.289Z" fill="white"/>
<path d="M242.198 71.5596V294.062L74.6825 321.621V44L242.198 71.5596ZM79.0247 135.27L164.2 140.094V62.7959L79.0247 49.2423V135.27ZM164.2 148.23L79.0247 144.325V222.052L164.2 218.07V148.23ZM171.112 217.746L239.384 214.554V151.678L171.112 148.547V217.746ZM171.112 63.8955V140.485L239.384 144.352V74.7591L171.112 63.8955ZM239.384 221.88L171.112 225.809V301.726L239.384 290.862V221.88ZM164.2 302.825V226.205L79.0247 231.106V316.379L164.2 302.825Z" fill="#FCFCFC"/>
<path d="M299.976 457.616C225.955 457.616 165.949 438.92 165.949 415.857C165.949 392.794 225.955 374.098 299.976 374.098C373.997 374.098 434.003 392.794 434.003 415.857C434.003 438.92 373.997 457.616 299.976 457.616Z" fill="#0F4C81"/>
<path opacity="0.5" d="M299.976 457.616C225.955 457.616 165.949 438.92 165.949 415.857C165.949 392.794 225.955 374.098 299.976 374.098C373.997 374.098 434.003 392.794 434.003 415.857C434.003 438.92 373.997 457.616 299.976 457.616Z" fill="white"/>
<path d="M311.299 231.743C311.299 231.743 341.673 228.146 361.656 243.733C381.639 259.321 398.825 324.464 398.425 355.637C398.025 386.81 386.435 402.397 357.26 415.186C328.086 427.974 273.732 423.179 243.358 413.587C212.984 403.995 202.993 370.424 203.393 352.44C203.793 334.455 223.775 313.672 230.57 309.277C237.364 304.881 256.547 295.688 266.14 281.301C275.73 266.912 289.719 235.739 311.299 231.743Z" fill="url(#paint0_linear_215_7336)"/>
<mask id="mask0_215_7336" style="mask-type:luminance" maskUnits="userSpaceOnUse" x="203" y="231" width="196" height="192">
<path d="M311.299 231.743C311.299 231.743 341.673 228.146 361.656 243.733C381.639 259.321 398.825 324.464 398.425 355.637C398.025 386.81 386.435 402.397 357.26 415.186C328.086 427.974 273.732 423.179 243.358 413.587C212.984 403.995 202.993 370.424 203.393 352.44C203.793 334.455 223.775 313.672 230.57 309.277C237.364 304.881 256.547 295.688 266.14 281.301C275.73 266.912 289.719 235.739 311.299 231.743Z" fill="white"/>
</mask>
<g mask="url(#mask0_215_7336)">
<path opacity="0.13" d="M237.787 411.463C249.272 409.912 262.891 406.795 273.201 400.535C294.967 387.321 300.407 362.445 308.181 353.117C315.955 343.789 329.947 344.567 336.165 334.461C342.383 324.356 332.279 249.732 350.157 245.068C354.961 243.814 358.578 243.407 361.311 243.476C361.425 243.564 361.543 243.643 361.656 243.73C381.639 259.317 398.825 324.461 398.425 355.635C398.025 386.808 386.435 402.395 357.26 415.184C328.086 427.972 273.732 423.176 243.358 413.585C241.418 412.974 239.563 412.26 237.787 411.463Z" fill="url(#paint1_linear_215_7336)"/>
</g>
<path d="M311.299 231.743C311.299 231.743 341.673 228.146 361.656 243.733C381.639 259.321 398.825 324.464 398.425 355.637C398.025 386.81 386.435 402.397 357.26 415.186C328.086 427.974 273.732 423.179 243.358 413.587C212.984 403.996 202.993 370.424 203.393 352.44C203.793 334.455 223.775 313.672 230.57 309.277C237.364 304.881 256.547 295.688 266.14 281.301C275.73 266.912 289.719 235.739 311.299 231.743Z" stroke="#263238" stroke-miterlimit="10" stroke-linecap="round" stroke-linejoin="round"/>
<path d="M323.259 245.83C323.259 245.83 343.081 249.619 346.579 253.117C350.077 256.615 364.652 311.417 364.652 311.417C364.652 311.417 358.239 309.668 352.409 312C346.579 314.332 345.996 320.454 345.413 323.369C344.83 326.284 344.539 333.863 344.539 333.863C344.539 333.863 285.616 328.6 273.082 325.685C260.547 322.77 241.471 321.429 241.471 321.429C241.471 321.429 273.704 248.745 278.66 246.121C283.615 243.498 304.312 243.206 307.227 243.789C310.142 244.372 323.259 245.83 323.259 245.83Z" fill="#263238" stroke="#263238" stroke-miterlimit="10" stroke-linecap="round" stroke-linejoin="round"/>
<path d="M342.79 313.167L337.835 272.648" stroke="white" stroke-miterlimit="10" stroke-linecap="round" stroke-linejoin="round"/>
<path d="M339 283.433L332.295 274.688" stroke="white" stroke-miterlimit="10" stroke-linecap="round" stroke-linejoin="round"/>
<path d="M318.887 288.68C318.887 288.68 299.939 282.559 287.405 282.559" stroke="white" stroke-miterlimit="10" stroke-linecap="round" stroke-linejoin="round"/>
<path d="M301.003 271.969L302.271 281.685C302.271 281.685 299.065 281.685 298.773 283.143C298.482 284.6 299.939 286.058 299.939 286.058C299.939 286.058 290.903 291.013 289.737 296.843" stroke="white" stroke-miterlimit="10" stroke-linecap="round" stroke-linejoin="round"/>
<path d="M312.377 234.947C312.377 234.947 323.259 238.445 324.815 241.166C326.369 243.886 325.203 262.931 325.203 265.263C325.203 267.595 323.842 263.903 322.676 261.182C321.51 258.462 317.429 254.381 316.069 254.769C314.708 255.158 313.931 256.713 313.931 259.239C313.931 261.765 310.822 265.263 308.101 267.206C305.381 269.15 302.854 271.092 302.854 271.092C302.854 271.092 297.219 262.93 295.858 260.793C294.498 258.656 294.692 254.185 294.498 252.631C294.303 251.077 290.805 256.907 290.028 255.351C289.251 253.797 291.777 252.436 294.498 248.161C297.218 243.885 296.441 239.416 300.522 236.306C304.603 233.198 309.267 234.17 312.377 234.947Z" fill="white"/>
<mask id="mask1_215_7336" style="mask-type:luminance" maskUnits="userSpaceOnUse" x="289" y="234" width="37" height="38">
<path d="M312.377 234.947C312.377 234.947 323.259 238.445 324.815 241.166C326.369 243.886 325.203 262.931 325.203 265.263C325.203 267.595 323.842 263.903 322.676 261.182C321.51 258.462 317.429 254.381 316.069 254.769C314.708 255.158 313.931 256.713 313.931 259.239C313.931 261.765 310.822 265.263 308.101 267.206C305.381 269.15 302.854 271.092 302.854 271.092C302.854 271.092 297.219 262.93 295.858 260.793C294.498 258.656 294.692 254.185 294.498 252.631C294.303 251.077 290.805 256.907 290.028 255.351C289.251 253.797 291.777 252.436 294.498 248.161C297.218 243.885 296.441 239.416 300.522 236.306C304.603 233.198 309.267 234.17 312.377 234.947Z" fill="white"/>
</mask>
<g mask="url(#mask1_215_7336)">
<path d="M324.814 241.165C325.851 242.981 325.677 252.06 325.447 258.598C322.969 255.4 317.852 249.369 314.886 250.51C311.112 251.961 309.66 262.704 309.66 262.704L312.21 234.906C312.265 234.92 312.324 234.933 312.377 234.947C312.377 234.947 323.259 238.445 324.814 241.165Z" fill="#0F4C81"/>
</g>
<mask id="mask2_215_7336" style="mask-type:luminance" maskUnits="userSpaceOnUse" x="289" y="234" width="37" height="38">
<path d="M312.377 234.947C312.377 234.947 323.259 238.445 324.815 241.166C326.369 243.886 325.203 262.931 325.203 265.263C325.203 267.595 323.842 263.903 322.676 261.182C321.51 258.462 317.429 254.381 316.069 254.769C314.708 255.158 313.931 256.713 313.931 259.239C313.931 261.765 310.822 265.263 308.101 267.206C305.381 269.15 302.854 271.092 302.854 271.092C302.854 271.092 297.219 262.93 295.858 260.793C294.498 258.656 294.692 254.185 294.498 252.631C294.303 251.077 290.805 256.907 290.028 255.351C289.251 253.797 291.777 252.436 294.498 248.161C297.218 243.885 296.441 239.416 300.522 236.306C304.603 233.198 309.267 234.17 312.377 234.947Z" fill="white"/>
</mask>
<g mask="url(#mask2_215_7336)">
<path opacity="0.5" d="M324.814 241.165C325.851 242.981 325.677 252.06 325.447 258.598C322.969 255.4 317.852 249.369 314.886 250.51C311.112 251.961 309.66 262.704 309.66 262.704L312.21 234.906C312.265 234.92 312.324 234.933 312.377 234.947C312.377 234.947 323.259 238.445 324.814 241.165Z" fill="white"/>
</g>
<path d="M312.377 234.947C312.377 234.947 323.259 238.445 324.815 241.166C326.369 243.886 325.203 262.931 325.203 265.263C325.203 267.595 323.842 263.903 322.676 261.182C321.51 258.462 317.429 254.381 316.069 254.769C314.708 255.158 313.931 256.713 313.931 259.239C313.931 261.765 310.822 265.263 308.101 267.206C305.381 269.15 302.854 271.092 302.854 271.092C302.854 271.092 297.219 262.93 295.858 260.793C294.498 258.656 294.692 254.185 294.498 252.631C294.303 251.077 290.805 256.907 290.028 255.351C289.251 253.797 291.777 252.436 294.498 248.161C297.218 243.885 296.441 239.416 300.522 236.306C304.603 233.198 309.267 234.17 312.377 234.947Z" stroke="#263238" stroke-miterlimit="10" stroke-linecap="round" stroke-linejoin="round"/>
<path d="M338.126 313.75C338.126 313.75 344.83 304.13 352.992 303.256C361.154 302.381 371.065 309.086 371.357 311.418C371.648 313.75 373.689 326.284 372.231 328.033C370.774 329.782 365.235 331.24 354.45 327.742C343.664 324.244 339.292 319.871 338.126 313.75Z" fill="white"/>
<mask id="mask3_215_7336" style="mask-type:luminance" maskUnits="userSpaceOnUse" x="338" y="303" width="35" height="27">
<path d="M338.126 313.75C338.126 313.75 344.83 304.13 352.992 303.256C361.154 302.381 371.065 309.086 371.357 311.418C371.648 313.75 373.689 326.284 372.231 328.033C370.774 329.782 365.235 331.24 354.45 327.742C343.664 324.244 339.292 319.871 338.126 313.75Z" fill="white"/>
</mask>
<g mask="url(#mask3_215_7336)">
<path d="M365.402 327.738C365.402 327.738 367.725 321.06 366.563 318.737C365.402 316.415 360.757 312.931 357.853 309.447C354.95 305.963 364.652 311.418 365.112 309.447C365.481 307.86 360 304.695 357.842 303.518C364.628 304.817 371.122 309.536 371.357 311.418C371.648 313.75 373.689 326.285 372.231 328.034C371.479 328.936 369.629 329.756 366.54 329.862C365.837 328.636 365.402 327.738 365.402 327.738Z" fill="#0F4C81"/>
</g>
<mask id="mask4_215_7336" style="mask-type:luminance" maskUnits="userSpaceOnUse" x="338" y="303" width="35" height="27">
<path d="M338.126 313.75C338.126 313.75 344.83 304.13 352.992 303.256C361.154 302.381 371.065 309.086 371.357 311.418C371.648 313.75 373.689 326.284 372.231 328.033C370.774 329.782 365.235 331.24 354.45 327.742C343.664 324.244 339.292 319.871 338.126 313.75Z" fill="white"/>
</mask>
<g mask="url(#mask4_215_7336)">
<path opacity="0.5" d="M365.402 327.738C365.402 327.738 367.725 321.06 366.563 318.737C365.402 316.415 360.757 312.931 357.853 309.447C354.95 305.963 364.652 311.418 365.112 309.447C365.481 307.86 360 304.695 357.842 303.518C364.628 304.817 371.122 309.536 371.357 311.418C371.648 313.75 373.689 326.285 372.231 328.034C371.479 328.936 369.629 329.756 366.54 329.862C365.837 328.636 365.402 327.738 365.402 327.738Z" fill="white"/>
</g>
<path d="M338.126 313.75C338.126 313.75 344.83 304.13 352.992 303.256C361.154 302.381 371.065 309.086 371.357 311.418C371.648 313.75 373.689 326.284 372.231 328.033C370.774 329.782 365.235 331.24 354.45 327.742C343.664 324.244 339.292 319.871 338.126 313.75Z" stroke="#263238" stroke-miterlimit="10" stroke-linecap="round" stroke-linejoin="round"/>
<path d="M360.864 316.374C360.864 316.374 371.803 320.716 372.232 329.2C372.47 333.894 364.653 335.904 356.491 335.904C348.329 335.904 336.669 325.702 329.09 321.329C321.511 316.957 304.021 306.754 301.981 305.88C299.94 305.005 292.944 307.337 290.029 308.212C287.114 309.086 281.576 309.086 281.576 309.086C281.576 309.086 277.495 315.499 275.454 315.499C273.414 315.499 279.827 305.88 280.701 303.839C281.576 301.799 295.859 297.135 297.608 297.135C299.357 297.135 340.167 307.337 346.289 309.669C352.41 312.001 360.864 316.374 360.864 316.374Z" fill="white"/>
<mask id="mask5_215_7336" style="mask-type:luminance" maskUnits="userSpaceOnUse" x="275" y="297" width="98" height="39">
<path d="M360.864 316.374C360.864 316.374 371.803 320.716 372.232 329.2C372.47 333.894 364.653 335.904 356.491 335.904C348.329 335.904 336.669 325.702 329.09 321.329C321.511 316.957 304.021 306.754 301.981 305.88C299.94 305.005 292.944 307.337 290.029 308.212C287.114 309.086 281.576 309.086 281.576 309.086C281.576 309.086 277.495 315.499 275.454 315.499C273.414 315.499 279.827 305.88 280.701 303.839C281.576 301.799 295.859 297.135 297.608 297.135C299.357 297.135 340.167 307.337 346.289 309.669C352.41 312.001 360.864 316.374 360.864 316.374Z" fill="white"/>
</mask>
<g mask="url(#mask5_215_7336)">
<path d="M338.002 315.16C321.333 306.825 297.608 297.135 297.608 297.135C299.357 297.135 340.167 307.337 346.289 309.669C352.41 312.001 360.864 316.374 360.864 316.374C360.864 316.374 371.803 320.716 372.232 329.2C372.47 333.894 364.653 335.904 356.491 335.904C348.329 335.904 336.669 325.702 329.09 321.329C327.804 320.588 326.23 319.676 324.497 318.672C335.634 320.106 350.513 321.416 338.002 315.16Z" fill="#0F4C81"/>
</g>
<mask id="mask6_215_7336" style="mask-type:luminance" maskUnits="userSpaceOnUse" x="275" y="297" width="98" height="39">
<path d="M360.864 316.374C360.864 316.374 371.803 320.716 372.232 329.2C372.47 333.894 364.653 335.904 356.491 335.904C348.329 335.904 336.669 325.702 329.09 321.329C321.511 316.957 304.021 306.754 301.981 305.88C299.94 305.005 292.944 307.337 290.029 308.212C287.114 309.086 281.576 309.086 281.576 309.086C281.576 309.086 277.495 315.499 275.454 315.499C273.414 315.499 279.827 305.88 280.701 303.839C281.576 301.799 295.859 297.135 297.608 297.135C299.357 297.135 340.167 307.337 346.289 309.669C352.41 312.001 360.864 316.374 360.864 316.374Z" fill="white"/>
</mask>
<g mask="url(#mask6_215_7336)">
<path opacity="0.5" d="M338.002 315.16C321.333 306.825 297.608 297.135 297.608 297.135C299.357 297.135 340.167 307.337 346.289 309.669C352.41 312.001 360.864 316.374 360.864 316.374C360.864 316.374 371.803 320.716 372.232 329.2C372.47 333.894 364.653 335.904 356.491 335.904C348.329 335.904 336.669 325.702 329.09 321.329C327.804 320.588 326.23 319.676 324.497 318.672C335.634 320.106 350.513 321.416 338.002 315.16Z" fill="white"/>
</g>
<path d="M360.864 316.374C360.864 316.374 371.803 320.716 372.232 329.2C372.47 333.894 364.653 335.904 356.491 335.904C348.329 335.904 336.669 325.702 329.09 321.329C321.511 316.957 304.021 306.754 301.981 305.88C299.94 305.005 292.944 307.337 290.029 308.212C287.114 309.086 281.576 309.086 281.576 309.086C281.576 309.086 277.495 315.499 275.454 315.499C273.414 315.499 279.827 305.88 280.701 303.839C281.576 301.799 295.859 297.135 297.608 297.135C299.357 297.135 340.167 307.337 346.289 309.669C352.41 312.001 360.864 316.374 360.864 316.374Z" stroke="#263238" stroke-miterlimit="10" stroke-linecap="round" stroke-linejoin="round"/>
<path d="M275.608 251.541L284.49 301.508L220.36 301.799L210.821 254.418C210.461 252.63 211.796 250.95 213.617 250.895L272.619 249.115C274.08 249.069 275.351 250.102 275.608 251.541Z" fill="white" stroke="#263238" stroke-miterlimit="10" stroke-linecap="round" stroke-linejoin="round"/>
<path d="M284.49 301.506L315.717 323.592L244.299 321.552L220.36 301.797L284.49 301.506Z" fill="white"/>
<mask id="mask7_215_7336" style="mask-type:luminance" maskUnits="userSpaceOnUse" x="220" y="301" width="96" height="23">
<path d="M284.49 301.506L315.717 323.592L244.299 321.552L220.36 301.797L284.49 301.506Z" fill="white"/>
</mask>
<g mask="url(#mask7_215_7336)">
<path d="M284.49 301.506L315.717 323.592L244.299 321.552L220.36 301.797L284.49 301.506Z" fill="#0F4C81"/>
</g>
<mask id="mask8_215_7336" style="mask-type:luminance" maskUnits="userSpaceOnUse" x="220" y="301" width="96" height="23">
<path d="M284.49 301.506L315.717 323.592L244.299 321.552L220.36 301.797L284.49 301.506Z" fill="white"/>
</mask>
<g mask="url(#mask8_215_7336)">
<path opacity="0.5" d="M284.49 301.506L315.717 323.592L244.299 321.552L220.36 301.797L284.49 301.506Z" fill="white"/>
</g>
<path d="M284.49 301.506L315.717 323.592L244.299 321.552L220.36 301.797L284.49 301.506Z" stroke="#263238" stroke-miterlimit="10" stroke-linecap="round" stroke-linejoin="round"/>
<path d="M260.879 323.369C260.879 323.369 235.227 300.924 209.866 293.345C184.506 285.766 179.259 286.932 179.842 298.3C180.425 309.669 192.668 369.135 200.83 384.293C208.992 399.451 219.194 427.143 218.903 432.391C218.611 437.637 208.7 453.087 199.955 458.626C191.21 464.164 192.085 470.868 197.623 472.035C203.162 473.201 209.575 475.241 228.522 462.998C247.47 450.755 255.34 433.265 254.174 428.893C253.008 424.52 240.765 418.69 235.81 409.945C230.854 401.2 222.692 368.552 222.109 353.686C221.526 338.819 216.279 326.285 216.279 326.285C216.279 326.285 248.344 332.114 257.672 337.944L260.879 323.369Z" fill="white"/>
<mask id="mask9_215_7336" style="mask-type:luminance" maskUnits="userSpaceOnUse" x="179" y="288" width="82" height="185">
<path d="M260.879 323.369C260.879 323.369 235.227 300.924 209.866 293.345C184.506 285.766 179.259 286.932 179.842 298.3C180.425 309.669 192.668 369.135 200.83 384.293C208.992 399.451 219.194 427.143 218.903 432.391C218.611 437.637 208.7 453.087 199.955 458.626C191.21 464.164 192.085 470.868 197.623 472.035C203.162 473.201 209.575 475.241 228.522 462.998C247.47 450.755 255.34 433.265 254.174 428.893C253.008 424.52 240.765 418.69 235.81 409.945C230.854 401.2 222.692 368.552 222.109 353.686C221.526 338.819 216.279 326.285 216.279 326.285C216.279 326.285 248.344 332.114 257.672 337.944L260.879 323.369Z" fill="white"/>
</mask>
<g mask="url(#mask9_215_7336)">
<path d="M260.879 323.369C260.879 323.369 235.227 300.924 209.866 293.345C184.506 285.766 179.259 286.932 179.842 298.3C180.425 309.669 192.668 369.135 200.83 384.293C208.992 399.451 219.194 427.143 218.903 432.391C218.611 437.637 208.7 453.087 199.955 458.626C191.21 464.164 192.085 470.868 197.623 472.035C203.162 473.201 209.575 475.241 228.522 462.998C247.47 450.755 255.34 433.265 254.174 428.893C253.008 424.52 240.765 418.69 235.81 409.945C230.854 401.2 222.692 368.552 222.109 353.686C221.526 338.819 216.279 326.285 216.279 326.285C216.279 326.285 248.344 332.114 257.672 337.944L260.879 323.369Z" fill="#0F4C81"/>
</g>
<mask id="mask10_215_7336" style="mask-type:luminance" maskUnits="userSpaceOnUse" x="179" y="288" width="82" height="185">
<path d="M260.879 323.369C260.879 323.369 235.227 300.924 209.866 293.345C184.506 285.766 179.259 286.932 179.842 298.3C180.425 309.669 192.668 369.135 200.83 384.293C208.992 399.451 219.194 427.143 218.903 432.391C218.611 437.637 208.7 453.087 199.955 458.626C191.21 464.164 192.085 470.868 197.623 472.035C203.162 473.201 209.575 475.241 228.522 462.998C247.47 450.755 255.34 433.265 254.174 428.893C253.008 424.52 240.765 418.69 235.81 409.945C230.854 401.2 222.692 368.552 222.109 353.686C221.526 338.819 216.279 326.285 216.279 326.285C216.279 326.285 248.344 332.114 257.672 337.944L260.879 323.369Z" fill="white"/>
</mask>
<g mask="url(#mask10_215_7336)">
<path opacity="0.5" d="M260.879 323.369C260.879 323.369 235.227 300.924 209.866 293.345C184.506 285.766 179.259 286.932 179.842 298.3C180.425 309.669 192.668 369.135 200.83 384.293C208.992 399.451 219.194 427.143 218.903 432.391C218.611 437.637 208.7 453.087 199.955 458.626C191.21 464.164 192.085 470.868 197.623 472.035C203.162 473.201 209.575 475.241 228.522 462.998C247.47 450.755 255.34 433.265 254.174 428.893C253.008 424.52 240.765 418.69 235.81 409.945C230.854 401.2 222.692 368.552 222.109 353.686C221.526 338.819 216.279 326.285 216.279 326.285C216.279 326.285 248.344 332.114 257.672 337.944L260.879 323.369Z" fill="white"/>
</g>
<path d="M260.879 323.369C260.879 323.369 235.227 300.924 209.866 293.345C184.506 285.766 179.259 286.932 179.842 298.3C180.425 309.669 192.668 369.135 200.83 384.293C208.992 399.451 219.194 427.143 218.903 432.39C218.611 437.637 208.7 453.087 199.955 458.626C191.21 464.164 192.085 470.869 197.623 472.035C203.162 473.201 209.575 475.241 228.522 462.998C247.47 450.755 255.34 433.265 254.174 428.892C253.008 424.52 240.765 418.69 235.81 409.945C230.854 401.2 222.692 368.552 222.109 353.685C221.526 338.819 216.279 326.284 216.279 326.284C216.279 326.284 248.344 332.114 257.672 337.944L260.879 323.369Z" stroke="#263238" stroke-miterlimit="10" stroke-linecap="round" stroke-linejoin="round"/>
<path d="M235.81 409.945C236.181 410.6 236.604 411.233 237.049 411.856C232.553 412.361 226.064 413.954 220.652 418.69C219.072 420.073 217.77 421.354 216.665 422.545C213.251 411.649 206.543 394.904 200.83 384.293C192.668 369.135 180.425 309.669 179.842 298.3C179.259 286.932 184.506 285.766 209.866 293.345C235.227 300.924 260.879 323.369 260.879 323.369L257.672 337.944C248.344 332.114 216.279 326.285 216.279 326.285C216.279 326.285 221.526 338.819 222.109 353.686C222.692 368.552 230.854 401.2 235.81 409.945Z" fill="white" stroke="#263238" stroke-miterlimit="10" stroke-linecap="round" stroke-linejoin="round"/>
<path d="M235.81 409.945C236.181 410.6 236.604 411.233 237.049 411.856C232.553 412.361 226.064 413.954 220.652 418.69C219.072 420.073 217.77 421.354 216.665 422.545C211.077 415.045 204.795 391.354 197.704 381.611C179.38 356.437 180.425 309.669 179.842 298.3C179.259 286.932 184.506 285.766 209.866 293.345C235.227 300.924 260.879 323.369 260.879 323.369L257.672 337.944C248.344 332.114 216.279 326.285 216.279 326.285C216.279 326.285 221.526 338.819 222.109 353.686C222.692 368.552 230.854 401.2 235.81 409.945Z" fill="#263238"/>
<mask id="mask11_215_7336" style="mask-type:luminance" maskUnits="userSpaceOnUse" x="179" y="288" width="82" height="135">
<path d="M235.81 409.945C236.181 410.6 236.604 411.233 237.049 411.856C232.553 412.361 226.064 413.954 220.652 418.69C219.072 420.073 217.77 421.354 216.665 422.545C211.077 415.045 204.795 391.354 197.704 381.611C179.38 356.437 180.425 309.669 179.842 298.3C179.259 286.932 184.506 285.766 209.866 293.345C235.227 300.924 260.879 323.369 260.879 323.369L257.672 337.944C248.344 332.114 216.279 326.285 216.279 326.285C216.279 326.285 221.526 338.819 222.109 353.686C222.692 368.552 230.854 401.2 235.81 409.945Z" fill="white"/>
</mask>
<g mask="url(#mask11_215_7336)">
<path opacity="0.53" d="M235.81 409.945C236.181 410.6 236.604 411.233 237.049 411.856C232.553 412.361 226.064 413.954 220.652 418.69C219.072 420.073 217.77 421.354 216.665 422.545C211.077 415.045 204.795 391.354 197.704 381.611C179.38 356.437 180.425 309.669 179.842 298.3C179.259 286.932 184.506 285.766 209.866 293.345C235.227 300.924 260.879 323.369 260.879 323.369L257.672 337.944C248.344 332.114 216.279 326.285 216.279 326.285C216.279 326.285 221.526 338.819 222.109 353.686C222.692 368.552 230.854 401.2 235.81 409.945Z" fill="white"/>
</g>
<mask id="mask12_215_7336" style="mask-type:luminance" maskUnits="userSpaceOnUse" x="179" y="288" width="82" height="135">
<path d="M235.81 409.945C236.181 410.6 236.604 411.233 237.049 411.856C232.553 412.361 226.064 413.954 220.652 418.69C219.072 420.073 217.77 421.354 216.665 422.545C211.077 415.045 204.795 391.354 197.704 381.611C179.38 356.437 180.425 309.669 179.842 298.3C179.259 286.932 184.506 285.766 209.866 293.345C235.227 300.924 260.879 323.369 260.879 323.369L257.672 337.944C248.344 332.114 216.279 326.285 216.279 326.285C216.279 326.285 221.526 338.819 222.109 353.686C222.692 368.552 230.854 401.2 235.81 409.945Z" fill="white"/>
</mask>
<g mask="url(#mask12_215_7336)">
<path opacity="0.14" d="M192.164 296.762C192.625 292.623 237.712 311.704 256.726 319.944C259.364 322.047 260.879 323.369 260.879 323.369L257.672 337.944C248.344 332.114 216.279 326.284 216.279 326.284C216.279 326.284 221.526 338.818 222.109 353.685C222.692 368.551 230.854 401.199 235.81 409.944C236.181 410.6 236.604 411.233 237.049 411.855C234.425 412.15 231.121 412.822 227.75 414.267C220.689 399.337 213.207 382.029 209.655 368.471C203.241 343.985 191.581 302.009 192.164 296.762Z" fill="black"/>
</g>
<mask id="mask13_215_7336" style="mask-type:luminance" maskUnits="userSpaceOnUse" x="179" y="288" width="82" height="135">
<path d="M235.81 409.945C236.181 410.6 236.604 411.233 237.049 411.856C232.553 412.361 226.064 413.954 220.652 418.69C219.072 420.073 217.77 421.354 216.665 422.545C211.077 415.045 204.795 391.354 197.704 381.611C179.38 356.437 180.425 309.669 179.842 298.3C179.259 286.932 184.506 285.766 209.866 293.345C235.227 300.924 260.879 323.369 260.879 323.369L257.672 337.944C248.344 332.114 216.279 326.285 216.279 326.285C216.279 326.285 221.526 338.819 222.109 353.686C222.692 368.552 230.854 401.2 235.81 409.945Z" fill="white"/>
</mask>
<g mask="url(#mask13_215_7336)">
<path d="M216.279 326.284C216.279 326.284 207.534 308.502 199.955 301.215" stroke="#263238" stroke-miterlimit="10" stroke-linecap="round" stroke-linejoin="round"/>
</g>
<path d="M235.81 409.945C236.181 410.6 236.604 411.233 237.049 411.856C232.553 412.361 226.064 413.954 220.652 418.69C219.072 420.073 217.77 421.354 216.665 422.545C211.077 415.045 204.795 391.354 197.704 381.611C179.38 356.437 180.425 309.669 179.842 298.3C179.259 286.932 184.506 285.766 209.866 293.345C235.227 300.924 260.879 323.369 260.879 323.369L257.672 337.944C248.344 332.114 216.279 326.284 216.279 326.284C216.279 326.284 221.526 338.819 222.109 353.685C222.692 368.552 230.854 401.2 235.81 409.945Z" stroke="#263238" stroke-miterlimit="10" stroke-linecap="round" stroke-linejoin="round"/>
<path d="M299.311 346.845C299.311 346.845 284.923 346.445 271.735 341.649C258.546 336.854 282.526 328.061 291.718 332.857C300.909 337.653 299.311 346.845 299.311 346.845Z" fill="#263238" stroke="#263238" stroke-miterlimit="10" stroke-linecap="round" stroke-linejoin="round"/>
<path d="M337.251 328.033C337.251 328.033 346.579 333.28 349.786 339.11C352.992 344.94 339.195 354.656 324.62 354.073C310.045 353.49 283.324 337.652 283.324 337.652C283.324 337.652 283.032 363.304 278.077 372.632C273.121 381.96 250.384 404.697 241.348 410.527C232.311 416.357 201.995 438.22 197.331 441.718C192.667 445.216 183.922 451.629 181.882 451.92C179.841 452.212 158.562 426.268 153.606 417.523C148.651 408.778 144.278 390.414 146.027 386.333C147.776 382.252 151.274 385.75 154.772 388.665C158.27 391.58 190.335 412.859 193.25 414.317C196.165 415.774 198.206 416.357 198.206 416.357C198.206 416.357 224.441 391.288 238.433 372.049C252.425 352.81 253.591 328.033 258.838 318.705C264.085 309.377 271.664 305.296 283.032 306.462C294.401 307.628 318.012 313.749 337.251 328.033Z" fill="white"/>
<mask id="mask14_215_7336" style="mask-type:luminance" maskUnits="userSpaceOnUse" x="145" y="306" width="206" height="146">
<path d="M337.251 328.033C337.251 328.033 346.579 333.28 349.786 339.11C352.992 344.94 339.195 354.656 324.62 354.073C310.045 353.49 283.324 337.652 283.324 337.652C283.324 337.652 283.032 363.304 278.077 372.632C273.121 381.96 250.384 404.697 241.348 410.527C232.311 416.357 201.995 438.22 197.331 441.718C192.667 445.216 183.922 451.629 181.882 451.92C179.841 452.212 158.562 426.268 153.606 417.523C148.651 408.778 144.278 390.414 146.027 386.333C147.776 382.252 151.274 385.75 154.772 388.665C158.27 391.58 190.335 412.859 193.25 414.317C196.165 415.774 198.206 416.357 198.206 416.357C198.206 416.357 224.441 391.288 238.433 372.049C252.425 352.81 253.591 328.033 258.838 318.705C264.085 309.377 271.664 305.296 283.032 306.462C294.401 307.628 318.012 313.749 337.251 328.033Z" fill="white"/>
</mask>
<g mask="url(#mask14_215_7336)">
<path d="M213.906 429.71C206.122 435.288 199.342 440.209 197.332 441.717C192.668 445.215 183.923 451.628 181.882 451.92C181.158 452.023 178.011 448.819 174.034 444.26L207.417 422.787L213.906 429.71Z" fill="#0F4C81"/>
</g>
<mask id="mask15_215_7336" style="mask-type:luminance" maskUnits="userSpaceOnUse" x="145" y="306" width="206" height="146">
<path d="M337.251 328.033C337.251 328.033 346.579 333.28 349.786 339.11C352.992 344.94 339.195 354.656 324.62 354.073C310.045 353.49 283.324 337.652 283.324 337.652C283.324 337.652 283.032 363.304 278.077 372.632C273.121 381.96 250.384 404.697 241.348 410.527C232.311 416.357 201.995 438.22 197.331 441.718C192.667 445.216 183.922 451.629 181.882 451.92C179.841 452.212 158.562 426.268 153.606 417.523C148.651 408.778 144.278 390.414 146.027 386.333C147.776 382.252 151.274 385.75 154.772 388.665C158.27 391.58 190.335 412.859 193.25 414.317C196.165 415.774 198.206 416.357 198.206 416.357C198.206 416.357 224.441 391.288 238.433 372.049C252.425 352.81 253.591 328.033 258.838 318.705C264.085 309.377 271.664 305.296 283.032 306.462C294.401 307.628 318.012 313.749 337.251 328.033Z" fill="white"/>
</mask>
<g mask="url(#mask15_215_7336)">
<path opacity="0.5" d="M213.906 429.71C206.122 435.288 199.342 440.209 197.332 441.717C192.668 445.215 183.923 451.628 181.882 451.92C181.158 452.023 178.011 448.819 174.034 444.26L207.417 422.787L213.906 429.71Z" fill="white"/>
</g>
<path d="M337.251 328.033C337.251 328.033 346.579 333.28 349.786 339.11C352.992 344.94 339.195 354.656 324.62 354.073C310.045 353.49 283.324 337.652 283.324 337.652C283.324 337.652 283.032 363.304 278.077 372.632C273.121 381.96 250.384 404.697 241.348 410.527C232.311 416.357 201.995 438.22 197.331 441.718C192.667 445.216 183.922 451.629 181.882 451.92C179.841 452.212 158.562 426.268 153.606 417.523C148.651 408.778 144.278 390.414 146.027 386.333C147.776 382.252 151.274 385.75 154.772 388.665C158.27 391.58 190.335 412.859 193.25 414.317C196.165 415.774 198.206 416.357 198.206 416.357C198.206 416.357 224.441 391.288 238.433 372.049C252.425 352.81 253.591 328.033 258.838 318.705C264.085 309.377 271.664 305.296 283.032 306.462C294.401 307.628 318.012 313.749 337.251 328.033Z" stroke="#263238" stroke-miterlimit="10" stroke-linecap="round" stroke-linejoin="round"/>
<path d="M200.016 414.605C206.18 408.59 229.306 377.563 238.432 359.726C251.806 333.586 253.246 324.677 258.493 315.349C263.74 306.021 271.664 305.294 283.033 306.46C294.401 307.626 314.742 309.737 339.699 323.891C339.699 323.891 350.174 329.586 353.381 335.416C356.587 341.246 344.913 355.926 324.619 354.072C310.093 352.745 283.323 337.651 283.323 337.651C283.323 337.651 283.031 363.303 278.076 372.631C273.12 381.959 250.383 404.696 241.347 410.526C235.616 414.223 221.333 424.364 210.456 432.184C207.728 422.424 202.91 417.075 200.016 414.605Z" fill="#263238"/>
<mask id="mask16_215_7336" style="mask-type:luminance" maskUnits="userSpaceOnUse" x="200" y="306" width="154" height="127">
<path d="M200.016 414.605C206.18 408.59 229.306 377.563 238.432 359.726C251.806 333.586 253.246 324.677 258.493 315.349C263.74 306.021 271.664 305.294 283.033 306.46C294.401 307.626 314.742 309.737 339.699 323.891C339.699 323.891 350.174 329.586 353.381 335.416C356.587 341.246 344.913 355.926 324.619 354.072C310.093 352.745 283.323 337.651 283.323 337.651C283.323 337.651 283.031 363.303 278.076 372.631C273.12 381.959 250.383 404.696 241.347 410.526C235.616 414.223 221.333 424.364 210.456 432.184C207.728 422.424 202.91 417.075 200.016 414.605Z" fill="white"/>
</mask>
<g mask="url(#mask16_215_7336)">
<path opacity="0.53" d="M200.016 414.605C206.18 408.59 229.306 377.563 238.432 359.726C251.806 333.586 253.246 324.677 258.493 315.349C263.74 306.021 271.664 305.294 283.033 306.46C294.401 307.626 314.742 309.737 339.699 323.891C339.699 323.891 350.174 329.586 353.381 335.416C356.587 341.246 344.913 355.926 324.619 354.072C310.093 352.745 283.323 337.651 283.323 337.651C283.323 337.651 283.031 363.303 278.076 372.631C273.12 381.959 250.383 404.696 241.347 410.526C235.616 414.223 221.333 424.364 210.456 432.184C207.728 422.424 202.91 417.075 200.016 414.605Z" fill="white"/>
</g>
<mask id="mask17_215_7336" style="mask-type:luminance" maskUnits="userSpaceOnUse" x="200" y="306" width="154" height="127">
<path d="M200.016 414.605C206.18 408.59 229.306 377.563 238.432 359.726C251.806 333.586 253.246 324.677 258.493 315.349C263.74 306.021 271.664 305.294 283.033 306.46C294.401 307.626 314.742 309.737 339.699 323.891C339.699 323.891 350.174 329.586 353.381 335.416C356.587 341.246 344.913 355.926 324.619 354.072C310.093 352.745 283.323 337.651 283.323 337.651C283.323 337.651 283.031 363.303 278.076 372.631C273.12 381.959 250.383 404.696 241.347 410.526C235.616 414.223 221.333 424.364 210.456 432.184C207.728 422.424 202.91 417.075 200.016 414.605Z" fill="white"/>
</mask>
<g mask="url(#mask17_215_7336)">
<path opacity="0.14" d="M258.626 373.134C267.371 350.98 262.124 306.672 286.61 312.502C304.454 316.751 337.152 331.832 353.583 339.704C351.643 346.394 340.914 355.563 324.621 354.074C310.095 352.747 283.325 337.653 283.325 337.653C283.325 337.653 283.033 363.305 278.078 372.633C273.122 381.961 250.385 404.698 241.349 410.528C235.618 414.225 221.334 424.366 210.458 432.186C209.353 428.239 207.908 425.025 206.386 422.419C228.097 406.38 253.745 385.501 258.626 373.134Z" fill="black"/>
</g>
<mask id="mask18_215_7336" style="mask-type:luminance" maskUnits="userSpaceOnUse" x="200" y="306" width="154" height="127">
<path d="M200.016 414.605C206.18 408.59 229.306 377.563 238.432 359.726C251.806 333.586 253.246 324.677 258.493 315.349C263.74 306.021 271.664 305.294 283.033 306.46C294.401 307.626 314.742 309.737 339.699 323.891C339.699 323.891 350.174 329.586 353.381 335.416C356.587 341.246 344.913 355.926 324.619 354.072C310.093 352.745 283.323 337.651 283.323 337.651C283.323 337.651 283.031 363.303 278.076 372.631C273.12 381.959 250.383 404.696 241.347 410.526C235.616 414.223 221.333 424.364 210.456 432.184C207.728 422.424 202.91 417.075 200.016 414.605Z" fill="white"/>
</mask>
<g mask="url(#mask18_215_7336)">
<path d="M283.324 337.652L284.198 322.494" stroke="#263238" stroke-miterlimit="10" stroke-linecap="round" stroke-linejoin="round"/>
</g>
<path d="M200.016 414.605C206.18 408.59 229.306 377.563 238.432 359.726C251.806 333.586 253.246 324.677 258.493 315.349C263.74 306.021 271.664 305.294 283.033 306.46C294.401 307.626 314.742 309.737 339.699 323.891C339.699 323.891 350.174 329.586 353.381 335.416C356.587 341.246 344.913 355.926 324.619 354.072C310.093 352.745 283.323 337.651 283.323 337.651C283.323 337.651 283.031 363.303 278.076 372.631C273.12 381.959 250.383 404.696 241.347 410.526C235.616 414.223 221.333 424.364 210.456 432.184C207.728 422.424 202.91 417.075 200.016 414.605Z" stroke="#263238" stroke-miterlimit="10" stroke-linecap="round" stroke-linejoin="round"/>
<path d="M197.332 441.719C192.668 445.217 183.923 451.63 181.882 451.922C179.842 452.213 158.562 426.27 153.607 417.525C148.651 408.78 144.279 390.415 146.028 386.334C147.777 382.253 151.275 385.751 154.773 388.666C158.271 391.581 190.336 412.861 193.251 414.318C194.015 414.699 194.713 415.019 195.336 415.286C196.18 416.881 197.197 419.36 196.457 421.023C195.291 423.646 190.336 427.144 190.336 427.144L199.154 440.372C198.37 440.948 197.746 441.409 197.332 441.719Z" fill="#263238" stroke="#263238" stroke-miterlimit="10" stroke-linecap="round" stroke-linejoin="round"/>
<path d="M153.607 417.525C148.651 408.78 144.279 390.415 146.028 386.334C147.041 383.97 148.643 384.156 150.49 385.292C149.263 390.746 150.502 401.252 156.522 412.569C161.893 422.667 178.497 440.514 186.863 449.206C184.593 450.702 182.698 451.805 181.882 451.922C179.842 452.213 158.562 426.27 153.607 417.525Z" fill="white"/>
<mask id="mask19_215_7336" style="mask-type:luminance" maskUnits="userSpaceOnUse" x="145" y="384" width="42" height="68">
<path d="M153.607 417.525C148.651 408.78 144.279 390.415 146.028 386.334C147.041 383.97 148.643 384.156 150.49 385.292C149.263 390.746 150.502 401.252 156.522 412.569C161.893 422.667 178.497 440.514 186.863 449.206C184.593 450.702 182.698 451.805 181.882 451.922C179.842 452.213 158.562 426.27 153.607 417.525Z" fill="white"/>
</mask>
<g mask="url(#mask19_215_7336)">
<path d="M181.584 451.846C181.509 451.812 181.426 451.766 181.335 451.709C181.309 451.692 181.284 451.68 181.256 451.66C181.138 451.582 181.008 451.485 180.866 451.375C180.821 451.34 180.773 451.299 180.727 451.262C180.62 451.174 180.506 451.078 180.387 450.975C180.325 450.92 180.263 450.866 180.197 450.807C180.054 450.677 179.902 450.539 179.745 450.389C179.654 450.303 179.558 450.211 179.463 450.119C179.338 449.999 179.212 449.875 179.08 449.745C178.973 449.637 178.862 449.527 178.75 449.413C178.646 449.307 178.537 449.197 178.429 449.085C178.162 448.809 177.884 448.52 177.595 448.214C177.551 448.166 177.507 448.122 177.462 448.074C177.293 447.893 177.117 447.704 176.941 447.513C176.873 447.439 176.804 447.366 176.736 447.29C176.126 446.627 175.48 445.908 174.805 445.144C174.787 445.124 174.77 445.104 174.752 445.084C174.517 444.817 174.279 444.545 174.036 444.269L174.033 444.264L179.122 440.99C182.025 444.14 184.717 446.978 186.862 449.208C186.593 449.385 186.329 449.557 186.073 449.722C186.036 449.746 186.001 449.769 185.963 449.792C185.717 449.95 185.476 450.103 185.243 450.247C185.238 450.251 185.233 450.253 185.229 450.256C184.83 450.504 184.46 450.722 184.109 450.922C184 450.984 183.888 451.05 183.784 451.108C183.67 451.171 183.565 451.225 183.458 451.281C183.329 451.349 183.205 451.413 183.087 451.471C182.998 451.515 182.914 451.555 182.831 451.593C182.704 451.651 182.587 451.7 182.476 451.743C182.416 451.766 182.355 451.792 182.3 451.812C182.142 451.867 181.998 451.909 181.881 451.925C181.824 451.933 181.747 451.913 181.661 451.882C181.637 451.87 181.611 451.857 181.584 451.846Z" fill="#0F4C81"/>
</g>
<mask id="mask20_215_7336" style="mask-type:luminance" maskUnits="userSpaceOnUse" x="145" y="384" width="42" height="68">
<path d="M153.607 417.525C148.651 408.78 144.279 390.415 146.028 386.334C147.041 383.97 148.643 384.156 150.49 385.292C149.263 390.746 150.502 401.252 156.522 412.569C161.893 422.667 178.497 440.514 186.863 449.206C184.593 450.702 182.698 451.805 181.882 451.922C179.842 452.213 158.562 426.27 153.607 417.525Z" fill="white"/>
</mask>
<g mask="url(#mask20_215_7336)">
<path opacity="0.5" d="M181.584 451.846C181.509 451.812 181.426 451.766 181.335 451.709C181.309 451.692 181.284 451.68 181.256 451.66C181.138 451.582 181.008 451.485 180.866 451.375C180.821 451.34 180.773 451.299 180.727 451.262C180.62 451.174 180.506 451.078 180.387 450.975C180.325 450.92 180.263 450.866 180.197 450.807C180.054 450.677 179.902 450.539 179.745 450.389C179.654 450.303 179.558 450.211 179.463 450.119C179.338 449.999 179.212 449.875 179.08 449.745C178.973 449.637 178.862 449.527 178.75 449.413C178.646 449.307 178.537 449.197 178.429 449.085C178.162 448.809 177.884 448.52 177.595 448.214C177.551 448.166 177.507 448.122 177.462 448.074C177.293 447.893 177.117 447.704 176.941 447.513C176.873 447.439 176.804 447.366 176.736 447.29C176.126 446.627 175.48 445.908 174.805 445.144C174.787 445.124 174.77 445.104 174.752 445.084C174.517 444.817 174.279 444.545 174.036 444.269L174.033 444.264L179.122 440.99C182.025 444.14 184.717 446.978 186.862 449.208C186.593 449.385 186.329 449.557 186.073 449.722C186.036 449.746 186.001 449.769 185.963 449.792C185.717 449.95 185.476 450.103 185.243 450.247C185.238 450.251 185.233 450.253 185.229 450.256C184.83 450.504 184.46 450.722 184.109 450.922C184 450.984 183.888 451.05 183.784 451.108C183.67 451.171 183.565 451.225 183.458 451.281C183.329 451.349 183.205 451.413 183.087 451.471C182.998 451.515 182.914 451.555 182.831 451.593C182.704 451.651 182.587 451.7 182.476 451.743C182.416 451.766 182.355 451.792 182.3 451.812C182.142 451.867 181.998 451.909 181.881 451.925C181.824 451.933 181.747 451.913 181.661 451.882C181.637 451.87 181.611 451.857 181.584 451.846Z" fill="white"/>
</g>
<path d="M153.607 417.525C148.651 408.78 144.279 390.415 146.028 386.334C147.041 383.97 148.643 384.156 150.49 385.292C149.263 390.746 150.502 401.252 156.522 412.569C161.893 422.667 178.497 440.514 186.863 449.206C184.593 450.702 182.698 451.805 181.882 451.922C179.842 452.213 158.562 426.27 153.607 417.525Z" stroke="#263238" stroke-miterlimit="10" stroke-linecap="round" stroke-linejoin="round"/>
<path d="M199.955 458.625C208.7 453.086 218.611 437.637 218.902 432.39C218.926 431.963 218.873 431.375 218.766 430.671C221.535 430.705 223.566 432.39 223.566 432.39C223.566 432.39 229.979 426.56 234.935 423.353C238.485 421.056 243.069 420.408 245.392 420.223C249.625 423.699 253.54 426.513 254.174 428.892C255.34 433.264 247.469 450.754 228.522 462.997C209.574 475.24 203.161 473.2 197.623 472.034C192.084 470.868 191.21 464.163 199.955 458.625Z" fill="#263238" stroke="#263238" stroke-miterlimit="10" stroke-linecap="round" stroke-linejoin="round"/>
<path d="M199.955 458.625C202.536 456.99 205.216 454.481 207.724 451.636C213.74 449.081 221.767 445.763 228.813 441.426C236.392 436.762 234.643 433.847 239.016 429.475C242.372 426.119 248.972 425.684 251.87 425.662C253.065 426.826 253.909 427.897 254.174 428.892C255.34 433.264 247.469 450.754 228.522 462.997C209.574 475.24 203.161 473.2 197.623 472.034C192.084 470.868 191.21 464.163 199.955 458.625Z" fill="white"/>
<mask id="mask21_215_7336" style="mask-type:luminance" maskUnits="userSpaceOnUse" x="193" y="425" width="62" height="48">
<path d="M199.955 458.625C202.536 456.99 205.216 454.481 207.724 451.636C213.74 449.081 221.767 445.763 228.813 441.426C236.392 436.762 234.643 433.847 239.016 429.475C242.372 426.119 248.972 425.684 251.87 425.662C253.065 426.826 253.909 427.897 254.174 428.892C255.34 433.264 247.469 450.754 228.522 462.997C209.574 475.24 203.161 473.2 197.623 472.034C192.084 470.868 191.21 464.163 199.955 458.625Z" fill="white"/>
</mask>
<g mask="url(#mask21_215_7336)">
<path d="M199.955 458.625C202.536 456.99 205.216 454.481 207.724 451.636C213.74 449.081 221.767 445.763 228.813 441.426C236.392 436.762 234.643 433.847 239.016 429.475C242.372 426.119 248.972 425.684 251.87 425.662C253.065 426.826 253.909 427.897 254.174 428.892C255.34 433.264 247.469 450.754 228.522 462.997C209.574 475.24 203.161 473.2 197.623 472.034C192.084 470.868 191.21 464.163 199.955 458.625Z" fill="#0F4C81"/>
</g>
<mask id="mask22_215_7336" style="mask-type:luminance" maskUnits="userSpaceOnUse" x="193" y="425" width="62" height="48">
<path d="M199.955 458.625C202.536 456.99 205.216 454.481 207.724 451.636C213.74 449.081 221.767 445.763 228.813 441.426C236.392 436.762 234.643 433.847 239.016 429.475C242.372 426.119 248.972 425.684 251.87 425.662C253.065 426.826 253.909 427.897 254.174 428.892C255.34 433.264 247.469 450.754 228.522 462.997C209.574 475.24 203.161 473.2 197.623 472.034C192.084 470.868 191.21 464.163 199.955 458.625Z" fill="white"/>
</mask>
<g mask="url(#mask22_215_7336)">
<path opacity="0.5" d="M199.955 458.625C202.536 456.99 205.216 454.481 207.724 451.636C213.74 449.081 221.767 445.763 228.813 441.426C236.392 436.762 234.643 433.847 239.016 429.475C242.372 426.119 248.972 425.684 251.87 425.662C253.065 426.826 253.909 427.897 254.174 428.892C255.34 433.264 247.469 450.754 228.522 462.997C209.574 475.24 203.161 473.2 197.623 472.034C192.084 470.868 191.21 464.163 199.955 458.625Z" fill="white"/>
</g>
<path d="M199.955 458.625C202.536 456.99 205.216 454.481 207.724 451.636C213.74 449.081 221.767 445.763 228.813 441.426C236.392 436.762 234.643 433.847 239.016 429.475C242.372 426.119 248.972 425.684 251.87 425.662C253.065 426.826 253.909 427.897 254.174 428.892C255.34 433.264 247.469 450.754 228.522 462.997C209.574 475.24 203.161 473.2 197.623 472.034C192.084 470.868 191.21 464.163 199.955 458.625Z" stroke="#263238" stroke-miterlimit="10" stroke-linecap="round" stroke-linejoin="round"/>
<path d="M198.498 460.667C206.077 456.294 221.526 453.379 231.437 446.675C241.348 439.97 238.725 434.14 246.012 429.476C249.361 427.333 252.152 427.838 254.195 429.009C255.207 433.554 247.317 450.855 228.522 462.999C209.575 475.242 203.162 473.201 197.623 472.035C193.942 471.26 192.343 468.036 194.237 464.335C195.434 462.899 196.848 461.62 198.498 460.667Z" fill="#263238"/>
<mask id="mask23_215_7336" style="mask-type:luminance" maskUnits="userSpaceOnUse" x="193" y="428" width="62" height="45">
<path d="M198.498 460.667C206.077 456.294 221.526 453.379 231.437 446.675C241.348 439.97 238.725 434.14 246.012 429.476C249.361 427.333 252.152 427.838 254.195 429.009C255.207 433.554 247.317 450.855 228.522 462.999C209.575 475.242 203.162 473.201 197.623 472.035C193.942 471.26 192.343 468.036 194.237 464.335C195.434 462.899 196.848 461.62 198.498 460.667Z" fill="white"/>
</mask>
<g mask="url(#mask23_215_7336)">
<path opacity="0.53" d="M198.498 460.667C206.077 456.294 221.526 453.379 231.437 446.675C241.348 439.97 238.725 434.14 246.012 429.476C249.361 427.333 252.152 427.838 254.195 429.009C255.207 433.554 247.317 450.855 228.522 462.999C209.575 475.242 203.162 473.201 197.623 472.035C193.942 471.26 192.343 468.036 194.237 464.335C195.434 462.899 196.848 461.62 198.498 460.667Z" fill="white"/>
</g>
<path d="M198.498 460.667C206.077 456.294 221.526 453.379 231.437 446.675C241.348 439.97 238.725 434.14 246.012 429.476C249.361 427.333 252.152 427.838 254.195 429.009C255.207 433.554 247.317 450.855 228.522 462.999C209.575 475.242 203.162 473.201 197.623 472.035C193.942 471.26 192.343 468.036 194.237 464.335C195.434 462.899 196.848 461.62 198.498 460.667Z" stroke="#263238" stroke-miterlimit="10" stroke-linecap="round" stroke-linejoin="round"/>
<path d="M343.754 404.909C343.754 404.909 338.158 398.115 337.36 403.31C336.56 408.506 337.76 418.098 341.756 421.695C345.753 425.292 347.75 419.696 347.75 419.696L345.353 416.499C345.353 416.499 343.354 420.496 341.756 414.101C340.157 407.706 344.953 408.505 344.953 408.505L343.754 404.909Z" fill="white" stroke="#263238" stroke-miterlimit="10" stroke-linecap="round" stroke-linejoin="round"/>
<path d="M348.038 430.486C351.35 432.937 362.138 432.937 365.449 430.486C372.457 425.299 371.252 400.234 371.252 400.234H342.261C342.261 400.234 341.031 425.299 348.038 430.486Z" fill="white" stroke="#263238" stroke-miterlimit="10" stroke-linecap="round" stroke-linejoin="round"/>
<path d="M368.102 395.317C368.102 392.161 365.18 392.161 365.18 389.004C365.18 385.85 368.102 385.85 368.102 382.695C368.102 379.538 365.18 379.538 365.18 376.381C365.18 373.221 368.102 373.221 368.102 370.063C368.102 366.903 365.18 366.903 365.18 363.744" stroke="#263238" stroke-miterlimit="10" stroke-linecap="round" stroke-linejoin="round"/>
<path d="M358.086 395.317C358.086 392.921 355.164 392.921 355.164 390.526C355.164 388.129 358.086 388.129 358.086 385.733C358.086 383.335 355.164 383.335 355.164 380.936C355.164 378.537 358.086 378.537 358.086 376.137C358.086 373.738 355.164 373.738 355.164 371.338" stroke="#263238" stroke-miterlimit="10" stroke-linecap="round" stroke-linejoin="round"/>
<path d="M347.069 395.317C347.069 392.161 344.147 392.161 344.147 389.004C344.147 385.85 347.069 385.85 347.069 382.695C347.069 379.538 344.147 379.538 344.147 376.381C344.147 373.221 347.069 373.221 347.069 370.063C347.069 366.903 344.147 366.903 344.147 363.744" stroke="#263238" stroke-miterlimit="10" stroke-linecap="round" stroke-linejoin="round"/>
<path d="M342.261 400.234C342.261 400.964 348.75 401.555 356.756 401.555C364.762 401.555 371.252 400.964 371.252 400.234C371.252 399.505 364.762 398.914 356.756 398.914C348.75 398.914 342.261 399.505 342.261 400.234Z" fill="white" stroke="#263238" stroke-miterlimit="10" stroke-linecap="round" stroke-linejoin="round"/>
<path d="M315.502 219.835C315.502 219.835 314.145 234.563 313.572 239.207C313.001 243.853 311.696 257.221 310.355 261.641C309.014 266.062 301.71 273.748 301.003 271.97C300.295 270.192 296.683 258.185 298.131 251.047C299.579 243.908 300.017 237.702 299.115 235.916C298.213 234.129 294.989 232.059 294.989 232.059C294.989 232.059 300.743 229.173 305.936 225.683C311.131 222.192 314.786 218.251 315.502 219.835Z" fill="white"/>
<mask id="mask24_215_7336" style="mask-type:luminance" maskUnits="userSpaceOnUse" x="294" y="219" width="22" height="54">
<path d="M315.502 219.835C315.502 219.835 314.145 234.563 313.572 239.207C313.001 243.853 311.696 257.221 310.355 261.641C309.014 266.062 301.71 273.748 301.003 271.97C300.295 270.192 296.683 258.185 298.131 251.047C299.579 243.908 300.017 237.702 299.115 235.916C298.213 234.129 294.989 232.059 294.989 232.059C294.989 232.059 300.743 229.173 305.936 225.683C311.131 222.192 314.786 218.251 315.502 219.835Z" fill="white"/>
</mask>
<g mask="url(#mask24_215_7336)">
<path d="M296.791 232.742L297.983 230.473C300.124 229.298 303.11 227.583 305.936 225.683C311.13 222.192 314.786 218.252 315.501 219.835C315.501 219.835 314.144 234.563 313.571 239.207C313 243.852 311.695 257.221 310.354 261.641C310.027 262.719 309.341 263.994 308.486 265.276C309.897 256.484 308.366 240.612 308.366 240.612L296.791 232.742Z" fill="#0F4C81"/>
</g>
<mask id="mask25_215_7336" style="mask-type:luminance" maskUnits="userSpaceOnUse" x="294" y="219" width="22" height="54">
<path d="M315.502 219.835C315.502 219.835 314.145 234.563 313.572 239.207C313.001 243.853 311.696 257.221 310.355 261.641C309.014 266.062 301.71 273.748 301.003 271.97C300.295 270.192 296.683 258.185 298.131 251.047C299.579 243.908 300.017 237.702 299.115 235.916C298.213 234.129 294.989 232.059 294.989 232.059C294.989 232.059 300.743 229.173 305.936 225.683C311.131 222.192 314.786 218.251 315.502 219.835Z" fill="white"/>
</mask>
<g mask="url(#mask25_215_7336)">
<path opacity="0.5" d="M296.791 232.742L297.983 230.473C300.124 229.298 303.11 227.583 305.936 225.683C311.13 222.192 314.786 218.252 315.501 219.835C315.501 219.835 314.144 234.563 313.571 239.207C313 243.852 311.695 257.221 310.354 261.641C310.027 262.719 309.341 263.994 308.486 265.276C309.897 256.484 308.366 240.612 308.366 240.612L296.791 232.742Z" fill="white"/>
</g>
<path d="M315.502 219.835C315.502 219.835 314.145 234.563 313.572 239.207C313.001 243.853 311.696 257.221 310.355 261.641C309.014 266.062 301.71 273.748 301.003 271.97C300.295 270.192 296.683 258.185 298.131 251.047C299.579 243.908 300.017 237.702 299.115 235.916C298.213 234.129 294.989 232.059 294.989 232.059C294.989 232.059 300.743 229.173 305.936 225.683C311.131 222.192 314.786 218.251 315.502 219.835Z" stroke="#263238" stroke-miterlimit="10" stroke-linecap="round" stroke-linejoin="round"/>
<path d="M316.046 221.936C316.046 221.936 307.65 228.965 301.205 231.502C294.762 234.039 284.869 233.904 283.48 230.55C282.089 227.197 285.924 200.703 289.243 193.729C292.563 186.755 296.12 186.641 301.977 186.111C307.834 185.58 319.573 190.356 321.633 196.019C323.694 201.683 321.348 209.71 319.638 214.465C317.929 219.219 316.046 221.936 316.046 221.936Z" fill="white"/>
<mask id="mask26_215_7336" style="mask-type:luminance" maskUnits="userSpaceOnUse" x="283" y="186" width="40" height="48">
<path d="M316.046 221.936C316.046 221.936 307.65 228.965 301.205 231.502C294.762 234.039 284.869 233.904 283.48 230.55C282.089 227.197 285.924 200.703 289.243 193.729C292.563 186.755 296.12 186.641 301.977 186.111C307.834 185.58 319.573 190.356 321.633 196.019C323.694 201.683 321.348 209.71 319.638 214.465C317.929 219.219 316.046 221.936 316.046 221.936Z" fill="white"/>
</mask>
<g mask="url(#mask26_215_7336)">
<path d="M300.959 221.627C303.935 212.784 304.664 198.939 304.664 195.235C304.664 192.377 297.225 189.245 293.825 187.962C296.05 186.584 298.639 186.413 301.976 186.111C307.833 185.58 319.572 190.356 321.632 196.019C323.693 201.683 321.347 209.71 319.637 214.465C317.928 219.219 316.045 221.937 316.045 221.937C316.045 221.937 307.649 228.966 301.204 231.503C296.911 233.194 291.1 233.69 287.28 232.846C291.833 231.105 298.977 227.518 300.959 221.627Z" fill="#0F4C81"/>
</g>
<mask id="mask27_215_7336" style="mask-type:luminance" maskUnits="userSpaceOnUse" x="283" y="186" width="40" height="48">
<path d="M316.046 221.936C316.046 221.936 307.65 228.965 301.205 231.502C294.762 234.039 284.869 233.904 283.48 230.55C282.089 227.197 285.924 200.703 289.243 193.729C292.563 186.755 296.12 186.641 301.977 186.111C307.834 185.58 319.573 190.356 321.633 196.019C323.694 201.683 321.348 209.71 319.638 214.465C317.929 219.219 316.046 221.936 316.046 221.936Z" fill="white"/>
</mask>
<g mask="url(#mask27_215_7336)">
<path opacity="0.5" d="M300.959 221.627C303.935 212.784 304.664 198.939 304.664 195.235C304.664 192.377 297.225 189.245 293.825 187.962C296.05 186.584 298.639 186.413 301.976 186.111C307.833 185.58 319.572 190.356 321.632 196.019C323.693 201.683 321.347 209.71 319.637 214.465C317.928 219.219 316.045 221.937 316.045 221.937C316.045 221.937 307.649 228.966 301.204 231.503C296.911 233.194 291.1 233.69 287.28 232.846C291.833 231.105 298.977 227.518 300.959 221.627Z" fill="white"/>
</g>
<path d="M316.046 221.936C316.046 221.936 307.65 228.965 301.205 231.502C294.762 234.039 284.869 233.904 283.48 230.55C282.089 227.197 285.924 200.703 289.243 193.729C292.563 186.755 296.12 186.641 301.977 186.111C307.834 185.58 319.573 190.356 321.633 196.019C323.694 201.683 321.348 209.71 319.638 214.465C317.929 219.219 316.046 221.936 316.046 221.936Z" stroke="#263238" stroke-miterlimit="10" stroke-linecap="round" stroke-linejoin="round"/>
<path d="M288.611 204.616C288.48 207.974 290.584 210.784 293.313 210.891C296.041 210.998 298.36 208.363 298.493 205.005C298.625 201.647 296.52 198.837 293.792 198.73C291.063 198.621 288.744 201.257 288.611 204.616Z" stroke="#263238" stroke-miterlimit="10" stroke-linecap="round" stroke-linejoin="round"/>
<path d="M282.012 203.34C281.881 206.698 282.964 209.467 284.433 209.526C285.902 209.584 287.2 206.908 287.333 203.55C287.465 200.192 286.381 197.422 284.912 197.364C283.443 197.307 282.144 199.982 282.012 203.34Z" stroke="#263238" stroke-miterlimit="10" stroke-linecap="round" stroke-linejoin="round"/>
<path d="M288.27 203.406C288.27 203.406 278.638 205.238 279.562 207.558C280.485 209.879 287.003 212.386 287.003 212.386" fill="white"/>
<path d="M288.27 203.406C288.27 203.406 278.638 205.238 279.562 207.558C280.485 209.879 287.003 212.386 287.003 212.386" stroke="#263238" stroke-miterlimit="10" stroke-linecap="round" stroke-linejoin="round"/>
<path d="M288.859 202.336C288.859 202.336 288.724 201.145 287.235 201.907" stroke="#263238" stroke-miterlimit="10" stroke-linecap="round" stroke-linejoin="round"/>
<path d="M298.765 205.553L316.278 212.444" stroke="#263238" stroke-miterlimit="10" stroke-linecap="round" stroke-linejoin="round"/>
<path d="M298.531 199.889C298.531 199.889 297.455 197.111 294.166 197.255" stroke="#263238" stroke-width="2" stroke-miterlimit="10" stroke-linecap="round" stroke-linejoin="round"/>
<path d="M286.868 197.332L289.563 198.351" stroke="#263238" stroke-width="2" stroke-miterlimit="10" stroke-linecap="round" stroke-linejoin="round"/>
<path d="M295.196 216.896C295.196 216.896 291.731 215.981 289.706 218.041" stroke="#263238" stroke-miterlimit="10" stroke-linecap="round" stroke-linejoin="round"/>
<path d="M292.936 205.255C292.776 206.425 292.991 207.421 293.417 207.479C293.842 207.537 294.317 206.636 294.476 205.466C294.636 204.297 294.422 203.301 293.996 203.243C293.57 203.185 293.096 204.086 292.936 205.255Z" fill="#263238"/>
<path d="M314.641 212.492C314.641 212.492 315.818 214.822 312.514 214.946C309.211 215.069 306.989 213.459 308.59 211.492C310.19 209.525 312.55 207.588 310.117 204.954C307.682 202.321 302.948 200.105 305.602 197.164C308.256 194.223 318.047 196.892 315.603 194.513C313.159 192.133 301.837 189.657 296.75 189.964C291.662 190.272 282.173 186.345 280.093 181.189C278.012 176.032 280.925 166.504 287.756 167.026C294.587 167.549 299.679 173.586 302.709 173.958C305.739 174.331 311.96 171.024 317.171 174.02C322.382 177.017 322.559 185.398 323.027 186.431C323.493 187.464 330.538 189.01 331.779 196.165C333.019 203.319 329.75 209.027 326.834 212.21C323.917 215.395 322.6 216.612 322.6 216.612L314.641 212.492Z" fill="#263238" stroke="#263238" stroke-miterlimit="10" stroke-linecap="round" stroke-linejoin="round"/>
<path d="M329.477 199.578C329.592 201.346 328.723 202.679 328.723 202.679" stroke="white" stroke-width="0.75" stroke-miterlimit="10" stroke-linecap="round" stroke-linejoin="round"/>
<path d="M299.747 181.12C299.747 181.12 302.297 175.557 295.806 175.557C289.315 175.557 288.388 183.67 295.111 186.684C301.833 189.697 316.437 190.393 324.32 193.87C326.29 194.74 327.551 195.724 328.333 196.714" stroke="white" stroke-width="0.75" stroke-miterlimit="10" stroke-linecap="round" stroke-linejoin="round"/>
<path d="M311.486 200.871C313.816 201.705 316.839 202.872 319.915 204.3C326.406 207.314 325.015 210.327 325.015 210.327" stroke="white" stroke-width="0.75" stroke-miterlimit="10" stroke-linecap="round" stroke-linejoin="round"/>
<path d="M307.166 199.434C307.166 199.434 307.732 199.601 308.701 199.919" stroke="white" stroke-width="0.75" stroke-miterlimit="10" stroke-linecap="round" stroke-linejoin="round"/>
<path d="M313.527 214.986C313.527 214.986 317.293 209.551 321.268 211.737C325.242 213.923 322.146 221.668 319.756 224.365C317.365 227.062 312.741 222.059 312.284 220.773" fill="white"/>
<mask id="mask28_215_7336" style="mask-type:luminance" maskUnits="userSpaceOnUse" x="312" y="211" width="12" height="15">
<path d="M313.527 214.986C313.527 214.986 317.293 209.551 321.268 211.737C325.242 213.923 322.146 221.668 319.756 224.365C317.365 227.062 312.741 222.059 312.284 220.773" fill="white"/>
</mask>
<g mask="url(#mask28_215_7336)">
<path d="M313.527 214.986C313.527 214.986 317.293 209.551 321.268 211.737C325.242 213.923 322.146 221.668 319.756 224.365C317.365 227.062 312.741 222.059 312.284 220.773" fill="#0F4C81"/>
</g>
<mask id="mask29_215_7336" style="mask-type:luminance" maskUnits="userSpaceOnUse" x="312" y="211" width="12" height="15">
<path d="M313.527 214.986C313.527 214.986 317.293 209.551 321.268 211.737C325.242 213.923 322.146 221.668 319.756 224.365C317.365 227.062 312.741 222.059 312.284 220.773" fill="white"/>
</mask>
<g mask="url(#mask29_215_7336)">
<path opacity="0.5" d="M313.527 214.986C313.527 214.986 317.293 209.551 321.268 211.737C325.242 213.923 322.146 221.668 319.756 224.365C317.365 227.062 312.741 222.059 312.284 220.773" fill="white"/>
</g>
<path d="M313.527 214.986C313.527 214.986 317.293 209.551 321.268 211.737C325.242 213.923 322.146 221.668 319.756 224.365C317.365 227.062 312.741 222.059 312.284 220.773" stroke="#263238" stroke-miterlimit="10" stroke-linecap="round" stroke-linejoin="round"/>
<path d="M361.098 283.071H444.675C447.972 283.071 450.645 280.399 450.645 277.101V215.999C450.645 212.702 447.972 210.029 444.675 210.029H361.098C357.801 210.029 355.128 212.702 355.128 215.999V277.101C355.128 280.399 357.802 283.071 361.098 283.071Z" fill="white" stroke="#263238" stroke-miterlimit="10" stroke-linecap="round" stroke-linejoin="round"/>
<path d="M356.947 262.574L300.979 277.149L356.947 249.748" fill="white"/>
<path d="M356.947 262.574L300.979 277.149L356.947 249.748" stroke="#263238" stroke-miterlimit="10" stroke-linecap="round" stroke-linejoin="round"/>
<path d="M420.444 217.053H442.919V276.048H420.444V217.053Z" fill="#0F4C81" stroke="#263238" stroke-miterlimit="10" stroke-linecap="round" stroke-linejoin="round"/>
<path d="M360.086 217.053H362.895V276.048H360.086V217.053Z" fill="#0F4C81" stroke="#263238" stroke-miterlimit="10" stroke-linecap="round" stroke-linejoin="round"/>
<path d="M360.086 244.029H362.895V249.071H360.086V244.029Z" fill="#263238" stroke="#263238" stroke-miterlimit="10" stroke-linecap="round" stroke-linejoin="round"/>
<path d="M413.421 218.457H369.175" stroke="#263238" stroke-miterlimit="10" stroke-linecap="round" stroke-linejoin="round"/>
<path d="M413.421 224.777H369.175" stroke="#263238" stroke-miterlimit="10" stroke-linecap="round" stroke-linejoin="round"/>
<path d="M413.421 231.1H369.175" stroke="#263238" stroke-miterlimit="10" stroke-linecap="round" stroke-linejoin="round"/>
<path d="M413.421 237.42H369.175" stroke="#263238" stroke-miterlimit="10" stroke-linecap="round" stroke-linejoin="round"/>
<path d="M413.421 252.871H369.175" stroke="#263238" stroke-miterlimit="10" stroke-linecap="round" stroke-linejoin="round"/>
<path d="M413.421 258.49H369.175" stroke="#263238" stroke-miterlimit="10" stroke-linecap="round" stroke-linejoin="round"/>
<path d="M413.421 264.107H369.175" stroke="#263238" stroke-miterlimit="10" stroke-linecap="round" stroke-linejoin="round"/>
<path d="M413.421 275.768H369.175" stroke="#263238" stroke-miterlimit="10" stroke-linecap="round" stroke-linejoin="round"/>
<path d="M442.919 276.048L420.445 217.053" stroke="#263238" stroke-miterlimit="10" stroke-linecap="round" stroke-linejoin="round"/>
<path d="M104.289 439.322C93.5176 439.322 84.786 435.404 84.786 430.572C84.786 425.74 93.5176 421.822 104.289 421.822C115.059 421.822 123.791 425.74 123.791 430.572C123.791 435.404 115.059 439.322 104.289 439.322Z" fill="#0F4C81"/>
<path opacity="0.5" d="M104.289 439.322C93.5176 439.322 84.786 435.404 84.786 430.572C84.786 425.74 93.5176 421.822 104.289 421.822C115.059 421.822 123.791 425.74 123.791 430.572C123.791 435.404 115.059 439.322 104.289 439.322Z" fill="white"/>
<path d="M127.106 301.167C125.019 302.079 119.913 301.964 119.91 301.963C119.856 301.962 121.007 298.62 121.103 298.419C122.224 296.075 125.766 292.206 128.649 292.596C130.725 292.877 131.88 294.954 131.411 296.91C130.932 298.907 128.883 300.39 127.106 301.167Z" fill="url(#paint2_linear_215_7336)"/>
<path d="M60.224 283.788C63.1157 283.477 66.5531 287.44 67.6095 289.813C67.7004 290.018 68.7603 293.389 68.7067 293.389C68.7067 293.389 68.6566 293.389 68.6449 293.388C69.1929 294.009 69.7724 294.682 70.3904 295.429C71.5214 296.819 72.7877 298.4 74.0481 300.214C75.3133 302.022 76.6367 304.023 77.8411 306.256C79.0514 308.493 80.2093 310.907 81.0814 313.55C81.0919 313.579 81.0978 313.612 81.1071 313.642C81.0919 312.79 81.1293 310.407 81.1537 310.224C81.4872 307.648 83.6467 302.866 86.5069 302.338C88.5672 301.958 90.3127 303.572 90.4771 305.576C90.6438 307.622 89.1607 309.671 87.7137 310.964C86.0824 312.422 81.5525 313.834 81.191 313.944C81.9979 316.469 82.6217 319.124 83.1045 321.846C83.382 323.403 83.614 324.978 83.825 326.562C83.8355 325.825 83.8507 325.166 83.8635 325.074C84.1982 322.498 86.3564 317.718 89.2166 317.188C91.2781 316.807 93.0225 318.422 93.1869 320.426C93.3548 322.473 91.8704 324.521 90.4234 325.813C88.9554 327.125 85.1181 328.405 84.0979 328.732C84.1725 329.339 84.2541 329.947 84.3264 330.554C84.6751 333.473 85.0109 336.388 85.4271 339.236C85.5729 340.24 85.7548 341.223 85.932 342.208C85.9425 341.554 85.9565 341.003 85.967 340.919C86.3005 338.343 88.4599 333.561 91.3201 333.033C93.3804 332.652 95.1259 334.267 95.2903 336.271C95.4582 338.317 93.9739 340.366 92.5269 341.658C91.1265 342.909 87.5947 344.124 86.3844 344.516C86.5966 345.519 86.8077 346.524 87.0584 347.486C87.2449 348.138 87.3778 348.78 87.6017 349.426C87.8093 350.069 88.0156 350.707 88.2185 351.338C88.6558 352.539 89.0989 353.781 89.5548 354.942C89.8649 355.751 90.1774 356.517 90.4876 357.29C90.3302 356.293 90.0632 354.333 90.0597 354.167C90.02 352.441 90.6321 349.637 91.8518 347.664C91.8448 347.409 91.8588 347.154 91.8996 346.903C92.2179 344.917 94.0835 343.443 96.1088 343.982C98.9201 344.73 100.703 349.664 100.836 352.258C100.844 352.411 100.744 354.08 100.663 355.133C100.804 354.521 100.935 353.927 101.089 353.299C101.384 352.056 101.715 350.824 102.066 349.497C102.257 348.863 102.452 348.221 102.648 347.574C102.829 346.928 103.101 346.268 103.326 345.608C103.883 344.089 104.519 342.574 105.195 341.064C104.108 340.803 100.257 339.821 98.7114 338.636C97.1722 337.454 95.5398 335.522 95.555 333.469C95.569 331.459 97.1886 329.718 99.2722 329.944C102.164 330.258 104.674 334.865 105.199 337.409C105.232 337.568 105.403 339.435 105.478 340.463C105.892 339.558 106.3 338.653 106.747 337.752C108.039 335.148 109.429 332.554 110.804 329.959C111.226 329.164 111.635 328.368 112.05 327.573C111.662 327.484 107.06 326.416 105.328 325.088C103.789 323.907 102.157 321.975 102.171 319.921C102.185 317.911 103.806 316.171 105.889 316.398C108.781 316.711 111.29 321.318 111.816 323.862C111.856 324.054 112.098 326.742 112.126 327.428C113.037 325.674 113.929 323.919 114.737 322.152C115.856 319.716 116.819 317.264 117.576 314.82C117.395 314.779 112.588 313.687 110.813 312.326C109.274 311.145 107.642 309.213 107.657 307.159C107.671 305.149 109.292 303.41 111.374 303.636C114.266 303.949 116.776 308.556 117.301 311.1C117.342 311.301 117.602 314.192 117.611 314.72C117.655 314.574 117.718 314.428 117.761 314.283C118.537 311.663 118.959 309.027 119.233 306.54C119.395 305.096 119.47 303.706 119.512 302.352C118.595 302.24 114.413 301.684 112.681 300.636C111.022 299.631 109.187 297.89 108.976 295.847C108.769 293.847 110.188 291.94 112.284 291.936C115.193 291.93 118.193 296.234 118.994 298.705C119.037 298.839 119.329 300.254 119.527 301.287C119.536 300.676 119.557 300.046 119.555 299.459C119.55 297.26 119.411 295.245 119.274 293.462C119.187 292.449 119.09 291.535 118.988 290.68C118.146 290.101 114.782 287.727 113.747 286.029C112.737 284.372 111.912 281.982 112.665 280.072C113.403 278.202 115.541 277.163 117.404 278.125C119.987 279.461 120.667 284.663 120.24 287.224C120.203 287.446 119.227 290.842 119.183 290.812C119.183 290.812 119.142 290.784 119.132 290.777C119.245 291.598 119.358 292.478 119.46 293.443C119.638 295.225 119.821 297.243 119.872 299.451C119.929 301.657 119.93 304.057 119.702 306.583C119.477 309.116 119.111 311.77 118.381 314.454C118.372 314.484 118.36 314.515 118.351 314.545C118.809 313.827 120.155 311.858 120.277 311.72C121.975 309.755 126.414 306.959 129.092 308.096C131.02 308.915 131.586 311.224 130.617 312.987C129.627 314.786 127.26 315.676 125.339 315.956C123.174 316.272 118.617 314.951 118.256 314.843C117.536 317.395 116.591 319.953 115.492 322.49C114.866 323.942 114.189 325.384 113.493 326.821C113.908 326.212 114.284 325.671 114.345 325.6C116.045 323.635 120.483 320.839 123.16 321.976C125.09 322.794 125.654 325.104 124.685 326.866C123.696 328.665 121.328 329.556 119.408 329.835C117.459 330.118 113.552 329.07 112.523 328.778C112.25 329.326 111.983 329.878 111.709 330.425C110.389 333.052 109.061 335.668 107.838 338.274C107.406 339.193 107.014 340.112 106.619 341.032C106.989 340.491 107.305 340.039 107.36 339.975C109.06 338.011 113.497 335.215 116.175 336.351C118.103 337.171 118.669 339.48 117.7 341.242C116.711 343.041 114.343 343.93 112.424 344.21C110.565 344.481 106.949 343.546 105.724 343.205C105.348 344.159 104.969 345.113 104.647 346.054C104.442 346.701 104.2 347.311 104.031 347.972C103.849 348.624 103.669 349.268 103.491 349.907C103.192 351.15 102.877 352.431 102.617 353.65C102.43 354.497 102.267 355.308 102.101 356.123C102.52 355.204 103.379 353.423 103.467 353.282C104.849 351.083 108.814 347.646 111.632 348.365C113.662 348.882 114.571 351.079 113.88 352.968C113.174 354.897 110.97 356.135 109.114 356.703C107.072 357.327 102.549 356.756 101.984 356.682C101.713 358.033 101.462 359.35 101.246 360.596C100.485 364.915 100.015 368.542 99.7211 371.081C99.6686 371.532 99.6244 371.934 99.5847 372.314H108.338L105.523 427.236C105.309 431.411 101.863 434.685 97.683 434.685C93.5028 434.685 90.0561 431.411 89.8428 427.236L87.028 372.314H95.1842C95.1236 372.188 95.0664 372.072 95.0035 371.94C93.8841 369.609 92.3322 366.258 90.6566 362.158C90.1238 360.864 89.5804 359.471 89.0359 358.034C88.489 358.149 84.0116 359.058 81.9256 358.587C80.0332 358.159 77.742 357.089 76.8943 355.218C76.0653 353.387 76.8069 351.128 78.7937 350.461C81.5502 349.535 85.7594 352.666 87.302 354.757C87.393 354.88 88.2313 356.328 88.7444 357.25C88.5252 356.662 88.306 356.093 88.0868 355.485C87.6472 354.286 87.2426 353.076 86.8042 351.775C86.6141 351.14 86.4217 350.498 86.2282 349.85C86.0218 349.211 85.8854 348.51 85.7093 347.835C85.335 346.261 85.0307 344.647 84.7613 343.015C83.7096 343.398 79.9574 344.703 78.0125 344.567C76.0781 344.431 73.6505 343.721 72.53 341.999C71.4328 340.315 71.8246 337.97 73.6867 337.009C76.2717 335.676 80.9066 338.134 82.7477 339.966C82.8619 340.08 84.0361 341.544 84.6646 342.36C84.5095 341.377 84.3509 340.397 84.2273 339.398C83.8693 336.515 83.5965 333.583 83.312 330.661C83.2257 329.766 83.1278 328.875 83.0345 327.983C82.6626 328.123 78.2352 329.772 76.0572 329.619C74.1216 329.484 71.694 328.772 70.5735 327.051C69.4762 325.367 69.868 323.022 71.7301 322.061C74.3152 320.727 78.95 323.185 80.7911 325.018C80.9299 325.155 82.6147 327.264 83.017 327.821C82.8095 325.856 82.5844 323.9 82.2836 321.98C81.8732 319.331 81.324 316.754 80.6069 314.299C80.4332 314.364 75.8205 316.105 73.5899 315.949C71.6543 315.813 69.2267 315.102 68.1062 313.381C67.009 311.696 67.4008 309.351 69.2629 308.391C71.8479 307.057 76.4827 309.515 78.3239 311.348C78.4684 311.491 80.2804 313.76 80.5789 314.195C80.5358 314.049 80.5078 313.893 80.4623 313.748C79.6636 311.135 78.5617 308.704 77.419 306.48C76.7579 305.185 76.0525 303.986 75.3401 302.832C74.5145 303.245 70.7192 305.087 68.6962 305.168C66.7571 305.246 64.2666 304.805 62.9641 303.218C61.6885 301.664 61.8203 299.29 63.5658 298.131C65.9887 296.522 70.865 298.456 72.8961 300.075C73.0069 300.162 74.0306 301.183 74.7652 301.935C74.4364 301.419 74.1064 300.882 73.78 300.394C72.5638 298.561 71.336 296.959 70.2377 295.548C69.6068 294.751 69.0204 294.043 68.4642 293.385C67.4428 293.367 63.3268 293.242 61.5276 292.398C59.7716 291.574 57.7638 290.034 57.3393 288.027C56.9289 286.059 58.1404 284.013 60.224 283.788ZM92.2459 361.49C93.9937 365.513 95.6028 368.798 96.7583 371.076C96.9915 371.535 97.2014 371.941 97.3949 372.317H97.5885C97.6457 371.871 97.7086 371.385 97.7844 370.839C98.1377 368.278 98.6915 364.627 99.5555 360.282C99.8249 358.909 100.141 357.448 100.479 355.95C100.14 355.814 98.21 355.034 96.5018 354.079C95.0128 355.692 91.1976 357.578 90.7044 357.819C91.221 359.094 91.7387 360.331 92.2459 361.49Z" fill="url(#paint3_linear_215_7336)"/>
<path d="M75.4625 302.289C75.417 302.317 74.5343 298.896 74.5029 298.674C74.1449 296.1 74.9646 290.92 77.5834 289.655C79.47 288.743 81.5793 289.839 82.2673 291.729C82.9692 293.659 82.0796 296.026 81.0243 297.655C79.7884 299.567 75.466 302.287 75.4625 302.289Z" fill="url(#paint4_linear_215_7336)"/>
<defs>
<linearGradient id="paint0_linear_215_7336" x1="227.762" y1="135.604" x2="288.688" y2="136.897" gradientUnits="userSpaceOnUse">
<stop stop-color="#90BDF5"/>
<stop offset="1" stop-color="#4987E5"/>
<stop offset="1" stop-color="#679CDE"/>
</linearGradient>
<linearGradient id="paint1_linear_215_7336" x1="398.539" y1="307.455" x2="413.715" y2="335.828" gradientUnits="userSpaceOnUse">
<stop stop-color="#90BDF5"/>
<stop offset="1" stop-color="#4987E5"/>
<stop offset="1" stop-color="#CADDF4"/>
</linearGradient>
<linearGradient id="paint2_linear_215_7336" x1="131.515" y1="297.268" x2="119.908" y2="297.268" gradientUnits="userSpaceOnUse">
<stop stop-color="#0046F9"/>
<stop offset="1" stop-color="#BEDDFF"/>
</linearGradient>
<linearGradient id="paint3_linear_215_7336" x1="131.081" y1="356.222" x2="57.2604" y2="356.222" gradientUnits="userSpaceOnUse">
<stop stop-color="#0046F9"/>
<stop offset="1" stop-color="#BEDDFF"/>
</linearGradient>
<linearGradient id="paint4_linear_215_7336" x1="82.5176" y1="295.809" x2="74.4234" y2="295.809" gradientUnits="userSpaceOnUse">
<stop stop-color="#0046F9"/>
<stop offset="1" stop-color="#BEDDFF"/>
</linearGradient>
</defs>
</svg>
