<svg width="16" height="17" viewBox="0 0 16 17" fill="none" xmlns="http://www.w3.org/2000/svg">
<path d="M4.75586 4.96779H5.63086C5.69961 4.96779 5.75586 4.91149 5.75586 4.84268C5.75586 4.4001 5.84805 4.0107 6.02305 3.69324C6.18867 3.38985 6.4293 3.14901 6.73242 2.98325C7.05117 2.80966 7.43867 2.71582 7.88086 2.71582H8.13086C8.57305 2.71582 8.96211 2.80809 9.2793 2.98325C9.58242 3.14901 9.82305 3.38985 9.98867 3.69324C10.1621 4.01227 10.2559 4.4001 10.2559 4.84268C10.2559 4.91149 10.3121 4.96779 10.3809 4.96779H11.2559C11.3246 4.96779 11.3809 4.91149 11.3809 4.84268C11.3809 4.21713 11.2434 3.64319 10.9762 3.15214C10.7074 2.65953 10.3121 2.26387 9.81992 1.99488C9.3293 1.72746 8.75586 1.58984 8.13086 1.58984H7.88086C7.25586 1.58984 6.68242 1.72746 6.1918 1.99488C5.69961 2.26387 5.3043 2.65953 5.03555 3.15214C4.76836 3.64319 4.63086 4.21713 4.63086 4.84268C4.63086 4.91149 4.68711 4.96779 4.75586 4.96779Z" fill="url(#paint0_linear_213_6636)"/>
<path d="M14.6934 8.59712H12.3809V7.03325C13.5809 7.03325 14.5527 6.06053 14.5527 4.85948C14.5527 4.79067 14.4965 4.73438 14.4277 4.73438H13.4902C13.4215 4.73438 13.3652 4.79067 13.3652 4.85948C13.3652 5.40371 12.9246 5.84472 12.3809 5.84472H3.63086C3.08711 5.84472 2.64648 5.40371 2.64648 4.85948C2.64648 4.79067 2.59023 4.73438 2.52148 4.73438H1.58398C1.51523 4.73438 1.45898 4.79067 1.45898 4.85948C1.45898 6.06053 2.43086 7.03325 3.63086 7.03325V8.59712H1.31836C1.24961 8.59712 1.19336 8.65341 1.19336 8.72222V9.59799C1.19336 9.6668 1.24961 9.7231 1.31836 9.7231H3.63086V11.2244C3.63086 11.3261 3.63398 11.4277 3.6418 11.5262C2.56992 11.9844 1.81836 13.0494 1.81836 14.2896C1.81836 14.3584 1.87461 14.4147 1.94336 14.4147H2.81836C2.88711 14.4147 2.94336 14.3584 2.94336 14.2896C2.94336 13.5983 3.3168 12.9931 3.87461 12.6678C3.96836 12.9368 4.08711 13.1933 4.2293 13.4341C4.60898 14.0831 5.15117 14.6258 5.79961 15.0058C6.44805 15.3858 7.20117 15.6032 8.00586 15.6032C8.81055 15.6032 9.56523 15.3858 10.2137 15.0058C10.8621 14.6258 11.4043 14.0831 11.784 13.4341C11.9262 13.1917 12.0449 12.9353 12.1387 12.6678C12.6949 12.9931 13.0684 13.5983 13.0684 14.2896C13.0684 14.3584 13.1246 14.4147 13.1934 14.4147H14.0684C14.1371 14.4147 14.1934 14.3584 14.1934 14.2896C14.1934 13.0494 13.4418 11.9844 12.3699 11.5262C12.3762 11.4261 12.3809 11.3261 12.3809 11.2244V9.7231H14.6934C14.7621 9.7231 14.8184 9.6668 14.8184 9.59799V8.72222C14.8184 8.65341 14.7621 8.59712 14.6934 8.59712ZM11.1934 11.2244C11.1934 11.7999 11.0418 12.3504 10.759 12.8336C10.4824 13.3075 10.0871 13.7031 9.61367 13.9799C9.13086 14.263 8.58086 14.4147 8.00586 14.4147C7.43086 14.4147 6.88086 14.263 6.39805 13.9799C5.92461 13.7031 5.5293 13.3075 5.25273 12.8336C4.96992 12.3504 4.81836 11.7999 4.81836 11.2244V7.03325H11.1934V11.2244Z" fill="url(#paint1_linear_213_6636)"/>
<defs>
<linearGradient id="paint0_linear_213_6636" x1="4.63086" y1="3.27882" x2="11.3808" y2="3.27882" gradientUnits="userSpaceOnUse">
<stop stop-color="#2F69B1"/>
<stop offset="1" stop-color="#53A4FF"/>
</linearGradient>
<linearGradient id="paint1_linear_213_6636" x1="1.19336" y1="10.1688" x2="14.8183" y2="10.1688" gradientUnits="userSpaceOnUse">
<stop stop-color="#2F69B1"/>
<stop offset="1" stop-color="#53A4FF"/>
</linearGradient>
</defs>
</svg>
