<svg width="52" height="52" viewBox="0 0 52 52" fill="none" xmlns="http://www.w3.org/2000/svg">
<path d="M22.75 16.2495H17.875V4.87451H14.625V16.2495H9.75V4.87451H6.5V17.4683C6.5 22.0899 10.0196 25.9379 14.625 26.6815V47.937H17.875V26.6815C22.4804 25.9379 26 22.0899 26 17.4683V4.87451H22.75V16.2495ZM16.25 23.562C13.4254 23.562 11.0171 21.8637 10.1227 19.4995H22.3773C21.4829 21.8637 19.0746 23.562 16.25 23.562ZM42.0029 4.081C38.6784 4.59243 35.6468 6.27698 33.4566 8.82984C31.2665 11.3827 30.0625 14.6352 30.0625 17.9988V34.937H40.625V47.937H43.875V3.79297L42.0029 4.081ZM40.625 31.687H33.3125V17.9988C33.3014 15.7392 34.0017 13.5333 35.3141 11.6939C36.6266 9.8544 38.4846 8.47462 40.625 7.75005V31.687Z" fill="#F8F8F8"/>
</svg>
