<svg width="53" height="52" viewBox="0 0 53 52" fill="none" xmlns="http://www.w3.org/2000/svg">
<path d="M11.069 6.5C10.8535 6.5 10.6468 6.5856 10.4945 6.73798C10.3421 6.89035 10.2565 7.09701 10.2565 7.3125L10.25 34.9375C10.25 35.386 10.614 35.75 11.0625 35.75H16.75V39H11.0625C8.82 39 7 37.18 7 34.9375L7.0065 7.3125C7.0065 5.07 8.8265 3.25 11.069 3.25H25.7038C27.9463 3.25 29.7663 5.07 29.7663 7.31575L29.7598 13.8125C29.7598 14.261 30.1205 14.625 30.5723 14.625H32.1875C33.2368 14.6241 34.2458 15.0293 35.0031 15.7557C35.7603 16.4821 36.2072 17.4733 36.25 18.5217C34.7551 17.6605 32.9795 17.4279 31.3132 17.875H30.5723C30.0385 17.875 29.5099 17.7698 29.0168 17.5654C28.5238 17.3611 28.0758 17.0616 27.6985 16.684C27.3212 16.3064 27.022 15.8582 26.8181 15.3649C26.6141 14.8716 26.5093 14.343 26.5098 13.8092L26.5163 7.3125C26.5163 7.09701 26.4306 6.89035 26.2783 6.73798C26.1259 6.5856 25.9192 6.5 25.7038 6.5H11.069ZM35.2132 21.775C34.6121 21.2167 33.822 20.9064 33.0016 20.9064C32.1812 20.9064 31.3912 21.2167 30.79 21.775L21.56 30.3452C21.0679 30.8017 20.6753 31.3548 20.4069 31.9699C20.1384 32.5851 19.9999 33.2491 20 33.9202V45.5C20 46.362 20.3424 47.1886 20.9519 47.7981C21.5614 48.4076 22.388 48.75 23.25 48.75H28.125C28.987 48.75 29.8136 48.4076 30.4231 47.7981C31.0326 47.1886 31.375 46.362 31.375 45.5V42.25H34.625V45.5C34.625 46.362 34.9674 47.1886 35.5769 47.7981C36.1864 48.4076 37.013 48.75 37.875 48.75H42.75C43.612 48.75 44.4386 48.4076 45.0481 47.7981C45.6576 47.1886 46 46.362 46 45.5V33.917C46.0001 33.2458 45.8616 32.5818 45.5931 31.9667C45.3247 31.3515 44.9321 30.7984 44.44 30.342L35.2132 21.775ZM23.77 32.7275L33 24.154L42.23 32.7275C42.3938 32.8794 42.5245 33.0634 42.6139 33.2681C42.7034 33.4727 42.7497 33.6936 42.75 33.917V45.5H37.875V42.25C37.875 41.388 37.5326 40.5614 36.9231 39.9519C36.3136 39.3424 35.487 39 34.625 39H31.375C30.513 39 29.6864 39.3424 29.0769 39.9519C28.4674 40.5614 28.125 41.388 28.125 42.25V45.5H23.25V33.917C23.2503 33.6936 23.2966 33.4727 23.3861 33.2681C23.4755 33.0634 23.6062 32.8794 23.77 32.7275ZM16.75 11.375C16.75 11.806 16.5788 12.2193 16.274 12.524C15.9693 12.8288 15.556 13 15.125 13C14.694 13 14.2807 12.8288 13.976 12.524C13.6712 12.2193 13.5 11.806 13.5 11.375C13.5 10.944 13.6712 10.5307 13.976 10.226C14.2807 9.92121 14.694 9.75 15.125 9.75C15.556 9.75 15.9693 9.92121 16.274 10.226C16.5788 10.5307 16.75 10.944 16.75 11.375ZM15.125 19.5C15.556 19.5 15.9693 19.3288 16.274 19.024C16.5788 18.7193 16.75 18.306 16.75 17.875C16.75 17.444 16.5788 17.0307 16.274 16.726C15.9693 16.4212 15.556 16.25 15.125 16.25C14.694 16.25 14.2807 16.4212 13.976 16.726C13.6712 17.0307 13.5 17.444 13.5 17.875C13.5 18.306 13.6712 18.7193 13.976 19.024C14.2807 19.3288 14.694 19.5 15.125 19.5ZM16.75 24.375C16.75 24.806 16.5788 25.2193 16.274 25.524C15.9693 25.8288 15.556 26 15.125 26C14.694 26 14.2807 25.8288 13.976 25.524C13.6712 25.2193 13.5 24.806 13.5 24.375C13.5 23.944 13.6712 23.5307 13.976 23.226C14.2807 22.9212 14.694 22.75 15.125 22.75C15.556 22.75 15.9693 22.9212 16.274 23.226C16.5788 23.5307 16.75 23.944 16.75 24.375ZM21.625 13C22.056 13 22.4693 12.8288 22.774 12.524C23.0788 12.2193 23.25 11.806 23.25 11.375C23.25 10.944 23.0788 10.5307 22.774 10.226C22.4693 9.92121 22.056 9.75 21.625 9.75C21.194 9.75 20.7807 9.92121 20.476 10.226C20.1712 10.5307 20 10.944 20 11.375C20 11.806 20.1712 12.2193 20.476 12.524C20.7807 12.8288 21.194 13 21.625 13ZM23.25 17.875C23.25 18.306 23.0788 18.7193 22.774 19.024C22.4693 19.3288 22.056 19.5 21.625 19.5C21.194 19.5 20.7807 19.3288 20.476 19.024C20.1712 18.7193 20 18.306 20 17.875C20 17.444 20.1712 17.0307 20.476 16.726C20.7807 16.4212 21.194 16.25 21.625 16.25C22.056 16.25 22.4693 16.4212 22.774 16.726C23.0788 17.0307 23.25 17.444 23.25 17.875ZM21.625 26C22.056 26 22.4693 25.8288 22.774 25.524C23.0788 25.2193 23.25 24.806 23.25 24.375C23.25 23.944 23.0788 23.5307 22.774 23.226C22.4693 22.9212 22.056 22.75 21.625 22.75C21.194 22.75 20.7807 22.9212 20.476 23.226C20.1712 23.5307 20 23.944 20 24.375C20 24.806 20.1712 25.2193 20.476 25.524C20.7807 25.8288 21.194 26 21.625 26Z" fill="#F8F8F8"/>
</svg>
