<svg width="53" height="52" viewBox="0 0 53 52" fill="none" xmlns="http://www.w3.org/2000/svg">
<g clip-path="url(#clip0_159_7440)">
<path d="M40.668 22.916C41.362 24.1348 41.8783 25.4043 42.2168 26.7246C42.5553 28.0449 42.7331 29.4076 42.75 30.8125V33.4277L26.5 41.5781L10.25 33.4277C10.25 32.4121 10.2585 31.4642 10.2754 30.584C10.2923 29.7038 10.3685 28.849 10.5039 28.0195C10.6393 27.1901 10.8424 26.3607 11.1133 25.5312C11.3841 24.7018 11.7904 23.8301 12.332 22.916L7 20.25V35.1543C7.49089 35.3236 7.93099 35.5605 8.32031 35.8652C8.70964 36.1699 9.05664 36.5254 9.36133 36.9316C9.66602 37.3379 9.88607 37.778 10.0215 38.252C10.1569 38.7259 10.2331 39.2253 10.25 39.75V47.875H0.5V39.75C0.5 39.2422 0.576172 38.7513 0.728516 38.2773C0.880859 37.8034 1.10091 37.3548 1.38867 36.9316C1.67643 36.5085 2.01497 36.153 2.4043 35.8652C2.79362 35.5775 3.24219 35.3405 3.75 35.1543V18.625L0.5 17L26.5 4L52.5 17L40.668 22.916ZM7 39.75C7 39.3099 6.83919 38.929 6.51758 38.6074C6.19596 38.2858 5.8151 38.125 5.375 38.125C4.9349 38.125 4.55404 38.2858 4.23242 38.6074C3.91081 38.929 3.75 39.3099 3.75 39.75V44.625H7V39.75ZM7.76172 17L26.5 26.3691L45.2383 17L26.5 7.63086L7.76172 17ZM39.5 31.4219C39.5 30.1185 39.373 28.9082 39.1191 27.791C38.8652 26.6738 38.4167 25.5312 37.7734 24.3633L26.5 30L15.2266 24.3633C14.668 25.3451 14.2448 26.3776 13.957 27.4609C13.6693 28.5443 13.5169 29.6615 13.5 30.8125V31.4219L26.5 37.9219L39.5 31.4219Z" fill="#F8F8F8"/>
</g>
<defs>
<clipPath id="clip0_159_7440">
<rect width="52" height="52" fill="white" transform="translate(0.5)"/>
</clipPath>
</defs>
</svg>
