<svg width="52" height="52" viewBox="0 0 52 52" fill="none" xmlns="http://www.w3.org/2000/svg">
<path d="M5.30957 12.3508C5.30957 9.83918 7.34797 7.80078 9.85957 7.80078H31.853C34.3646 7.80078 36.403 9.83918 36.403 12.3508V15.6008H38.6936C39.4182 15.6008 40.1286 15.8027 40.7449 16.1839C41.3612 16.5651 41.8591 17.1104 42.1828 17.7588L46.3896 26.1698C46.6606 26.7105 46.8021 27.3069 46.803 27.9118V37.7008C46.803 38.7351 46.3921 39.7271 45.6607 40.4585C44.9293 41.1899 43.9373 41.6008 42.903 41.6008H38.873C38.5746 43.0702 37.7774 44.3912 36.6165 45.3401C35.4556 46.2889 34.0023 46.8073 32.503 46.8073C31.0036 46.8073 29.5504 46.2889 28.3894 45.3401C27.2285 44.3912 26.4313 43.0702 26.133 41.6008H23.273C22.9746 43.0702 22.1774 44.3912 21.0165 45.3401C19.8556 46.2889 18.4023 46.8073 16.903 46.8073C15.4036 46.8073 13.9504 46.2889 12.7894 45.3401C11.6285 44.3912 10.8313 43.0702 10.533 41.6008H9.85957C8.65284 41.6008 7.49552 41.1214 6.64223 40.2681C5.78894 39.4148 5.30957 38.2575 5.30957 37.0508V12.3508ZM26.1304 39.0008C26.3009 38.1642 26.6346 37.3694 27.1124 36.6618C27.5902 35.9542 28.2028 35.3476 28.915 34.8768C29.6273 34.406 30.4254 34.0801 31.2636 33.9178C32.1018 33.7555 32.9638 33.7599 33.8004 33.9308V12.3508C33.8004 11.8336 33.5949 11.3376 33.2292 10.9719C32.8635 10.6062 32.3675 10.4008 31.8504 10.4008H9.86217C9.345 10.4008 8.84901 10.6062 8.48331 10.9719C8.11762 11.3376 7.91217 11.8336 7.91217 12.3508V37.0508C7.91217 38.1272 8.78577 39.0008 9.86217 39.0008H10.5356C10.8339 37.5314 11.6311 36.2104 12.792 35.2615C13.953 34.3126 15.4062 33.7943 16.9056 33.7943C18.4049 33.7943 19.8582 34.3126 21.0191 35.2615C22.18 36.2104 22.9772 37.5314 23.2756 39.0008H26.1356H26.1304ZM36.4004 35.1008C37.6484 36.0368 38.5506 37.4148 38.8704 39.0008H42.9004C43.2452 39.0008 43.5758 38.8638 43.8196 38.62C44.0634 38.3762 44.2004 38.0456 44.2004 37.7008V28.6008H36.4004V35.1008ZM36.4004 26.0008H43.3996L39.8584 18.9184C39.7503 18.7027 39.5844 18.5214 39.3791 18.3946C39.1739 18.2679 38.9374 18.2008 38.6962 18.2008H36.4004V26.0008ZM16.9004 36.4008C15.866 36.4008 14.874 36.8117 14.1427 37.5431C13.4113 38.2745 13.0004 39.2664 13.0004 40.3008C13.0004 41.3351 13.4113 42.3271 14.1427 43.0585C14.874 43.7899 15.866 44.2008 16.9004 44.2008C17.9347 44.2008 18.9267 43.7899 19.6581 43.0585C20.3895 42.3271 20.8004 41.3351 20.8004 40.3008C20.8004 39.2664 20.3895 38.2745 19.6581 37.5431C18.9267 36.8117 17.9347 36.4008 16.9004 36.4008ZM28.6004 40.3008C28.6004 40.8129 28.7012 41.3201 28.8972 41.7932C29.0932 42.2664 29.3805 42.6963 29.7427 43.0585C30.1048 43.4206 30.5347 43.7079 31.0079 43.9039C31.4811 44.0999 31.9882 44.2008 32.5004 44.2008C33.0125 44.2008 33.5197 44.0999 33.9928 43.9039C34.466 43.7079 34.8959 43.4206 35.2581 43.0585C35.6202 42.6963 35.9075 42.2664 36.1035 41.7932C36.2995 41.3201 36.4004 40.8129 36.4004 40.3008C36.4004 39.2664 35.9895 38.2745 35.2581 37.5431C34.5267 36.8117 33.5347 36.4008 32.5004 36.4008C31.466 36.4008 30.474 36.8117 29.7427 37.5431C29.0113 38.2745 28.6004 39.2664 28.6004 40.3008Z" fill="#F8F8F8"/>
</svg>
