<svg width="53" height="52" viewBox="0 0 53 52" fill="none" xmlns="http://www.w3.org/2000/svg">
<path d="M24.6 6.14705C23.7581 5.50799 22.757 5.11883 21.7089 5.02318C20.6608 4.92752 19.6071 5.12916 18.6658 5.60549C17.7245 6.08182 16.9329 6.81402 16.3797 7.72006C15.8264 8.62609 15.5333 9.67015 15.5333 10.7353V14.1764H13.2667C12.6655 14.1764 12.089 14.4181 11.6639 14.8483C11.2388 15.2786 11 15.8621 11 16.4705V34.8233C11 36.6486 11.7164 38.3992 12.9917 39.6899C14.2669 40.9805 15.9965 41.7056 17.8 41.7056H28.068L25.8489 39.4115H17.8C16.5977 39.4115 15.4446 38.9281 14.5945 38.0677C13.7443 37.2072 13.2667 36.0402 13.2667 34.8233V16.4705H26.8667V21.178C27.247 21.0986 27.6343 21.0586 28.0227 21.0587H29.1333V16.4705H35.9334V21.2354C36.763 21.4487 37.5404 21.8502 38.2 22.4145V16.4705C38.2 15.8621 37.9612 15.2786 37.5361 14.8483C37.111 14.4181 36.5345 14.1764 35.9334 14.1764H33.6667V10.7353C33.6667 9.67015 33.3736 8.62609 32.8204 7.72006C32.2671 6.81402 31.4755 6.08182 30.5342 5.60549C29.593 5.12916 28.5392 4.92752 27.4911 5.02318C26.443 5.11883 25.4419 5.50799 24.6 6.14705ZM17.8 10.7353C17.8 9.82261 18.1582 8.94734 18.7958 8.302C19.4335 7.65665 20.2983 7.29411 21.2 7.29411C22.1017 7.29411 22.9665 7.65665 23.6042 8.302C24.2418 8.94734 24.6 9.82261 24.6 10.7353V14.1764H17.8V10.7353ZM26.1119 7.87222C26.6239 7.52615 27.2192 7.3273 27.8342 7.29692C28.4492 7.26653 29.0608 7.40574 29.6038 7.69968C30.1467 7.99363 30.6005 8.43128 30.9169 8.96591C31.2333 9.50054 31.4002 10.1121 31.4 10.7353V14.1764H26.8667V10.7353C26.8667 9.69374 26.5924 8.71645 26.1119 7.87222ZM25.5792 35.8534C24.9519 35.205 24.6004 34.3337 24.6 33.4262V26.8192C24.5997 26.3641 24.688 25.9134 24.8599 25.4929C25.0318 25.0723 25.2838 24.6902 25.6017 24.3682C25.9195 24.0463 26.297 23.791 26.7124 23.6167C27.1278 23.4425 27.573 23.3528 28.0227 23.3528H34.5348C35.4483 23.3528 36.3232 23.7222 36.9647 24.3783L44.0072 31.5818C44.3269 31.9084 44.5792 32.2961 44.7496 32.7223C44.92 33.1486 45.005 33.6048 44.9998 34.0645C44.9945 34.5243 44.899 34.9783 44.7189 35.4004C44.5388 35.8225 44.2776 36.2042 43.9506 36.5233L37.2707 43.0316C36.6213 43.665 35.7508 44.013 34.849 43.9996C33.9472 43.9863 33.0872 43.6128 32.4563 42.9605L25.5792 35.8534ZM29.1333 29.6616C29.1333 30.1179 29.3125 30.5556 29.6313 30.8782C29.9501 31.2009 30.3825 31.3822 30.8333 31.3822C31.2842 31.3822 31.7166 31.2009 32.0354 30.8782C32.3542 30.5556 32.5334 30.1179 32.5334 29.6616C32.5334 29.2053 32.3542 28.7676 32.0354 28.445C31.7166 28.1223 31.2842 27.941 30.8333 27.941C30.3825 27.941 29.9501 28.1223 29.6313 28.445C29.3125 28.7676 29.1333 29.2053 29.1333 29.6616Z" fill="#F8F8F8"/>
</svg>
