<svg width="53" height="52" viewBox="0 0 53 52" fill="none" xmlns="http://www.w3.org/2000/svg">
<path d="M21.352 5.6875C18.5594 5.6875 16.2739 7.97306 16.2739 10.7656C16.2739 13.5582 18.5594 15.8438 21.352 15.8438C21.8866 15.8438 22.4026 15.7592 22.8876 15.6041L25.5591 21.2822C22.2583 23.3618 20.5354 27.4259 21.5966 31.3857C21.7826 32.0783 22.0497 32.7466 22.3924 33.3767L15.1815 38.0096L15.1807 38.0092C14.2471 36.8794 12.8366 36.1562 11.2656 36.1562C8.47306 36.1562 6.1875 38.4418 6.1875 41.2344C6.1875 44.0269 8.47306 46.3125 11.2656 46.3125C14.0582 46.3125 16.3438 44.0269 16.3438 41.2344C16.3438 40.5937 16.2186 39.9815 15.9993 39.4156L23.2922 34.7303C25.4933 37.4713 29.1845 38.8152 32.7912 37.8487C37.6581 36.5446 40.5587 31.5205 39.2546 26.6537C38.8563 25.1612 38.0837 23.7951 37.0101 22.6846L41.0226 17.4813C41.5619 17.7396 42.1521 17.8741 42.75 17.875C44.9815 17.875 46.8125 16.044 46.8125 13.8125C46.8125 11.581 44.9815 9.75 42.75 9.75C40.5185 9.75 38.6875 11.581 38.6875 13.8125C38.6875 14.844 39.0816 15.7865 39.723 16.5055L35.7796 21.6186C33.6264 20.0643 30.818 19.4513 28.06 20.1902C27.6976 20.2877 27.3474 20.4076 27.0078 20.5441L24.3347 14.8622C25.6006 13.936 26.4301 12.4451 26.4301 10.7656C26.4301 7.97306 24.1446 5.6875 21.352 5.6875ZM21.352 7.71875C23.0469 7.71875 24.3989 9.07075 24.3989 10.7656C24.3989 12.4605 23.0469 13.8125 21.352 13.8125C20.9513 13.8145 20.5542 13.7371 20.1836 13.5847C19.813 13.4323 19.4763 13.208 19.193 12.9247C18.9096 12.6413 18.6853 12.3046 18.5329 11.934C18.3805 11.5634 18.3031 11.1663 18.3051 10.7656C18.3051 9.07075 19.6571 7.71875 21.352 7.71875ZM42.75 11.7812C43.8838 11.7812 44.7812 12.6787 44.7812 13.8125C44.7812 14.9463 43.8838 15.8438 42.75 15.8438C41.6162 15.8438 40.7188 14.9463 40.7188 13.8125C40.7188 12.6787 41.6162 11.7812 42.75 11.7812ZM30.7465 20.8995C34.2013 21.0364 37.3176 23.3874 38.2678 26.8966C38.2702 26.9033 38.2722 26.91 38.2739 26.9169C38.276 26.9249 38.2776 26.9331 38.2788 26.9413C39.424 31.265 36.8525 35.7094 32.5287 36.8676C28.1969 38.0283 23.7387 35.4547 22.5781 31.1232C21.4174 26.7914 23.9918 22.332 28.3232 21.1713C29.1127 20.959 29.9297 20.8676 30.7465 20.8995ZM30.5658 21.3838C30.3095 21.3793 30.0533 21.388 29.7979 21.4098C29.9442 21.4256 30.0474 21.4707 29.8532 21.5495L29.6777 21.5386C29.5221 21.4971 29.4729 21.465 29.4819 21.4423C29.1382 21.4857 28.7933 21.5512 28.4496 21.643L28.3948 21.6592C28.546 21.6319 28.6985 21.6122 28.8518 21.6003C28.955 21.9436 29.2052 22.5688 28.5231 22.7268C27.9755 22.9072 27.7866 24.312 27.2292 23.4841C27.1402 23.0063 27.6923 21.8485 26.812 22.4518C26.6848 22.8061 26.8876 23.3468 26.4866 23.3842C26.4821 23.9127 26.0202 23.7222 25.8866 23.5292C25.7314 23.6864 26.1262 23.8778 25.9597 24.0805C26.4488 23.5198 26.1433 24.5696 26.5467 24.7106C26.305 25.1107 27.1021 25.7546 26.3602 25.7367C25.7001 25.8054 26.6381 24.8048 25.9516 25.3463C25.4937 25.586 25.5941 25.8578 25.9788 25.8334C25.7338 26.2283 25.3215 26.3567 25.0899 26.2706C24.6648 26.7324 24.3054 27.2506 24.0219 27.8107C23.4283 28 23.8907 29.1822 23.5681 29.1358C23.4365 28.771 23.4023 28.134 23.042 28.3242C22.9368 28.3181 22.8604 28.3835 22.8064 28.4891C22.7793 28.8812 22.7828 29.2748 22.8169 29.6664C22.8405 29.7221 22.8677 29.768 22.8978 29.7984C23.248 29.0294 23.0542 30.2433 23.2366 30.4212C23.6636 30.8015 23.382 31.7606 24.1425 31.7273C24.2648 31.1663 24.6211 31.5494 24.6617 31.475C24.8843 31.371 25.2061 31.904 25.605 31.7135C26.0775 31.5323 26.0925 32.5528 26.784 32.4813C27.657 32.4988 27.8646 33.6066 28.7925 33.5022C29.4023 33.6696 30.9163 33.4088 30.6807 34.3813C30.0661 34.851 30.8461 35.9905 29.7626 36.0173C29.5558 36.142 29.5197 36.3943 29.3937 36.5901C30.3708 36.7234 31.3896 36.6689 32.4024 36.3976C34.3456 35.8801 36.005 34.6147 37.0182 32.8778C37.0597 32.4151 37.0154 31.9239 37.2092 31.4937C37.2234 30.8096 36.4519 30.5309 36.6672 29.8435C36.3544 29.9691 35.6776 29.7363 35.4607 30.3587C35.0528 30.4736 34.7826 31.0493 34.337 30.9059C33.7516 30.7413 33.078 30.5463 32.7709 29.9719C32.7042 29.4779 32.3931 28.9051 32.3199 28.4501C32.3407 27.6234 32.8261 26.9998 32.7493 26.2088C32.7892 26.1491 33.1377 25.6868 33.1523 25.6677C33.652 25.3845 34.1513 24.3267 34.7034 25.105C34.8342 25.155 35.6646 25.3272 35.5208 25.0543C35.4168 24.5952 36.6948 24.5168 35.9136 24.0894C35.8389 24.0687 35.5744 24.063 35.4241 24.152C35.3615 24.1857 35.1592 24.5814 34.7985 24.2194C34.3268 23.9688 35.0312 25.1684 34.3447 24.635C34.82 24.3218 33.4733 24.0325 33.847 24.31C34.4426 24.8962 33.557 24.6443 33.5667 24.128C32.885 24.2239 33.5371 25.378 32.9687 25.7347C32.9728 25.7343 32.9768 25.7319 32.9813 25.7315L32.8773 25.7741L32.7148 25.8347C32.5202 25.7197 32.0697 25.8192 32.0811 25.3329C31.6695 24.9218 31.8983 24.6618 32.4077 24.5745C32.8233 24.1195 31.1755 24.1479 32.1229 23.7144C31.6963 23.8587 31.5188 23.9241 31.3189 23.4033C31.5667 24.0492 30.5966 23.8652 30.9509 23.3464C31.0947 23.1814 30.4516 23.0953 30.9159 22.8832C31.2369 22.7784 32.2314 23.9261 32.1371 23.1034C32.339 22.9734 31.7979 22.6647 31.8942 22.6147C31.3673 22.9527 30.9285 21.9867 30.8225 21.6093C30.9959 21.5716 31.1642 21.5134 31.3238 21.4358C31.0723 21.4059 30.8194 21.3887 30.5662 21.3842L30.5658 21.3838ZM31.6472 21.8445C31.6286 21.8421 31.6097 21.8432 31.5915 21.8477C31.5184 21.8737 31.8133 22.0045 31.6472 21.8445ZM31.6703 22.0732C31.5383 22.0959 32.2736 22.3657 31.9242 22.1065C31.7772 22.076 31.7008 22.0679 31.6703 22.0732ZM32.2931 22.2889C32.2281 22.3068 32.2525 22.3734 32.4938 22.4937C32.621 22.7398 32.519 22.9019 32.7477 22.5883C32.7538 22.3669 32.4012 22.2597 32.2931 22.2889ZM29.5152 22.5542C29.7683 22.5587 29.9568 22.6728 29.4705 22.8698C29.3616 22.8983 29.2373 22.9117 29.1341 22.8548C29.0362 22.7175 29.124 22.6302 29.2629 22.5867C29.3393 22.5623 29.4311 22.5526 29.5152 22.5542ZM30.9492 22.6476C30.9809 22.6476 31.1544 22.8483 30.9822 22.7333C30.9436 22.67 30.9387 22.6476 30.9492 22.6476ZM30.4443 22.661C30.4768 22.635 30.6003 22.8247 30.4402 22.7199C30.4337 22.6846 30.4366 22.6671 30.4443 22.661ZM34.4934 22.9808C34.3772 23.0271 34.978 23.7295 34.9719 23.3383C35.4391 23.1323 34.766 22.867 34.705 23.0754C34.5856 22.9946 34.5202 22.9702 34.4934 22.9808ZM26.0836 23.1197C26.0755 23.1156 26.0645 23.1156 26.0495 23.1213C26.0088 23.1376 25.9414 23.1948 25.8431 23.3151C25.7078 23.4215 25.5112 23.907 25.7891 23.5125C26.0133 23.4106 26.1368 23.151 26.0836 23.1197ZM25.2971 23.6307C25.2321 23.6429 25.1468 23.6966 25.0359 23.8083C24.6178 23.9594 24.847 24.9072 24.8441 24.8471C24.9481 24.7288 24.9912 24.4404 25.159 24.4116C25.4563 24.2978 25.5774 23.5767 25.2971 23.6307ZM33.7857 23.8038C33.78 23.804 33.7745 23.8054 33.7694 23.8079C33.7471 23.8217 33.8206 23.8688 34.0664 23.9671C34.1338 23.9257 34.5864 24.1662 34.4511 23.9996C34.2764 23.8997 33.8775 23.7949 33.7857 23.8038ZM34.9232 23.8782C34.8874 23.9066 35.1462 24.1227 35.0804 23.9346C34.9801 23.8806 34.9354 23.8688 34.9232 23.8782ZM35.4899 24.2942C35.587 24.3181 35.6829 24.5233 35.3916 24.4692C35.3888 24.36 35.4152 24.3108 35.4493 24.2966C35.4622 24.2914 35.4765 24.2905 35.4899 24.2942ZM33.4079 24.674C33.5013 24.6326 33.5635 25.0973 33.3144 24.9263C33.3421 24.7577 33.3766 24.6874 33.4079 24.674ZM25.5486 25.3167C25.4905 25.3317 25.5811 25.4548 25.6623 25.3508C25.6038 25.3195 25.5681 25.3118 25.5486 25.3167ZM24.0418 25.5223C23.9467 25.5361 24.1409 25.9362 24.1596 25.5881C24.1007 25.5365 24.0637 25.519 24.0418 25.5223ZM24.1567 25.9086C24.0897 25.9439 24.1641 26.3932 24.1949 25.9232C24.1787 25.907 24.1665 25.9037 24.1567 25.9086ZM29.8308 26.2689C29.9487 26.2486 29.9771 26.44 29.6919 26.3778C29.7427 26.3063 29.7918 26.2758 29.8308 26.2689ZM30.2087 26.2945C30.2603 26.2994 30.2127 26.4924 30.1221 26.3705C30.1628 26.312 30.1912 26.2925 30.2087 26.2945ZM24.0966 26.4042C24.015 26.4091 23.9341 26.7138 24.1494 26.4587C24.1344 26.4172 24.1153 26.403 24.0966 26.4042ZM31.6898 26.7568C31.7353 26.7792 31.7451 26.9494 31.6232 26.8324C31.6387 26.7877 31.6545 26.7654 31.6687 26.7577C31.6719 26.7558 31.6755 26.7547 31.6792 26.7546C31.6829 26.7545 31.6865 26.7552 31.6898 26.7568ZM32.3256 27.2021C32.3967 27.183 32.5308 27.4556 32.3065 27.4617C32.274 27.2797 32.2931 27.2106 32.3256 27.2021ZM31.9986 27.4617C32.1753 27.4597 32.3163 27.5247 31.9702 27.6299L31.8138 27.6717L31.7829 27.6664C31.6878 27.5746 31.7366 27.5169 31.8276 27.4869C31.8771 27.4706 31.9397 27.4625 31.9986 27.4617ZM23.8127 28.9352C23.8553 28.923 24.0369 29.2183 23.8346 29.0773C23.7988 28.977 23.798 28.9392 23.8127 28.9352ZM23.7964 29.2167C23.8419 29.2126 23.9305 29.629 23.7769 29.4007C23.7716 29.2667 23.7814 29.2179 23.7964 29.2167ZM23.3938 29.4665C23.4385 29.4596 23.5035 29.4592 23.5945 29.4673C23.8663 29.8614 24.3274 29.8894 24.2591 30.1133C24.5963 30.1531 25.1955 30.6117 24.4078 30.5455C23.8789 30.4813 24.4757 30.1364 23.8703 30.1352C23.785 29.9041 23.0806 29.5169 23.3938 29.4665ZM24.0532 29.5559C24.0865 29.5559 24.1588 29.6282 24.1576 29.7403L24.1157 29.7269C24.0402 29.6274 24.0276 29.5762 24.041 29.5612C24.0425 29.5596 24.0444 29.5583 24.0465 29.5574C24.0486 29.5566 24.0509 29.5562 24.0532 29.5563V29.5559ZM31.7073 29.8171C31.7853 29.7952 31.8198 30.0397 31.6488 29.8833C31.6691 29.8415 31.6894 29.8224 31.7073 29.8171ZM31.26 29.8334C31.3486 29.8196 31.6691 29.924 31.364 29.9443C31.2279 29.8699 31.2198 29.8395 31.26 29.8334ZM31.7288 30.0365C31.7971 30.0507 31.7532 30.2396 31.5907 30.1372C31.6326 30.0832 31.6667 30.0544 31.6931 30.0426C31.7041 30.0369 31.7166 30.0347 31.7288 30.0365ZM31.4981 30.1267C31.5432 30.1198 31.5753 30.3404 31.4534 30.2307C31.4664 30.1572 31.4827 30.1291 31.4981 30.1267ZM23.7728 30.2583C23.8687 30.253 24.21 30.4744 23.8801 30.4505C23.7363 30.3099 23.7294 30.2607 23.7728 30.2583ZM36.4771 30.3599C36.5222 30.353 36.5535 30.5728 36.4316 30.4631C36.4446 30.3895 36.4617 30.3623 36.4771 30.3599ZM24.9721 30.4196C25.0846 30.4395 25.2219 30.6361 24.886 30.5935C24.8673 30.487 24.89 30.4383 24.9266 30.4237C24.9409 30.4181 24.957 30.4166 24.9721 30.4196ZM22.9368 30.5077C22.9693 30.6707 23.0046 30.8344 23.0485 30.9973C23.5591 32.9126 24.7968 34.5532 26.4984 35.57C25.9365 35.0651 25.2358 34.725 24.7885 34.0925C24.0572 33.542 24.2993 32.6755 23.9959 31.9788C23.861 31.603 23.9309 32.2428 23.6721 31.7891C23.3711 31.4425 23.1627 30.9331 22.9368 30.5077ZM25.631 30.8482C25.6818 30.8539 25.9089 31.5343 25.6985 31.2398L25.6615 31.1281C25.6164 30.9189 25.6144 30.8466 25.631 30.8482ZM11.2656 38.1875C12.9605 38.1875 14.3125 39.5395 14.3125 41.2344C14.3125 42.9292 12.9605 44.2812 11.2656 44.2812C10.8649 44.2833 10.4678 44.2059 10.0972 44.0535C9.72663 43.9011 9.38993 43.6767 9.1066 43.3934C8.82326 43.1101 8.59891 42.7734 8.44651 42.4028C8.29412 42.0322 8.2167 41.6351 8.21875 41.2344C8.21875 39.5395 9.57075 38.1875 11.2656 38.1875Z" fill="#F8F8F8"/>
</svg>
