<svg width="45" height="41" viewBox="0 0 45 41" fill="none" xmlns="http://www.w3.org/2000/svg">
<path d="M42.0107 23.7548C42.0107 20.1022 41.9458 19.9773 41.0908 17.2538C40.2357 14.5302 38.8085 12.0212 36.9049 9.89516C35.0013 7.7691 32.6653 6.07517 30.0538 4.92706C28.0676 4.05387 25.957 3.51175 23.8053 3.31771M2.01075 23.7548C2.01075 21.7531 2.00041 20.4714 2.78796 17.7275C3.57551 14.9836 4.94035 12.4401 6.79089 10.2676C8.64143 8.0951 10.9349 6.34392 13.5172 5.13157C15.4161 4.2401 18.439 3.49755 20.5107 3.23633" stroke="white"/>
<rect x="0.510742" y="23.7539" width="3" height="3.00349" stroke="white"/>
<rect x="40.5107" y="23.7539" width="3" height="3.00349" stroke="white"/>
<path d="M5.01074 2.73633H20.5107M39.0107 2.73633H23.5107" stroke="white"/>
<path d="M42.5107 2.73655C42.5107 3.84274 41.6149 4.73873 40.5107 4.73873C39.4066 4.73873 38.5107 3.84274 38.5107 2.73655C38.5107 1.63037 39.4066 0.734375 40.5107 0.734375C41.6149 0.734375 42.5107 1.63037 42.5107 2.73655Z" stroke="white"/>
<path d="M5.51074 2.73655C5.51074 3.84274 4.6149 4.73873 3.51074 4.73873C2.40658 4.73873 1.51074 3.84274 1.51074 2.73655C1.51074 1.63037 2.40658 0.734375 3.51074 0.734375C4.6149 0.734375 5.51074 1.63037 5.51074 2.73655Z" stroke="white"/>
<rect x="20.5107" y="1.73633" width="3" height="3.00349" stroke="white"/>
<path d="M3.67871 30.2559C5.39579 34.196 8.33453 37.4783 12.0601 39.617" stroke="white" stroke-dasharray="4 1"/>
<path d="M40.3926 30.2598C38.6755 34.1999 35.7368 37.4822 32.0112 39.6209" stroke="white" stroke-dasharray="4 1"/>
<path d="M15.2088 26.8245L21.6304 12.6847C21.9807 11.9133 23.0715 11.8998 23.4409 12.6622L30.2909 26.8027C30.4297 27.0893 30.4238 27.4248 30.2749 27.7062L26.788 34.2984C26.4357 34.9644 26.9185 35.7659 27.6719 35.7659H28.0117C28.564 35.7659 29.0117 36.2137 29.0117 36.7659V39.2699C29.0117 39.8221 28.564 40.2699 28.0117 40.2699H16.5117C15.9594 40.2699 15.5117 39.8221 15.5117 39.2699V36.2655C15.5117 35.7132 15.9594 35.2655 16.5117 35.2655H17.3943C18.1375 35.2655 18.621 34.4835 18.2889 33.8186L15.2247 27.6849C15.09 27.4152 15.0841 27.0991 15.2088 26.8245Z" stroke="url(#paint0_linear_213_6618)"/>
<path d="M22.5117 12.2461V22.2548" stroke="url(#paint1_linear_213_6618)"/>
<path d="M24.5117 23.7561C24.5117 24.8623 23.6159 25.7583 22.5117 25.7583C21.4076 25.7583 20.5117 24.8623 20.5117 23.7561C20.5117 22.6499 21.4076 21.7539 22.5117 21.7539C23.6159 21.7539 24.5117 22.6499 24.5117 23.7561Z" stroke="url(#paint2_linear_213_6618)"/>
<defs>
<linearGradient id="paint0_linear_213_6618" x1="15.0117" y1="25.507" x2="30.5116" y2="25.507" gradientUnits="userSpaceOnUse">
<stop stop-color="#2F69B1"/>
<stop offset="1" stop-color="#53A4FF"/>
</linearGradient>
<linearGradient id="paint1_linear_213_6618" x1="22.5117" y1="17.2505" x2="23.5117" y2="17.2505" gradientUnits="userSpaceOnUse">
<stop stop-color="#2F69B1"/>
<stop offset="1" stop-color="#53A4FF"/>
</linearGradient>
<linearGradient id="paint2_linear_213_6618" x1="20.0117" y1="23.7561" x2="25.0117" y2="23.7561" gradientUnits="userSpaceOnUse">
<stop stop-color="#2F69B1"/>
<stop offset="1" stop-color="#53A4FF"/>
</linearGradient>
</defs>
</svg>
