<svg width="52" height="42" viewBox="0 0 52 42" fill="none" xmlns="http://www.w3.org/2000/svg">
<path d="M39.363 38.0271C39.0869 38.0271 38.863 38.251 38.863 38.5271C38.863 38.8033 39.0869 39.0271 39.363 39.0271V38.0271ZM9.22601 38.0271C8.94987 38.0271 8.72601 38.251 8.72601 38.5271C8.72601 38.8033 8.94987 39.0271 9.22601 39.0271V38.0271ZM25.6644 22.0783L25.1838 21.9404L25.6644 22.0783ZM30.5959 13.3035L30.5952 12.8035L30.5959 13.3035ZM38.6206 13.6571C38.8159 13.4618 38.8159 13.1453 38.6207 12.95L35.4389 9.76785C35.2436 9.57258 34.927 9.57257 34.7317 9.76782C34.5365 9.96307 34.5365 10.2797 34.7317 10.4749L37.56 13.3035L34.7314 16.1318C34.5362 16.327 34.5362 16.6436 34.7314 16.8389C34.9267 17.0342 35.2432 17.0342 35.4385 16.8389L38.6206 13.6571ZM0.506836 3.23612V39.2675H1.50684V3.23612H0.506836ZM3.00684 41.7692H19.2808V40.7692H3.00684V41.7692ZM19.2808 0.734375H3.00684V1.73438H19.2808V0.734375ZM21.7808 24.8166V3.23612H20.7808V24.8166H21.7808ZM21.7808 39.2675V31.2605H20.7808V39.2675H21.7808ZM31.6438 12.2028V3.23612H30.6438V12.2028H31.6438ZM33.1438 1.73438H49.4178V0.734375H33.1438V1.73438ZM50.9178 3.23612V39.2675H51.9178V3.23612H50.9178ZM49.4178 40.7692H33.1438V41.7692H49.4178V40.7692ZM31.6438 39.2675V16.5902H30.6438V39.2675H31.6438ZM33.1438 40.7692C32.3158 40.7692 31.6438 40.0973 31.6438 39.2675H30.6438C30.6438 40.6488 31.7627 41.7692 33.1438 41.7692V40.7692ZM50.9178 39.2675C50.9178 40.0973 50.2458 40.7692 49.4178 40.7692V41.7692C50.7989 41.7692 51.9178 40.6488 51.9178 39.2675H50.9178ZM49.4178 1.73438C50.2458 1.73438 50.9178 2.40632 50.9178 3.23612H51.9178C51.9178 1.85486 50.7989 0.734375 49.4178 0.734375V1.73438ZM19.2808 1.73438C20.1088 1.73438 20.7808 2.40632 20.7808 3.23612H21.7808C21.7808 1.85485 20.6619 0.734375 19.2808 0.734375V1.73438ZM31.6438 3.23612C31.6438 2.40632 32.3158 1.73438 33.1438 1.73438V0.734375C31.7627 0.734375 30.6438 1.85486 30.6438 3.23612H31.6438ZM19.2808 41.7692C20.6619 41.7692 21.7808 40.6488 21.7808 39.2675H20.7808C20.7808 40.0973 20.1088 40.7692 19.2808 40.7692V41.7692ZM0.506836 39.2675C0.506836 40.6488 1.62571 41.7692 3.00684 41.7692V40.7692C2.17882 40.7692 1.50684 40.0973 1.50684 39.2675H0.506836ZM1.50684 3.23612C1.50684 2.40632 2.17882 1.73438 3.00684 1.73438V0.734375C1.62571 0.734375 0.506836 1.85486 0.506836 3.23612H1.50684ZM31.1438 35.7366H51.4178V34.7366H31.1438V35.7366ZM39.363 39.0271H43.1986V38.0271H39.363V39.0271ZM1.00684 35.7366H21.2808V34.7366H1.00684V35.7366ZM9.22601 39.0271H12.5137V38.0271H9.22601V39.0271ZM17.4931 27.5587C17.4931 29.1003 16.2446 30.3492 14.7055 30.3492V31.3492C16.7977 31.3492 18.4931 29.6517 18.4931 27.5587H17.4931ZM14.7055 30.3492C13.1663 30.3492 11.9178 29.1003 11.9178 27.5587H10.9178C10.9178 29.6517 12.6132 31.3492 14.7055 31.3492V30.3492ZM11.9178 27.5587C11.9178 26.0171 13.1663 24.7681 14.7055 24.7681V23.7681C12.6132 23.7681 10.9178 25.4656 10.9178 27.5587H11.9178ZM14.7055 24.7681C16.2446 24.7681 17.4931 26.0171 17.4931 27.5587H18.4931C18.4931 25.4656 16.7977 23.7681 14.7055 23.7681V24.7681ZM17.9943 28.0587C18.9135 28.0565 20.6227 27.6706 22.2507 26.7737C23.887 25.8721 25.5146 24.4129 26.145 22.2162L25.1838 21.9404C24.652 23.7936 23.2659 25.0726 21.7681 25.8978C20.262 26.7276 18.7166 27.057 17.992 27.0587L17.9943 28.0587ZM26.145 22.2162C26.4227 21.2484 26.6255 20.2042 26.8297 19.2148C27.0363 18.2134 27.2448 17.2663 27.5353 16.442C27.8262 15.6162 28.1845 14.9592 28.6629 14.5099C29.1264 14.0745 29.7334 13.8047 30.5966 13.8035L30.5952 12.8035C29.4942 12.805 28.6382 13.1611 27.9783 13.781C27.3332 14.387 26.9074 15.2148 26.5921 16.1097C26.2762 17.006 26.0561 18.0154 25.8503 19.0127C25.642 20.022 25.4482 21.0187 25.1838 21.9404L26.145 22.2162ZM30.5966 13.8035C33.3359 13.7998 34.9784 13.8034 38.2671 13.8035L38.2671 12.8035C34.9804 12.8034 33.3353 12.7998 30.5952 12.8035L30.5966 13.8035Z" fill="white"/>
<ellipse cx="13.5068" cy="27.7567" rx="5.5" ry="5.5048" fill="#121212"/>
<path d="M18.5068 27.2565C18.5068 28.6391 17.3871 29.7591 16.0068 29.7591C14.6265 29.7591 13.5068 28.6391 13.5068 27.2565C13.5068 25.874 14.6265 24.7539 16.0068 24.7539C17.3871 24.7539 18.5068 25.874 18.5068 27.2565Z" stroke="url(#paint0_linear_213_6614)"/>
<defs>
<linearGradient id="paint0_linear_213_6614" x1="13.0068" y1="27.2565" x2="19.0068" y2="27.2565" gradientUnits="userSpaceOnUse">
<stop stop-color="#2F69B1"/>
<stop offset="1" stop-color="#53A4FF"/>
</linearGradient>
</defs>
</svg>
