<svg width="255" height="296" viewBox="0 0 255 296" fill="none" xmlns="http://www.w3.org/2000/svg">
<path d="M4 248.97C24.0688 269.039 49.6381 282.706 77.4744 288.243C105.311 293.78 134.164 290.938 160.385 280.077C186.606 269.216 209.018 250.823 224.786 227.224C240.554 203.626 248.97 175.882 248.97 147.5C248.97 119.118 240.554 91.3742 224.786 67.7757C209.018 44.1773 186.606 25.7845 160.385 14.9234C134.164 4.06218 105.311 1.2204 77.4744 6.75738C49.6381 12.2944 24.0688 25.9614 4 46.0302" stroke="white" stroke-opacity="0.41" stroke-width="2"/>
<path d="M224.786 67.7757C209.018 44.1773 186.606 25.7845 160.385 14.9234C134.164 4.06218 105.311 1.2204 77.4744 6.75738C49.6381 12.2944 24.0688 25.9614 4 46.0302" stroke="white" stroke-width="2"/>
<circle cx="6" cy="46" r="6" fill="url(#paint0_linear_215_7818)"/>
<circle cx="129" cy="6" r="6" fill="url(#paint1_linear_215_7818)"/>
<circle cx="222" cy="65" r="6" fill="url(#paint2_linear_215_7818)"/>
<circle cx="249" cy="146" r="6" fill="white" fill-opacity="0.4"/>
<circle cx="212" cy="244" r="6" fill="white" fill-opacity="0.4"/>
<circle cx="107" cy="290" r="6" fill="white" fill-opacity="0.4"/>
<circle cx="8" cy="253" r="6" fill="white" fill-opacity="0.4"/>
<defs>
<linearGradient id="paint0_linear_215_7818" x1="0" y1="46" x2="11.9999" y2="46" gradientUnits="userSpaceOnUse">
<stop stop-color="#2F69B1"/>
<stop offset="1" stop-color="#53A4FF"/>
</linearGradient>
<linearGradient id="paint1_linear_215_7818" x1="123" y1="6.00001" x2="135" y2="6.00001" gradientUnits="userSpaceOnUse">
<stop stop-color="#2F69B1"/>
<stop offset="1" stop-color="#53A4FF"/>
</linearGradient>
<linearGradient id="paint2_linear_215_7818" x1="216" y1="65" x2="228" y2="65" gradientUnits="userSpaceOnUse">
<stop stop-color="#2F69B1"/>
<stop offset="1" stop-color="#53A4FF"/>
</linearGradient>
</defs>
</svg>
