<svg width="42" height="42" viewBox="0 0 42 42" fill="none" xmlns="http://www.w3.org/2000/svg">
<path d="M16.4248 13.5433L21.7393 5.56445V11.4156L24.3966 10.8837L18.0192 19.3945L19.6135 13.5433H16.4248Z" stroke="url(#paint0_linear_213_6603)" stroke-width="1.06291"/>
<path d="M27.0537 13.0113H31.8368L33.4311 8.75586L35.0255 17.2667L37.1513 9.81971L38.2142 13.0113H41.4029" stroke="white" stroke-width="1.06291"/>
<path d="M15.3613 12.48H10.5783L8.98391 8.22461L7.38956 16.7354L5.26376 9.28846L4.20085 12.48H1.01215" stroke="white" stroke-width="1.06291"/>
<path d="M15.361 21.5163V18.3248C15.361 18.3248 8.98285 10.3398 13.2352 5.02661C17.4876 -0.2866 23.3326 0.23386 27.5844 5.02661C31.8362 9.81937 26.5215 16.7309 26.5215 18.3248C26.5215 19.9186 26.5215 21.5163 26.5215 21.5163" stroke="white" stroke-width="1.06291"/>
<path d="M15.3613 22.0534H26.5218V25.245H15.3613V21.5215" stroke="white" stroke-width="1.06291"/>
<path d="M18.0186 25.2461C18.0186 25.2461 18.0186 28.4376 21.2073 28.4376C24.396 28.4376 23.8645 25.2461 23.8645 25.2461" stroke="white" stroke-width="1.06291"/>
<path d="M13.7671 16.7344C8.95012 17.221 7.65367 18.4179 7.38965 22.0536C11.7837 21.9259 12.3135 23.8559 12.7042 27.9048" stroke="white" stroke-width="1.06291"/>
<path d="M7.38924 22.0488C2.96242 22.6946 0.8379 24.5229 1.01182 27.9C1.16292 30.8339 2.45825 32.8241 6.32634 33.2193C6.32634 33.2193 5.78501 37.404 8.44227 38.4679C11.0995 39.5317 14.6382 37.952 14.8296 37.4747C15.9548 33.3965 17.3611 32.6034 20.6755 32.6873" stroke="white" stroke-width="1.06291"/>
<path d="M14.8301 36.949C16.4994 39.7689 18.2478 41.6515 21.2075 41.2044C23.8195 40.8098 24.7446 39.2677 25.9906 36.4171C27.7768 38.6609 29.3118 40.2325 31.8365 39.6086C34.2961 39.0008 35.8547 37.0295 35.5567 34.2894C31.3427 32.4977 29.7673 31.1908 29.7107 27.9062" stroke="white" stroke-width="1.06291"/>
<path d="M28.1162 17.262C29.7613 16.4631 30.7968 16.6316 32.8993 18.3258C33.812 19.667 34.1927 20.4936 33.9622 22.5812C37.5151 22.8789 39.9121 24.2821 40.3396 27.3685C40.8036 30.7181 38.6525 33.036 34.4936 33.7516" stroke="white" stroke-width="1.06291"/>
<defs>
<linearGradient id="paint0_linear_213_6603" x1="16.4248" y1="12.4795" x2="24.3965" y2="12.4795" gradientUnits="userSpaceOnUse">
<stop stop-color="#2F69B1"/>
<stop offset="1" stop-color="#53A4FF"/>
</linearGradient>
</defs>
</svg>
