<svg width="1017" height="714" viewBox="0 0 1017 714" fill="none" xmlns="http://www.w3.org/2000/svg">
<path d="M327.5 375.5L287 398.5H257.5L168.5 347.5" stroke="#363636"/>
<path d="M625.5 613.5L519.5 553H356.5L85.5 396.5L52 414L326.5 574V670.5L391.5 708" stroke="#363636"/>
<path d="M11.5 708.5L180.5 611.5V529L16.5 435.5L184 338L133 308.5L4 234.5" stroke="#363636"/>
<path d="M108.5 651H43L1 675" stroke="#363636"/>
<path d="M28.5 633.5L3.5 618.5" stroke="#363636"/>
<path d="M36.5 577.5L4 557" stroke="#363636"/>
<path d="M127.5 587V542.5L46.5 496V452.5" stroke="#363636"/>
<path d="M402 412L311.5 465H252.5L171.5 418.5H124.5" stroke="#363636"/>
<path d="M133.5 308.5L328 195.5H500L588 145.5" stroke="#363636"/>
<path d="M109.5 295L316 176H466.299L647 71H899.5L1010.5 135" stroke="#363636"/>
<path d="M714.5 322L530 214H296" stroke="#363636"/>
<path d="M530 304.5L468 340H365.5L222.5 256.5" stroke="#363636"/>
<path d="M353.5 305L303 274H252.5" stroke="#363636"/>
<path d="M222.5 311L194.5 294H158" stroke="#363636"/>
<path d="M611.5 49L533 95.5V137" stroke="#363636"/>
<path d="M484.5 2.5V48L83 279.5" stroke="#363636"/>
<path d="M51 261.5L258 142V41L194 4" stroke="#363636"/>
<path d="M237 28.5L278.5 4" stroke="#363636"/>
<path d="M21.5 244.5L171.5 158" stroke="#363636"/>
<path d="M225.5 126H169.5L2.5 222.5" stroke="#363636"/>
<path d="M81.5 111L21.5 147H2" stroke="#363636"/>
<path d="M74 83.5L2 126.5" stroke="#363636"/>
<path d="M81.5 31.5L17.5 68.5V99.5L1.5 108" stroke="#363636"/>
<path d="M258 120L295 99.5V50.5L367.5 8" stroke="#363636"/>
<path d="M254 434L191.5 396.5L192.5 361" stroke="#363636"/>
<path d="M1003.5 135C1003.5 134.152 1004.11 133.287 1005.3 132.606C1006.48 131.932 1008.14 131.5 1010 131.5C1011.86 131.5 1013.52 131.932 1014.7 132.606C1015.89 133.287 1016.5 134.152 1016.5 135C1016.5 135.848 1015.89 136.713 1014.7 137.394C1013.52 138.068 1011.86 138.5 1010 138.5C1008.14 138.5 1006.48 138.068 1005.3 137.394C1004.11 136.713 1003.5 135.848 1003.5 135Z" fill="#363636" stroke="#363636"/>
<path d="M603.5 49C603.5 47.8539 604.245 46.7406 605.608 45.8885C606.965 45.0407 608.87 44.5 611 44.5C613.13 44.5 615.035 45.0407 616.392 45.8885C617.755 46.7406 618.5 47.8539 618.5 49C618.5 50.1461 617.755 51.2594 616.392 52.1115C615.035 52.9593 613.13 53.5 611 53.5C608.87 53.5 606.965 52.9593 605.608 52.1115C604.245 51.2594 603.5 50.1461 603.5 49Z" fill="#363636" stroke="#363636"/>
<path d="M583.5 145C583.5 143.854 584.245 142.741 585.608 141.888C586.965 141.041 588.87 140.5 591 140.5C593.13 140.5 595.035 141.041 596.392 141.888C597.755 142.741 598.5 143.854 598.5 145C598.5 146.146 597.755 147.259 596.392 148.112C595.035 148.959 593.13 149.5 591 149.5C588.87 149.5 586.965 148.959 585.608 148.112C584.245 147.259 583.5 146.146 583.5 145Z" fill="#363636" stroke="#363636"/>
<path d="M363.5 5.5C363.5 4.19327 364.27 2.95549 365.626 2.02293C366.981 1.0919 368.879 0.5 371 0.5C373.121 0.5 375.019 1.0919 376.374 2.02293C377.73 2.95549 378.5 4.19327 378.5 5.5C378.5 6.80673 377.73 8.04451 376.374 8.97707C375.019 9.9081 373.121 10.5 371 10.5C368.879 10.5 366.981 9.9081 365.626 8.97707C364.27 8.04451 363.5 6.80673 363.5 5.5Z" fill="#363636" stroke="#363636"/>
<path d="M217.5 126C217.5 124.838 218.206 123.726 219.474 122.88C220.738 122.038 222.514 121.5 224.5 121.5C226.486 121.5 228.262 122.038 229.526 122.88C230.794 123.726 231.5 124.838 231.5 126C231.5 127.162 230.794 128.274 229.526 129.12C228.262 129.962 226.486 130.5 224.5 130.5C222.514 130.5 220.738 129.962 219.474 129.12C218.206 128.274 217.5 127.162 217.5 126Z" fill="#363636" stroke="#363636"/>
<path d="M167.5 156.5C167.5 153.844 170.291 151.5 174 151.5C177.709 151.5 180.5 153.844 180.5 156.5C180.5 159.156 177.709 161.5 174 161.5C170.291 161.5 167.5 159.156 167.5 156.5Z" fill="#363636" stroke="#363636"/>
<path d="M78.5 110C78.5 108.838 79.2062 107.726 80.474 106.88C81.7384 106.038 83.5139 105.5 85.5 105.5C87.4861 105.5 89.2616 106.038 90.526 106.88C91.7938 107.726 92.5 108.838 92.5 110C92.5 111.162 91.7938 112.274 90.526 113.12C89.2616 113.962 87.4861 114.5 85.5 114.5C83.5139 114.5 81.7384 113.962 80.474 113.12C79.2062 112.274 78.5 111.162 78.5 110Z" fill="#363636" stroke="#363636"/>
<path d="M68.5 84C68.5 82.8385 69.2062 81.7257 70.474 80.8805C71.7384 80.0376 73.5139 79.5 75.5 79.5C77.4861 79.5 79.2616 80.0376 80.526 80.8805C81.7938 81.7257 82.5 82.8385 82.5 84C82.5 85.1615 81.7938 86.2743 80.526 87.1195C79.2616 87.9624 77.4861 88.5 75.5 88.5C73.5139 88.5 71.7384 87.9624 70.474 87.1195C69.2062 86.2743 68.5 85.1615 68.5 84Z" fill="#363636" stroke="#363636"/>
<path d="M76.5 30C76.5 28.8385 77.2062 27.7257 78.474 26.8805C79.7384 26.0376 81.5139 25.5 83.5 25.5C85.4861 25.5 87.2616 26.0376 88.526 26.8805C89.7938 27.7257 90.5 28.8385 90.5 30C90.5 31.1615 89.7938 32.2743 88.526 33.1195C87.2616 33.9624 85.4861 34.5 83.5 34.5C81.5139 34.5 79.7384 33.9624 78.474 33.1195C77.2062 32.2743 76.5 31.1615 76.5 30Z" fill="#363636" stroke="#363636"/>
<path d="M708.5 322.5C708.5 321.485 709.141 320.497 710.321 319.739C711.495 318.983 713.148 318.5 715 318.5C716.852 318.5 718.505 318.983 719.679 319.739C720.859 320.497 721.5 321.485 721.5 322.5C721.5 323.515 720.859 324.503 719.679 325.261C718.505 326.017 716.852 326.5 715 326.5C713.148 326.5 711.495 326.017 710.321 325.261C709.141 324.503 708.5 323.515 708.5 322.5Z" fill="#363636" stroke="#363636"/>
<path d="M525.5 303.5C525.5 302.485 526.141 301.497 527.321 300.739C528.495 299.983 530.148 299.5 532 299.5C533.852 299.5 535.505 299.983 536.679 300.739C537.859 301.497 538.5 302.485 538.5 303.5C538.5 304.515 537.859 305.503 536.679 306.261C535.505 307.017 533.852 307.5 532 307.5C530.148 307.5 528.495 307.017 527.321 306.261C526.141 305.503 525.5 304.515 525.5 303.5Z" fill="#363636" stroke="#363636"/>
<path d="M347.5 305.5C347.5 304.193 348.27 302.955 349.626 302.023C350.981 301.092 352.879 300.5 355 300.5C357.121 300.5 359.019 301.092 360.374 302.023C361.73 302.955 362.5 304.193 362.5 305.5C362.5 306.807 361.73 308.045 360.374 308.977C359.019 309.908 357.121 310.5 355 310.5C352.879 310.5 350.981 309.908 349.626 308.977C348.27 308.045 347.5 306.807 347.5 305.5Z" fill="#363636" stroke="#363636"/>
<path d="M218.5 312.5C218.5 311.193 219.27 309.955 220.626 309.023C221.981 308.092 223.879 307.5 226 307.5C228.121 307.5 230.019 308.092 231.374 309.023C232.73 309.955 233.5 311.193 233.5 312.5C233.5 313.807 232.73 315.045 231.374 315.977C230.019 316.908 228.121 317.5 226 317.5C223.879 317.5 221.981 316.908 220.626 315.977C219.27 315.045 218.5 313.807 218.5 312.5Z" fill="#363636" stroke="#363636"/>
<path d="M394.5 412C394.5 409.061 397.524 406.5 401.5 406.5C405.476 406.5 408.5 409.061 408.5 412C408.5 414.939 405.476 417.5 401.5 417.5C397.524 417.5 394.5 414.939 394.5 412Z" fill="#363636" stroke="#363636"/>
<path d="M618.5 614.5C618.5 611.561 621.524 609 625.5 609C629.476 609 632.5 611.561 632.5 614.5C632.5 617.439 629.476 620 625.5 620C621.524 620 618.5 617.439 618.5 614.5Z" fill="#363636" stroke="#363636"/>
<path d="M382.5 707.5C382.5 704.561 385.524 702 389.5 702C393.476 702 396.5 704.561 396.5 707.5C396.5 710.439 393.476 713 389.5 713C385.524 713 382.5 710.439 382.5 707.5Z" fill="#363636" stroke="#363636"/>
<path d="M320.5 376C320.5 373.061 323.524 370.5 327.5 370.5C331.476 370.5 334.5 373.061 334.5 376C334.5 378.939 331.476 381.5 327.5 381.5C323.524 381.5 320.5 378.939 320.5 376Z" fill="#363636" stroke="#363636"/>
<path d="M250.5 436C250.5 433.061 253.524 430.5 257.5 430.5C261.476 430.5 264.5 433.061 264.5 436C264.5 438.939 261.476 441.5 257.5 441.5C253.524 441.5 250.5 438.939 250.5 436Z" fill="#363636" stroke="#363636"/>
<path d="M20.5 632C20.5 630.549 21.3323 629.186 22.7779 628.166C24.2222 627.146 26.2437 626.5 28.5 626.5C30.7563 626.5 32.7778 627.146 34.2221 628.166C35.6677 629.186 36.5 630.549 36.5 632C36.5 633.451 35.6677 634.814 34.2221 635.834C32.7778 636.854 30.7563 637.5 28.5 637.5C26.2437 637.5 24.2222 636.854 22.7779 635.834C21.3323 634.814 20.5 633.451 20.5 632Z" fill="#363636" stroke="#363636"/>
<path d="M28.5 577C28.5 575.549 29.3323 574.186 30.7779 573.166C32.2222 572.146 34.2437 571.5 36.5 571.5C38.7563 571.5 40.7778 572.146 42.2221 573.166C43.6677 574.186 44.5 575.549 44.5 577C44.5 578.451 43.6677 579.814 42.2221 580.834C40.7778 581.854 38.7563 582.5 36.5 582.5C34.2437 582.5 32.2222 581.854 30.7779 580.834C29.3323 579.814 28.5 578.451 28.5 577Z" fill="#363636" stroke="#363636"/>
<path d="M119.5 587C119.5 585.549 120.332 584.186 121.778 583.166C123.222 582.146 125.244 581.5 127.5 581.5C129.756 581.5 131.778 582.146 133.222 583.166C134.668 584.186 135.5 585.549 135.5 587C135.5 588.451 134.668 589.814 133.222 590.834C131.778 591.854 129.756 592.5 127.5 592.5C125.244 592.5 123.222 591.854 121.778 590.834C120.332 589.814 119.5 588.451 119.5 587Z" fill="#363636" stroke="#363636"/>
</svg>
