<svg width="53" height="46" viewBox="0 0 53 46" fill="none" xmlns="http://www.w3.org/2000/svg">
<path d="M16.7268 1.27315L16.601 0.789241V0.789241L16.7268 1.27315ZM4.72377 9.6783L5.13541 9.96211L4.72377 9.6783ZM1.1314 23.8925L0.634333 23.9466L1.1314 23.8925ZM7.6978 36.9989L6.60869 31.3291L2.24301 35.1072L7.6978 36.9989ZM31.5211 2.31879C26.8924 0.0330284 21.5966 -0.509888 16.601 0.789241L16.8527 1.75705C21.6157 0.518398 26.665 1.03603 31.0783 3.21542L31.5211 2.31879ZM16.601 0.789241C11.6054 2.08837 7.24355 5.1428 4.31212 9.39448L5.13541 9.96211C7.9306 5.90801 12.0896 2.9957 16.8527 1.75705L16.601 0.789241ZM4.31212 9.39448C1.38071 13.6462 0.0753259 18.8114 0.634333 23.9466L1.62846 23.8384C1.09541 18.9415 2.34021 14.0162 5.13541 9.96211L4.31212 9.39448ZM0.634333 23.9466C1.0255 27.54 2.31134 30.951 4.3425 33.8815L5.16438 33.3118C3.22758 30.5175 2.00147 27.265 1.62846 23.8384L0.634333 23.9466Z" fill="white"/>
<path d="M34.0091 4.60202L39.471 6.4686L35.1221 10.2677L34.0091 4.60202ZM41.5185 18.5826L41.0203 18.6252L41.5185 18.5826ZM37.5913 32.7078L37.1866 32.4143L37.5913 32.7078ZM25.393 40.8264L25.2789 40.3396L25.393 40.8264ZM37.3681 7.69181C39.7665 10.9013 41.699 14.804 42.0166 18.5401L41.0203 18.6252C40.7245 15.1455 38.9051 11.4195 36.5672 8.29086L37.3681 7.69181ZM42.0166 18.5401C42.4541 23.6872 41.0271 28.8201 37.996 33.0013L37.1866 32.4143C40.0768 28.4276 41.4376 23.5332 41.0203 18.6252L42.0166 18.5401ZM37.996 33.0013C34.9649 37.1824 30.532 40.1328 25.5071 41.3133L25.2789 40.3396C30.0699 39.214 34.2965 36.401 37.1866 32.4143L37.996 33.0013ZM25.5071 41.3133C20.4822 42.4938 15.2008 41.8256 10.6275 39.431L11.0914 38.5448C15.4521 40.8281 20.4879 41.4651 25.2789 40.3396L25.5071 41.3133Z" fill="white"/>
<path d="M53.0088 41.6328L48.0088 38.7461V44.5196L53.0088 41.6328ZM34.5088 42.1328H48.5088V41.1328H34.5088V42.1328Z" fill="white"/>
<path d="M11.874 15.7395L11.6247 15.6209L11.874 15.7395ZM11.1658 23.8065L11.4319 23.7332L11.1658 23.8065ZM15.8992 30.3742L15.7457 30.6038L15.8992 30.3742ZM23.7709 32.2466L20.9857 30.6949L21.036 33.8847L23.7709 32.2466ZM17.5681 9.84587C14.9586 10.9944 12.849 13.0443 11.6247 15.6209L12.1233 15.8582C13.2907 13.4014 15.3022 11.4469 17.7904 10.3517L17.5681 9.84587ZM11.6247 15.6209C10.4004 18.1975 10.143 21.1289 10.8996 23.8798L11.4319 23.7332C10.7105 21.1103 10.9559 18.3151 12.1233 15.8582L11.6247 15.6209ZM10.8996 23.8798C11.6562 26.6307 13.3763 29.0173 15.7457 30.6038L16.0527 30.1445C13.7934 28.6318 12.1533 26.3562 11.4319 23.7332L10.8996 23.8798ZM15.7457 30.6038C17.4035 31.7138 19.3017 32.3802 21.2613 32.5606L21.3118 32.0104C19.4432 31.8384 17.6333 31.2029 16.0527 30.1445L15.7457 30.6038Z" fill="url(#paint0_linear_213_6590)"/>
<path d="M19.4177 9.60274L22.1458 7.95303L22.2095 11.1425L19.4177 9.60274ZM27.9937 11.3862L27.8349 11.6121L27.9937 11.3862ZM32.5707 18.064L32.3029 18.131L32.3029 18.131L32.5707 18.064ZM31.672 26.1119L31.9184 26.2365L31.672 26.1119ZM21.9171 9.27741C24.1251 9.40132 26.4607 9.96851 28.1526 11.1603L27.8349 11.6121C26.2591 10.5022 24.0386 9.94986 21.8863 9.82907L21.9171 9.27741ZM28.1526 11.1603C30.4839 12.8024 32.1471 15.2291 32.8385 17.997L32.3029 18.131C31.6436 15.4917 30.0577 13.1779 27.8349 11.6121L28.1526 11.1603ZM32.8385 17.997C33.5299 20.765 33.2033 23.6895 31.9184 26.2365L31.4256 25.9874C32.6507 23.5589 32.9621 20.7703 32.3029 18.131L32.8385 17.997ZM31.9184 26.2365C30.6336 28.7834 28.4761 30.7827 25.8402 31.8692L25.6299 31.3583C28.1433 30.3223 30.2004 28.4159 31.4256 25.9874L31.9184 26.2365Z" fill="url(#paint1_linear_213_6590)"/>
<defs>
<linearGradient id="paint0_linear_213_6590" x1="7.72386" y1="4.47037" x2="4.43016" y2="8.53336" gradientUnits="userSpaceOnUse">
<stop stop-color="#90BDF5"/>
<stop offset="1" stop-color="#4987E5"/>
<stop offset="1" stop-color="#679CDE"/>
</linearGradient>
<linearGradient id="paint1_linear_213_6590" x1="25.5194" y1="-0.495822" x2="30.5569" y2="1.49777" gradientUnits="userSpaceOnUse">
<stop stop-color="#90BDF5"/>
<stop offset="1" stop-color="#4987E5"/>
<stop offset="1" stop-color="#679CDE"/>
</linearGradient>
</defs>
</svg>
