<svg width="47" height="40" viewBox="0 0 47 40" fill="none" xmlns="http://www.w3.org/2000/svg">
<path d="M21.5354 13.9044L24.1354 15.0054C24.4465 14.3826 24.7687 13.7821 25.102 13.2038C25.4354 12.6255 25.802 12.0472 26.202 11.469L24.3354 11.102L21.5354 13.9044ZM26.2687 16.6735L30.0687 20.4435C31.002 20.0876 32.002 19.5427 33.0687 18.8087C34.1354 18.0747 35.1354 17.2407 36.0687 16.3065C37.6242 14.7496 38.8411 13.0205 39.7194 11.1193C40.5976 9.21812 40.9807 7.46637 40.8687 5.86408C39.2687 5.75288 37.5131 6.13677 35.602 7.01575C33.6909 7.89474 31.9576 9.11225 30.402 10.6683C29.4687 11.6024 28.6354 12.6033 27.902 13.6709C27.1687 14.7385 26.6242 15.7394 26.2687 16.6735ZM32.202 14.5049C31.6909 13.9934 31.4354 13.3653 31.4354 12.6206C31.4354 11.876 31.6909 11.2474 32.202 10.735C32.7131 10.2234 33.3465 9.96766 34.102 9.96766C34.8576 9.96766 35.4909 10.2234 36.002 10.735C36.5131 11.2466 36.7687 11.8751 36.7687 12.6206C36.7687 13.3662 36.5131 13.9943 36.002 14.5049C35.4909 15.0165 34.8576 15.2723 34.102 15.2723C33.3465 15.2723 32.7131 15.0165 32.202 14.5049ZM32.8354 25.2143L35.6354 22.4118L35.2687 20.5435C34.6909 20.9439 34.1131 21.3051 33.5354 21.6271C32.9576 21.9492 32.3576 22.2664 31.7354 22.5786L32.8354 25.2143ZM43.2687 3.42863C43.6909 6.11986 43.43 8.73903 42.486 11.2861C41.542 13.8332 39.914 16.2625 37.602 18.5738L38.2687 21.878C38.3576 22.3229 38.3354 22.7566 38.202 23.1792C38.0687 23.6018 37.8465 23.9687 37.5354 24.2801L31.9354 29.885L29.1354 23.3126L23.4354 17.6076L16.8687 14.8052L22.4354 9.20032C22.7465 8.88894 23.1189 8.66653 23.5527 8.53308C23.9865 8.39963 24.4251 8.37739 24.8687 8.46635L28.1687 9.1336C30.4798 6.82047 32.902 5.18572 35.4354 4.22933C37.9687 3.27294 40.5798 3.00604 43.2687 3.42863ZM19.2354 21.8447C20.0131 21.0662 20.9634 20.6717 22.086 20.661C23.2087 20.6503 24.1585 21.0337 24.9354 21.8113C25.7131 22.5898 26.0967 23.5408 26.086 24.6645C26.0754 25.7881 25.6807 26.7387 24.902 27.5163C24.3465 28.0723 23.4189 28.5505 22.1194 28.9509C20.8198 29.3512 19.0251 29.7071 16.7354 30.0185C17.0465 27.7276 17.402 25.9313 17.802 24.6298C18.202 23.3282 18.6798 22.3998 19.2354 21.8447ZM21.1354 23.713C20.9131 23.9354 20.6909 24.3415 20.4687 24.9314C20.2465 25.5212 20.0909 26.1159 20.002 26.7156C20.602 26.6266 21.1967 26.4763 21.786 26.2645C22.3754 26.0528 22.7807 25.8361 23.002 25.6146C23.2687 25.3477 23.4131 25.0252 23.4354 24.6471C23.4576 24.269 23.3354 23.9465 23.0687 23.6796C22.802 23.4127 22.4798 23.2846 22.102 23.2953C21.7242 23.3059 21.402 23.4452 21.1354 23.713Z" fill="url(#paint0_linear_213_6639)"/>
<path d="M14.502 12.5371H6.00195C4.89738 12.5371 4.00195 13.4325 4.00195 14.5371V38.0593" stroke="white"/>
<path d="M0.00195312 38.5605H47.002" stroke="white"/>
<path d="M44.0029 20.043V38.5591" stroke="white"/>
<defs>
<linearGradient id="paint0_linear_213_6639" x1="16.7354" y1="16.6264" x2="43.4642" y2="16.6264" gradientUnits="userSpaceOnUse">
<stop stop-color="#2F69B1"/>
<stop offset="1" stop-color="#53A4FF"/>
</linearGradient>
</defs>
</svg>
