<svg width="1017" height="714" viewBox="0 0 1017 714" fill="none" xmlns="http://www.w3.org/2000/svg">
<path d="M689.5 338L730 315H759.5L848.5 366" stroke="#363636"/>
<path d="M391.5 100L497.5 160.5H660.5L931.5 317L965 299.5L690.5 139.5V43L625.5 5.5" stroke="#363636"/>
<path d="M1005.5 5L836.5 102V184.5L1000.5 278L833 375.5L884 405L1013 479" stroke="#363636"/>
<path d="M908.5 62.5H974L1016 38.5" stroke="#363636"/>
<path d="M988.5 80L1013.5 95" stroke="#363636"/>
<path d="M980.5 136L1013 156.5" stroke="#363636"/>
<path d="M889.5 126.5V171L970.5 217.5V261" stroke="#363636"/>
<path d="M615 301.5L705.5 248.5H764.5L845.5 295H892.5" stroke="#363636"/>
<path d="M883.5 405L689 518H517L429 568" stroke="#363636"/>
<path d="M907.5 418.5L701 537.5H550.701L370 642.5H117.5L6.5 578.5" stroke="#363636"/>
<path d="M302.5 391.5L487 499.5H721" stroke="#363636"/>
<path d="M487 409L549 373.5H651.5L794.5 457" stroke="#363636"/>
<path d="M663.5 408.5L714 439.5H764.5" stroke="#363636"/>
<path d="M794.5 402.5L822.5 419.5H859" stroke="#363636"/>
<path d="M405.5 664.5L484 618V576.5" stroke="#363636"/>
<path d="M532.5 711V665.5L934 434" stroke="#363636"/>
<path d="M966 452L759 571.5V672.5L823 709.5" stroke="#363636"/>
<path d="M780 685L738.5 709.5" stroke="#363636"/>
<path d="M995.5 469L845.5 555.5" stroke="#363636"/>
<path d="M791.5 587.5H847.5L1014.5 491" stroke="#363636"/>
<path d="M935.5 602.5L995.5 566.5H1015" stroke="#363636"/>
<path d="M943 630L1015 587" stroke="#363636"/>
<path d="M935.5 682L999.5 645V614L1015.5 605.5" stroke="#363636"/>
<path d="M759 593.5L722 614V663L649.5 705.5" stroke="#363636"/>
<path d="M763 279.5L825.5 317L824.5 352.5" stroke="#363636"/>
<path d="M13.5 578.5C13.5 579.348 12.8942 580.213 11.7017 580.894C10.5233 581.568 8.8621 582 7 582C5.1379 582 3.47666 581.568 2.29832 580.894C1.10584 580.213 0.5 579.348 0.5 578.5C0.5 577.652 1.10584 576.787 2.29832 576.106C3.47666 575.432 5.1379 575 7 575C8.8621 575 10.5233 575.432 11.7017 576.106C12.8942 576.787 13.5 577.652 13.5 578.5Z" fill="#363636" stroke="#363636"/>
<path d="M413.5 664.5C413.5 665.646 412.755 666.759 411.392 667.612C410.035 668.459 408.13 669 406 669C403.87 669 401.965 668.459 400.608 667.612C399.245 666.759 398.5 665.646 398.5 664.5C398.5 663.354 399.245 662.241 400.608 661.388C401.965 660.541 403.87 660 406 660C408.13 660 410.035 660.541 411.392 661.388C412.755 662.241 413.5 663.354 413.5 664.5Z" fill="#363636" stroke="#363636"/>
<path d="M433.5 568.5C433.5 569.646 432.755 570.759 431.392 571.612C430.035 572.459 428.13 573 426 573C423.87 573 421.965 572.459 420.608 571.612C419.245 570.759 418.5 569.646 418.5 568.5C418.5 567.354 419.245 566.241 420.608 565.388C421.965 564.541 423.87 564 426 564C428.13 564 430.035 564.541 431.392 565.388C432.755 566.241 433.5 567.354 433.5 568.5Z" fill="#363636" stroke="#363636"/>
<path d="M653.5 708C653.5 709.307 652.73 710.545 651.374 711.477C650.019 712.408 648.121 713 646 713C643.879 713 641.981 712.408 640.626 711.477C639.27 710.545 638.5 709.307 638.5 708C638.5 706.693 639.27 705.455 640.626 704.523C641.981 703.592 643.879 703 646 703C648.121 703 650.019 703.592 651.374 704.523C652.73 705.455 653.5 706.693 653.5 708Z" fill="#363636" stroke="#363636"/>
<path d="M799.5 587.5C799.5 588.662 798.794 589.774 797.526 590.62C796.262 591.462 794.486 592 792.5 592C790.514 592 788.738 591.462 787.474 590.62C786.206 589.774 785.5 588.662 785.5 587.5C785.5 586.338 786.206 585.226 787.474 584.38C788.738 583.538 790.514 583 792.5 583C794.486 583 796.262 583.538 797.526 584.38C798.794 585.226 799.5 586.338 799.5 587.5Z" fill="#363636" stroke="#363636"/>
<path d="M849.5 557C849.5 559.656 846.709 562 843 562C839.291 562 836.5 559.656 836.5 557C836.5 554.344 839.291 552 843 552C846.709 552 849.5 554.344 849.5 557Z" fill="#363636" stroke="#363636"/>
<path d="M938.5 603.5C938.5 604.662 937.794 605.774 936.526 606.62C935.262 607.462 933.486 608 931.5 608C929.514 608 927.738 607.462 926.474 606.62C925.206 605.774 924.5 604.662 924.5 603.5C924.5 602.338 925.206 601.226 926.474 600.38C927.738 599.538 929.514 599 931.5 599C933.486 599 935.262 599.538 936.526 600.38C937.794 601.226 938.5 602.338 938.5 603.5Z" fill="#363636" stroke="#363636"/>
<path d="M948.5 629.5C948.5 630.662 947.794 631.774 946.526 632.62C945.262 633.462 943.486 634 941.5 634C939.514 634 937.738 633.462 936.474 632.62C935.206 631.774 934.5 630.662 934.5 629.5C934.5 628.338 935.206 627.226 936.474 626.38C937.738 625.538 939.514 625 941.5 625C943.486 625 945.262 625.538 946.526 626.38C947.794 627.226 948.5 628.338 948.5 629.5Z" fill="#363636" stroke="#363636"/>
<path d="M940.5 683.5C940.5 684.662 939.794 685.774 938.526 686.62C937.262 687.462 935.486 688 933.5 688C931.514 688 929.738 687.462 928.474 686.62C927.206 685.774 926.5 684.662 926.5 683.5C926.5 682.338 927.206 681.226 928.474 680.38C929.738 679.538 931.514 679 933.5 679C935.486 679 937.262 679.538 938.526 680.38C939.794 681.226 940.5 682.338 940.5 683.5Z" fill="#363636" stroke="#363636"/>
<path d="M308.5 391C308.5 392.015 307.859 393.003 306.679 393.761C305.505 394.517 303.852 395 302 395C300.148 395 298.495 394.517 297.321 393.761C296.141 393.003 295.5 392.015 295.5 391C295.5 389.985 296.141 388.997 297.321 388.239C298.495 387.483 300.148 387 302 387C303.852 387 305.505 387.483 306.679 388.239C307.859 388.997 308.5 389.985 308.5 391Z" fill="#363636" stroke="#363636"/>
<path d="M491.5 410C491.5 411.015 490.859 412.003 489.679 412.761C488.505 413.517 486.852 414 485 414C483.148 414 481.495 413.517 480.321 412.761C479.141 412.003 478.5 411.015 478.5 410C478.5 408.985 479.141 407.997 480.321 407.239C481.495 406.483 483.148 406 485 406C486.852 406 488.505 406.483 489.679 407.239C490.859 407.997 491.5 408.985 491.5 410Z" fill="#363636" stroke="#363636"/>
<path d="M669.5 408C669.5 409.307 668.73 410.545 667.374 411.477C666.019 412.408 664.121 413 662 413C659.879 413 657.981 412.408 656.626 411.477C655.27 410.545 654.5 409.307 654.5 408C654.5 406.693 655.27 405.455 656.626 404.523C657.981 403.592 659.879 403 662 403C664.121 403 666.019 403.592 667.374 404.523C668.73 405.455 669.5 406.693 669.5 408Z" fill="#363636" stroke="#363636"/>
<path d="M798.5 401C798.5 402.307 797.73 403.545 796.374 404.477C795.019 405.408 793.121 406 791 406C788.879 406 786.981 405.408 785.626 404.477C784.27 403.545 783.5 402.307 783.5 401C783.5 399.693 784.27 398.455 785.626 397.523C786.981 396.592 788.879 396 791 396C793.121 396 795.019 396.592 796.374 397.523C797.73 398.455 798.5 399.693 798.5 401Z" fill="#363636" stroke="#363636"/>
<path d="M622.5 301.5C622.5 304.439 619.476 307 615.5 307C611.524 307 608.5 304.439 608.5 301.5C608.5 298.561 611.524 296 615.5 296C619.476 296 622.5 298.561 622.5 301.5Z" fill="#363636" stroke="#363636"/>
<path d="M398.5 99C398.5 101.939 395.476 104.5 391.5 104.5C387.524 104.5 384.5 101.939 384.5 99C384.5 96.0608 387.524 93.5 391.5 93.5C395.476 93.5 398.5 96.0608 398.5 99Z" fill="#363636" stroke="#363636"/>
<path d="M634.5 6C634.5 8.93922 631.476 11.5 627.5 11.5C623.524 11.5 620.5 8.93922 620.5 6C620.5 3.06078 623.524 0.5 627.5 0.5C631.476 0.5 634.5 3.06078 634.5 6Z" fill="#363636" stroke="#363636"/>
<path d="M696.5 337.5C696.5 340.439 693.476 343 689.5 343C685.524 343 682.5 340.439 682.5 337.5C682.5 334.561 685.524 332 689.5 332C693.476 332 696.5 334.561 696.5 337.5Z" fill="#363636" stroke="#363636"/>
<path d="M766.5 277.5C766.5 280.439 763.476 283 759.5 283C755.524 283 752.5 280.439 752.5 277.5C752.5 274.561 755.524 272 759.5 272C763.476 272 766.5 274.561 766.5 277.5Z" fill="#363636" stroke="#363636"/>
<path d="M996.5 81.5C996.5 82.9508 995.668 84.3137 994.222 85.3342C992.778 86.3536 990.756 87 988.5 87C986.244 87 984.222 86.3536 982.778 85.3342C981.332 84.3137 980.5 82.9508 980.5 81.5C980.5 80.0492 981.332 78.6863 982.778 77.6658C984.222 76.6464 986.244 76 988.5 76C990.756 76 992.778 76.6464 994.222 77.6658C995.668 78.6863 996.5 80.0492 996.5 81.5Z" fill="#363636" stroke="#363636"/>
<path d="M988.5 136.5C988.5 137.951 987.668 139.314 986.222 140.334C984.778 141.354 982.756 142 980.5 142C978.244 142 976.222 141.354 974.778 140.334C973.332 139.314 972.5 137.951 972.5 136.5C972.5 135.049 973.332 133.686 974.778 132.666C976.222 131.646 978.244 131 980.5 131C982.756 131 984.778 131.646 986.222 132.666C987.668 133.686 988.5 135.049 988.5 136.5Z" fill="#363636" stroke="#363636"/>
<path d="M897.5 126.5C897.5 127.951 896.668 129.314 895.222 130.334C893.778 131.354 891.756 132 889.5 132C887.244 132 885.222 131.354 883.778 130.334C882.332 129.314 881.5 127.951 881.5 126.5C881.5 125.049 882.332 123.686 883.778 122.666C885.222 121.646 887.244 121 889.5 121C891.756 121 893.778 121.646 895.222 122.666C896.668 123.686 897.5 125.049 897.5 126.5Z" fill="#363636" stroke="#363636"/>
</svg>
