<svg width="80" height="80" viewBox="0 0 80 80" fill="none" xmlns="http://www.w3.org/2000/svg">
<path d="M45.7123 49.893C44.4629 51.6696 43.1013 53.3647 41.636 54.968C45.5396 58.755 49.168 60.5283 51.1816 59.364C53.1953 58.202 53.473 54.1723 52.1453 48.9013C50.155 49.3446 47.9943 49.683 45.7123 49.893ZM42.6556 50.096C40.887 50.1692 39.116 50.1692 37.3473 50.096C38.2246 51.2439 39.116 52.308 40.0003 53.2763C40.887 52.308 41.776 51.2463 42.6556 50.096ZM54.4156 31.6766C60.634 33.4593 64.6963 36.4226 64.6963 39.9996C64.6963 43.5766 60.6363 46.54 54.418 48.3226C55.9813 54.5993 55.4446 59.5973 52.3483 61.3846C49.252 63.1743 44.6553 61.1396 40.0003 56.6456C35.3476 61.1373 30.751 63.1743 27.6546 61.3846C24.556 59.5973 24.0216 54.5993 25.585 48.3226C19.3666 46.54 15.3066 43.5766 15.3066 39.9996C15.3066 36.4226 19.3666 33.4593 25.585 31.6766C24.0216 25.3999 24.5583 20.4019 27.6546 18.6123C30.751 16.8249 35.3476 18.8596 40.0003 23.3536C44.6553 18.8596 49.252 16.8249 52.3483 18.6123C55.4446 20.4019 55.9813 25.3999 54.418 31.6766H54.4156ZM52.1453 31.098C53.4753 25.8246 53.1953 21.7973 51.1816 20.6329C49.168 19.4709 45.5396 21.2443 41.6383 25.0313C43.1026 26.6348 44.4634 28.3299 45.7123 30.1063C47.9943 30.3163 50.155 30.6523 52.1453 31.098ZM27.8553 48.9013C26.5276 54.1746 26.8053 58.202 28.8213 59.364C30.835 60.526 34.4633 58.755 38.3646 54.968C36.8999 53.364 35.5392 51.6681 34.2906 49.8906C32.1274 49.6972 29.9787 49.366 27.8576 48.899L27.8553 48.9013ZM37.3473 29.9033C39.116 29.8301 40.887 29.8301 42.6556 29.9033C41.8168 28.8054 40.9309 27.7443 40.0003 26.7229C39.1136 27.6936 38.227 28.7553 37.3473 29.9033ZM34.2906 30.1063C35.5393 28.3296 36.9 26.6345 38.3646 25.0313C34.4633 21.2443 30.835 19.4709 28.8236 20.6329C26.81 21.7973 26.53 25.827 27.86 31.098C29.8503 30.6546 32.0086 30.3186 34.2906 30.1063ZM44.4173 47.653C46.0798 45.2156 47.5578 42.6573 48.839 39.9996C47.5594 37.342 46.083 34.7838 44.422 32.3463C41.4806 32.1261 38.527 32.1261 35.5856 32.3463C33.9231 34.7836 32.4451 37.3419 31.164 39.9996C32.4445 42.6572 33.9217 45.2154 35.5833 47.653C38.5247 47.8728 41.4783 47.8728 44.4196 47.653H44.4173ZM47.4156 47.3449C48.8506 47.1583 50.2156 46.9203 51.499 46.638C51.0793 45.3214 50.6029 44.0236 50.071 42.7483C49.2503 44.3164 48.3629 45.8499 47.4156 47.3449ZM32.585 32.6519C31.15 32.8386 29.785 33.0789 28.5016 33.3613C28.8983 34.6119 29.3766 35.9139 29.932 37.2509C30.7526 35.6828 31.6377 34.1493 32.585 32.6543V32.6519ZM28.5016 46.638C29.785 46.9203 31.15 47.1583 32.585 47.3449C31.6377 45.8499 30.7526 44.3164 29.932 42.7483C29.3993 44.0236 28.922 45.3214 28.5016 46.638ZM26.2196 46.0663C26.831 44.1203 27.6196 42.0809 28.5763 39.9996C27.6625 38.0296 26.8754 36.0032 26.2196 33.9329C20.9906 35.4169 17.64 37.6756 17.64 39.9996C17.64 42.3236 20.9906 44.58 26.2196 46.0663ZM51.5036 33.3613C50.1534 33.0659 48.791 32.8292 47.4203 32.6519C48.3676 34.147 49.2527 35.6805 50.0733 37.2486C50.6286 35.9139 51.1046 34.6119 51.5036 33.3613ZM53.7833 33.9329C53.1766 35.8789 52.3833 37.9183 51.4266 39.9996C52.3833 42.0809 53.1766 44.1203 53.7833 46.0663C59.0146 44.58 62.3653 42.3236 62.3653 39.9996C62.3653 37.6756 59.0146 35.4193 53.7833 33.9329ZM40.0003 44.3839C39.4125 44.4031 38.8269 44.3039 38.2782 44.0922C37.7295 43.8805 37.229 43.5606 36.8064 43.1516C36.3838 42.7426 36.0478 42.2528 35.8183 41.7113C35.5888 41.1698 35.4706 40.5877 35.4706 39.9996C35.4706 39.4115 35.5888 38.8294 35.8183 38.2879C36.0478 37.7464 36.3838 37.2566 36.8064 36.8476C37.229 36.4386 37.7295 36.1187 38.2782 35.907C38.8269 35.6953 39.4125 35.5961 40.0003 35.6153C41.1383 35.6524 42.2174 36.1306 43.0093 36.9488C43.8012 37.7669 44.2439 38.861 44.2439 39.9996C44.2439 41.1383 43.8012 42.2323 43.0093 43.0505C42.2174 43.8686 41.1383 44.3468 40.0003 44.3839Z" fill="white"/>
</svg>
