<svg width="80" height="80" viewBox="0 0 80 80" fill="none" xmlns="http://www.w3.org/2000/svg">
<g clip-path="url(#clip0_605_300)">
<path d="M39.9998 17.6011L40.4382 16.0651C40.1516 15.9835 39.848 15.9835 39.5614 16.0651L39.9998 17.6011ZM17.5998 24.0011L17.1614 22.4651C16.7982 22.5687 16.4834 22.7973 16.2726 23.1106C16.0617 23.4239 15.9685 23.8017 16.0094 24.1771L17.5998 24.0011ZM20.7998 52.8011L19.2094 52.9771C19.2388 53.2425 19.3341 53.4963 19.4867 53.7154C19.6393 53.9345 19.8443 54.1119 20.083 54.2315L20.7998 52.8011ZM39.9998 62.4011L39.283 63.8315C39.5055 63.943 39.7509 64.0011 39.9998 64.0011C40.2487 64.0011 40.4941 63.943 40.7166 63.8315L39.9998 62.4011ZM59.1998 52.8011L59.9166 54.2315C60.1553 54.1119 60.3603 53.9345 60.5129 53.7154C60.6655 53.4963 60.7608 53.2425 60.7902 52.9771L59.1998 52.8011ZM62.3998 24.0011L63.9902 24.1771C64.0319 23.8012 63.9391 23.4227 63.7282 23.1087C63.5173 22.7947 63.202 22.5655 62.8382 22.4619L62.3998 24.0011ZM39.9998 25.6011L41.4654 24.9611L39.9998 21.6107L38.5342 24.9611L39.9998 25.6011ZM39.5614 16.0651L17.1614 22.4651L18.0382 25.5371L40.4382 19.1371L39.5614 16.0651ZM16.0094 24.1739L19.2094 52.9739L22.3902 52.6219L19.1902 23.8219L16.0094 24.1739ZM20.083 54.2315L39.283 63.8315L40.7166 60.9675L21.5166 51.3675L20.083 54.2315ZM40.7166 63.8315L59.9166 54.2315L58.483 51.3675L39.283 60.9675L40.7166 63.8315ZM60.7902 52.9739L63.9902 24.1739L60.8094 23.8219L57.6094 52.6219L60.7902 52.9739ZM62.8382 22.4587L40.4382 16.0587L39.5614 19.1371L61.9614 25.5371L62.8382 22.4587ZM30.2654 51.8411L41.4654 26.2411L38.5342 24.9611L27.3342 50.5611L30.2654 51.8411ZM38.5342 26.2411L49.7342 51.8411L52.6654 50.5611L41.4654 24.9611L38.5342 26.2411ZM31.9998 44.8011H47.9998V41.6011H31.9998V44.8011Z" fill="#E4E4E4"/>
</g>
<defs>
<clipPath id="clip0_605_300">
<rect width="48" height="48" fill="white" transform="translate(16 16)"/>
</clipPath>
</defs>
</svg>
