<svg width="80" height="80" viewBox="0 0 80 80" fill="none" xmlns="http://www.w3.org/2000/svg">
<path d="M56.8933 19H23.1067C22.0175 19 20.973 19.4327 20.2028 20.2028C19.4327 20.973 19 22.0175 19 23.1067V56.8933C19 57.9825 19.4327 59.027 20.2028 59.7972C20.973 60.5673 22.0175 61 23.1067 61H56.8933C57.4326 61 57.9666 60.8938 58.4649 60.6874C58.9631 60.481 59.4158 60.1785 59.7972 59.7972C60.1785 59.4158 60.481 58.9631 60.6874 58.4649C60.8938 57.9666 61 57.4326 61 56.8933V23.1067C61 22.5674 60.8938 22.0334 60.6874 21.5351C60.481 21.0369 60.1785 20.5842 59.7972 20.2028C59.4158 19.8215 58.9631 19.519 58.4649 19.3126C57.9666 19.1062 57.4326 19 56.8933 19ZM43.36 42.3333H38.11V57.36H33.9333V42.3333H28.6833V38.9267H43.36V42.3333ZM56.8933 54.6533C56.5556 55.3716 56.0112 55.9727 55.33 56.38C54.6133 56.8211 53.8228 57.1294 52.9967 57.29C52.0756 57.4802 51.1372 57.574 50.1967 57.57C49.2343 57.5692 48.2739 57.4833 47.3267 57.3133C46.5215 57.1485 45.7385 56.89 44.9933 56.5433V52.5533L44.8533 52.4133H44.9933V52.5767C45.6952 53.1242 46.4839 53.5501 47.3267 53.8367C48.1683 54.1571 49.0629 54.3154 49.9633 54.3033C50.4339 54.3115 50.9037 54.2646 51.3633 54.1633C51.7085 54.0826 52.0391 53.9487 52.3433 53.7667C52.5815 53.6215 52.7815 53.4215 52.9267 53.1833C53.0703 52.9121 53.1335 52.6055 53.1087 52.2996C53.0839 51.9936 52.9722 51.7012 52.7867 51.4567C52.5673 51.1492 52.2899 50.8876 51.97 50.6867C51.5816 50.4136 51.1674 50.1791 50.7333 49.9867L49.17 49.3333C47.9325 48.8237 46.836 48.0233 45.9733 47C45.2514 46.1297 44.87 45.027 44.9 43.8967C44.8728 43.038 45.0656 42.1866 45.46 41.4233C45.8364 40.758 46.3639 40.1906 47 39.7667C47.7087 39.2952 48.5005 38.9626 49.3333 38.7867C50.2438 38.5771 51.1758 38.4753 52.11 38.4833C52.9607 38.4715 53.8111 38.5261 54.6533 38.6467C55.354 38.7562 56.042 38.936 56.7067 39.1833V43.0333C56.3995 42.8144 56.0712 42.6268 55.7267 42.4733C55.3556 42.3136 54.9735 42.1811 54.5833 42.0767C54.2094 41.9672 53.8269 41.8892 53.44 41.8433C53.083 41.8097 52.7236 41.8097 52.3667 41.8433C51.927 41.8361 51.4881 41.8831 51.06 41.9833C50.7088 42.057 50.3706 42.1828 50.0567 42.3567C49.8116 42.501 49.6039 42.7008 49.45 42.94C49.3103 43.1724 49.2376 43.4389 49.24 43.71C49.2343 43.9994 49.3156 44.2839 49.4733 44.5267C49.665 44.7917 49.902 45.0208 50.1733 45.2033C50.5023 45.4652 50.8629 45.6847 51.2467 45.8567L52.7167 46.51C53.3926 46.7894 54.0476 47.1169 54.6767 47.49C55.2298 47.7927 55.7334 48.1783 56.17 48.6333C56.5977 49.0478 56.9319 49.5491 57.15 50.1033C57.3738 50.7403 57.4843 51.4116 57.4767 52.0867C57.46 52.9581 57.2613 53.8165 56.8933 54.6067V54.6533Z" fill="#E4E4E4"/>
</svg>
