<svg width="80" height="80" viewBox="0 0 80 80" fill="none" xmlns="http://www.w3.org/2000/svg">
<path d="M19.9297 17.25L23.5391 58.0797L39.9891 62.75L56.3734 58.0797L60.0539 17.25H19.9297ZM53.3383 55.5641L39.9891 59.3703L26.5797 55.5641L23.4789 20.4984H56.4992L53.3383 55.5641ZM27.3672 25.6172L27.4602 26.9461L28.7016 40.8094H39.9945V40.8039H46.1688L45.5453 47.2844L39.9453 48.7992V48.8102H39.9016L34.3016 47.2953L33.9461 43.2922H28.9695L29.5875 51.2055L39.9016 54.0492H39.9945V54.0273L50.2594 51.2L50.3523 50.3086L51.5117 37.0633L51.6867 35.7344H39.9453V35.7453H33.3227L32.8742 30.5938H52.1297L52.2227 29.5273L52.4852 26.9461L52.5781 25.6172H39.9453H27.3672Z" fill="#E4E4E4"/>
</svg>
