<svg width="53" height="52" viewBox="0 0 53 52" fill="none" xmlns="http://www.w3.org/2000/svg">
<path d="M36.3435 8.125C29.7501 8.125 26.5001 14.625 26.5001 14.625C26.5001 14.625 23.2501 8.125 16.6566 8.125C11.2982 8.125 7.05491 12.608 7.00006 17.9573C6.88834 29.0611 15.8086 36.9576 25.586 43.5937C25.8556 43.7771 26.174 43.8751 26.5001 43.8751C26.8261 43.8751 27.1446 43.7771 27.4141 43.5937C37.1905 36.9576 46.1108 29.0611 46.0001 17.9573C45.9452 12.608 41.7019 8.125 36.3435 8.125Z" stroke="#F8F8F8" stroke-width="4" stroke-linecap="round" stroke-linejoin="round"/>
<path d="M5.375 26H16.75L21.625 16.25L26.5 32.5L31.375 22.75L34.625 29.25H47.625" stroke="#F8F8F8" stroke-width="4" stroke-linecap="round" stroke-linejoin="round"/>
</svg>
