<svg width="53" height="52" viewBox="0 0 53 52" fill="none" xmlns="http://www.w3.org/2000/svg">
<path d="M44.5321 6.96177C44.9597 6.96177 45.2607 7.04135 45.4174 7.10179C45.6056 7.60371 45.8581 9.40245 44.0023 11.263L34.5352 20.747L34.6034 21.9236C34.747 24.3859 35.0132 28.7987 35.2427 32.5815C35.4454 35.9485 35.6375 39.1282 35.65 39.3989C35.6565 39.5848 35.6592 39.6289 35.4861 39.8378C35.0992 40.3088 34.3772 41.107 33.7686 41.7686C32.825 39.2215 30.842 33.8416 29.7469 30.8301L28.3397 26.9553L25.4288 29.8716L20.0759 35.0281L19.3303 35.7738L19.3073 36.8282C19.2896 37.6698 19.2935 39.1801 19.2955 40.5118C19.2981 41.4395 19.3008 42.2823 19.2942 42.7468C19.2824 42.7685 19.4733 42.7941 19.4555 42.825C19.3414 42.6417 19.2188 42.444 19.089 42.2383C18.0096 40.5138 16.5158 38.1283 16.0601 37.384L15.7269 36.8387L15.18 36.5076C13.1911 35.304 10.9878 33.9146 9.64351 33.0467C9.69007 33.0198 9.72806 33.1623 9.75888 33.1459H9.84609C10.2691 33.1459 10.9681 33.1551 11.7517 33.1662C12.7767 33.18 13.9393 33.1971 14.8292 33.1971C15.1702 33.1971 15.4731 33.1945 15.7171 33.1892L16.7695 33.1649L17.5138 32.4193L22.6674 27.0932L25.5684 24.1881L21.7186 22.7691C18.8254 21.7028 13.2836 19.6294 10.6914 18.6538C11.3563 18.0402 12.1576 17.3116 12.6252 16.924C12.7557 16.8162 12.8574 16.7611 12.9275 16.7611L13.0199 16.7637C13.3091 16.7775 16.9007 17.0127 20.3729 17.24C24.0589 17.4811 28.219 17.7531 30.5842 17.9036L31.7665 17.9778L41.235 8.49119C42.5648 7.16083 43.8711 6.96177 44.5321 6.96177ZM44.5322 4.33403C42.9826 4.33403 41.0804 4.93047 39.3813 6.63333L30.7496 15.2803C25.8879 14.9722 13.4364 14.1471 13.1276 14.1385C13.061 14.1351 12.9943 14.1334 12.9276 14.1332C12.5072 14.1332 11.7813 14.214 10.9551 14.8979C9.9852 15.7014 7.96285 17.6067 7.96285 17.6067C7.47497 18.0968 7.22775 18.7038 7.28677 19.2747C7.32284 19.6196 7.50973 20.2483 8.35499 20.5795C8.86845 20.7812 17.0398 23.8439 20.813 25.2347L15.6595 30.5608C15.4312 30.566 15.1486 30.5687 14.8292 30.5687C13.2581 30.5687 10.8219 30.5174 9.84548 30.5174C9.7163 30.5174 9.61269 30.5174 9.5392 30.52C9.24215 30.5292 8.62705 30.3827 7.00471 31.7413L6.8893 31.8491C6.40273 32.3366 6.28863 32.8227 6.27814 33.144C6.26765 33.4751 6.35617 33.952 6.83422 34.3357C7.12144 34.5683 10.8035 36.9301 13.8232 38.7571C14.5472 39.9403 17.8784 45.2447 18.0522 45.5324C18.306 45.9621 18.7211 46.2071 19.2175 46.2229H19.2588C19.7415 46.2229 20.2372 45.9831 20.7225 45.5107C22.0956 43.9018 21.9061 43.2357 21.912 42.9558C21.9336 42.0781 21.8969 38.3596 21.9284 36.8854L27.2806 31.7282C28.6485 35.4926 31.6388 43.595 31.8388 44.1107C32.1719 44.9575 32.7994 45.1435 33.1437 45.1783C33.2001 45.1848 33.2579 45.1875 33.3142 45.1875C33.8316 45.1875 34.368 44.9438 34.8074 44.5036C34.8074 44.5036 36.7031 42.4881 37.5084 41.5072C38.315 40.527 38.2835 39.69 38.2678 39.2952C38.2613 39.0219 37.5018 26.6151 37.2199 21.7699L45.8535 13.1203C48.9133 10.0535 48.4267 6.3581 47.2903 5.22155C46.7887 4.71634 45.7729 4.33407 44.5322 4.33403Z" fill="#F8F8F8"/>
</svg>
