<svg width="19" height="16" viewBox="0 0 19 16" fill="none" xmlns="http://www.w3.org/2000/svg">
<path d="M14.0768 0C11.8509 3.79 10.6211 5.68 9.38114 5.68C8.14116 5.68 6.91135 3.79 4.69565 0C6.91135 3.79 7.96838 5.79 7.34839 6.84C6.7284 7.89 4.44156 8 0 8C4.60418 8 6.89102 8.11 7.40937 9.27C7.89723 10.35 6.8402 12.34 4.69565 16C6.92151 12.21 8.15133 10.32 9.3913 10.32C10.6313 10.32 11.8611 12.21 14.087 16C11.729 11.97 10.6923 9.97 11.5663 8.97C12.3388 8.09 14.6155 8 18.7826 8C14.087 8 11.8001 7.88 11.3427 6.65C10.926 5.55 11.9831 3.57 14.0768 0Z" fill="white"/>
</svg>
