<svg width="53" height="52" viewBox="0 0 53 52" fill="none" xmlns="http://www.w3.org/2000/svg">
<path d="M11.4409 30.167C9.09092 27.1881 7.81275 23.5046 7.8125 19.7104V10.3966C11.7287 8.37013 16.0738 7.3125 20.4832 7.3125C24.8927 7.3125 29.2378 8.37013 33.154 10.3966" stroke="#F8F8F8" stroke-width="3.51629" stroke-linecap="round" stroke-linejoin="round"/>
<path d="M28.64 44.2804C27.6402 44.5063 26.6011 44.4921 25.6078 44.2388C24.6146 43.9855 23.6955 43.5004 22.926 42.8233C20.2526 40.5187 18.2729 37.5158 17.2084 34.1505C16.1438 30.7852 16.0362 27.1901 16.8978 23.7672L18.9834 15.4248C23.5131 14.276 28.2572 14.2698 32.7899 15.4067C37.3226 16.5436 41.5021 18.7881 44.9534 21.9387L42.8678 30.2526C42.027 33.6786 40.2518 36.804 37.7398 39.2807C35.2278 41.7574 32.0776 43.4882 28.64 44.2804Z" stroke="#F8F8F8" stroke-width="3.51629" stroke-linecap="round" stroke-linejoin="round"/>
<path d="M22.4121 24.4809C22.7725 24.1037 23.2293 23.8324 23.7329 23.6964C24.2366 23.5604 24.7678 23.565 25.2691 23.7095C25.7597 23.8249 26.2111 24.068 26.5774 24.4143C26.9437 24.7605 27.2118 25.1974 27.3547 25.6808M33.7258 27.3093C34.0746 26.9344 34.5179 26.6601 35.0091 26.5152C35.5003 26.3704 36.0214 26.3602 36.5179 26.4858C37.0144 26.6113 37.468 26.8681 37.8312 27.2291C38.1944 27.5901 38.454 28.0421 38.5826 28.5378" stroke="#F8F8F8" stroke-width="3.51629" stroke-linecap="round" stroke-linejoin="round"/>
</svg>
