<svg width="53" height="53" viewBox="0 0 53 53" fill="none" xmlns="http://www.w3.org/2000/svg">
<path fill-rule="evenodd" clip-rule="evenodd" d="M26.3094 0.134766C40.8386 0.134766 52.6189 11.892 52.6189 26.3928C52.6189 40.8936 40.8386 52.6508 26.3094 52.6508C11.7803 52.6508 0 40.8936 0 26.3928C0 11.892 11.7803 0.134766 26.3094 0.134766ZM26.3094 38.6842C20.212 38.6842 15.1933 34.0836 14.546 28.1687C14.546 26.9325 13.5428 25.9313 12.3043 25.9313C11.0657 25.9313 10.0625 26.9325 10.0625 28.1687C10.0625 28.3085 10.0766 28.4455 10.099 28.5798C10.9536 36.7629 17.8862 43.1421 26.3123 43.1421C34.7383 43.1421 41.6709 36.7629 42.5255 28.5798C42.5507 28.4483 42.5648 28.3113 42.5648 28.1687C42.5648 26.9325 41.5616 25.9313 40.323 25.9313C39.0845 25.9313 38.0813 26.9325 38.0813 28.1687C37.434 34.0808 32.4153 38.6842 26.3179 38.6842H26.3094ZM20.0578 17.3679C22.1959 17.3679 23.9276 15.6368 23.9276 13.5057C23.9276 11.3718 22.1959 9.64347 20.0578 9.64347C17.9198 9.64347 16.1881 11.3718 16.1881 13.5057C16.1881 15.6395 17.9198 17.3679 20.0578 17.3679ZM20.0578 22.4159C21.2347 22.4159 22.1903 23.3696 22.1903 24.5442V26.6724C22.1903 29.0244 24.1013 30.9318 26.458 30.9318C28.8146 30.9318 30.7256 29.0244 30.7256 26.6724V22.4131H34.9933V26.6724C34.9933 28.2246 34.5786 29.6789 33.8501 30.9318C33.1019 32.2239 32.0202 33.3034 30.7256 34.0501C29.4703 34.7744 28.0132 35.1911 26.458 35.1911C24.9028 35.1911 23.4456 34.7772 22.1903 34.0501C20.8957 33.3034 19.814 32.2239 19.0659 30.9318C18.3401 29.6789 17.9226 28.2246 17.9226 26.6724V24.5442C17.9226 23.3696 18.8781 22.4159 20.055 22.4159H20.0578ZM30.7256 13.9V18.1594H34.9933V13.9H32.8609H30.7284H30.7256ZM34.9933 18.1594H30.7256V22.4187H34.9933V18.1594ZM30.7256 11.7717C30.7256 12.9463 31.6812 13.9 32.8581 13.9C34.035 13.9 34.9905 12.9463 34.9905 11.7717C34.9905 10.5943 34.035 9.64347 32.8581 9.64347C31.6784 9.64347 30.7256 10.5971 30.7256 11.7717ZM34.9905 11.7717C34.9905 12.9463 34.035 13.9 32.8581 13.9H34.9905V11.7717ZM32.8581 13.9C31.6784 13.9 30.7256 12.9463 30.7256 11.7717V13.9H32.8581Z" fill="white"/>
</svg>
